<svg id="Capa_1" enable-background="new 0 0 512 512" height="512" viewBox="0 0 512 512" width="512" xmlns="http://www.w3.org/2000/svg"><g><path d="m145.316 313.6-7.786 7.786c-2.929 2.93-2.929 7.678 0 10.607 1.465 1.464 3.385 2.196 5.304 2.196s3.839-.732 5.304-2.196l7.786-7.786c2.929-2.93 2.929-7.678 0-10.607-2.93-2.928-7.678-2.928-10.608 0z"/><path d="m271.7 445.573c-7.191 0-13.315-5.292-14.311-12.421-.572-4.104-4.366-6.976-8.464-6.392-4.103.572-6.964 4.361-6.392 8.464 2.029 14.549 14.51 25.349 29.162 25.349 15.613 0 28.597-12.348 29.404-27.89.423-8.16-2.437-15.911-8.053-21.825-5.536-5.831-13.319-9.176-21.353-9.176-2.085 0-3.925.091-5.596.267l2.358-14.234h20.6c4.143 0 7.5-3.357 7.5-7.5s-3.357-7.5-7.5-7.5h-26.959c-3.669 0-6.8 2.654-7.399 6.274l-5.341 32.234c-.462 2.788.696 5.592 2.975 7.265 2.278 1.672 5.317 1.916 7.839.639 3.921-1.993 7.125-2.444 11.523-2.444 3.997 0 7.717 1.6 10.475 4.504 2.756 2.901 4.158 6.709 3.95 10.72-.392 7.601-6.745 13.666-14.418 13.666z"/><path d="m504.5 225.606h-17.392v-17.392c0-4.143-3.357-7.5-7.5-7.5s-7.5 3.357-7.5 7.5v17.392h-17.392c-4.143 0-7.5 3.357-7.5 7.5s3.357 7.5 7.5 7.5h17.392v17.392c0 4.143 3.357 7.5 7.5 7.5s7.5-3.357 7.5-7.5v-17.392h17.392c4.143 0 7.5-3.357 7.5-7.5s-3.357-7.5-7.5-7.5z"/><path d="m406.924 223.882c-2.184-2.598-5.381-4.088-8.774-4.087s-6.59 1.491-8.771 4.088l-47.52 56.558c-2.897 3.448-3.516 8.127-1.614 12.21s5.882 6.619 10.387 6.619h19.07v70.445c0 8.797 7.157 15.954 15.955 15.954h28.383c8.797 0 15.954-7.157 15.954-15.954v-21.271c0-4.143-3.357-7.5-7.5-7.5s-7.5 3.357-7.5 7.5v21.271c0 .526-.428.954-.954.954h-28.383c-.526 0-.955-.428-.955-.954v-73.987c0-6.318-5.14-11.458-11.458-11.458h-15.01l39.917-47.51 39.917 47.51h-11.616c-6.318 0-11.458 5.14-11.458 11.458v23.716c0 4.143 3.357 7.5 7.5 7.5s7.5-3.357 7.5-7.5v-20.174h15.677c4.505 0 8.484-2.536 10.387-6.619 1.901-4.083 1.283-8.762-1.614-12.209z"/><path d="m271.695 334.174c-17.74 0-34.19 5.63-47.656 15.198l-6.398-6.398 236.803-236.804c1.591-1.592 2.383-3.812 2.159-6.052l-7.329-73.154c-.356-3.551-3.164-6.358-6.715-6.715l-73.153-7.329c-2.24-.217-4.459.569-6.05 2.158-2.515 2.513-24.553 24.552-54.397 54.396-2.929 2.93-2.929 7.678 0 10.607 2.93 2.928 7.678 2.928 10.607 0l51.881-51.881 63.513 6.363 6.363 63.513-234.29 234.291-9.458-9.458 227.399-227.398c1.494-1.494 2.288-3.549 2.188-5.659l-1.834-38.521c-.184-3.862-3.272-6.951-7.135-7.135l-38.521-1.834c-2.123-.097-4.165.695-5.66 2.188l-227.398 227.397-9.458-9.458 161.814-161.811c2.929-2.93 2.929-7.678 0-10.607-2.93-2.928-7.678-2.928-10.607 0l-161.813 161.812-9.358-9.358c-4.377-4.376-10.195-6.786-16.385-6.786s-12.008 2.41-16.384 6.786l-15.682 15.682c-2.771 2.772-3.913 6.711-3.055 10.535.858 3.819 3.571 6.887 7.256 8.204 6.542 2.341 12.368 6.036 17.315 10.984 8.524 8.523 13.396 19.854 13.719 31.907.008.308.022.615.041.922l-12.744 12.744c-2.37-3.319-6.969-4.142-10.346-1.827-3.416 2.343-4.286 7.012-1.943 10.428l1.501 2.188-11.522 11.522c-2.369-3.319-6.969-4.142-10.346-1.827-3.416 2.343-4.286 7.012-1.943 10.428l1.501 2.188-17.385 17.386-3.202-3.202c-3.092-3.091-7.202-4.794-11.573-4.794-4.372 0-8.482 1.703-11.573 4.794l-9.646 9.646c-3.093 3.092-4.796 7.202-4.796 11.573 0 4.372 1.703 8.482 4.803 11.582.221.221 12.855 12.854 25.509 25.509l25.633 25.633c3.092 3.091 7.202 4.794 11.573 4.794 4.372 0 8.482-1.703 11.572-4.794l9.647-9.646c6.381-6.382 6.381-16.766 0-23.147l-3.202-3.202 9.049-9.048c1.459 2.044 3.765 3.143 6.11 3.143 1.462 0 2.938-.427 4.235-1.315 3.416-2.343 4.286-7.012 1.943-10.428l-1.501-2.188 11.522-11.522c1.459 2.044 3.765 3.143 6.11 3.143 1.462 0 2.938-.427 4.235-1.315 3.416-2.343 4.286-7.012 1.943-10.428l-1.501-2.188 21.082-21.082c.307.019.615.033.923.041 12.052.322 23.384 5.194 31.906 13.719 4.595 4.594 8.108 9.946 10.461 15.924-1.845 6.843-2.83 14.036-2.83 21.455 0 6.888.857 13.748 2.547 20.392 1.021 4.014 5.109 6.442 9.117 5.419 4.015-1.021 6.441-5.104 5.42-9.118-1.383-5.435-2.084-11.051-2.084-16.692 0-37.203 30.268-67.471 67.471-67.471s67.471 30.268 67.471 67.471-30.268 67.471-67.471 67.471c-21.506 0-41.229-9.901-54.111-27.164-2.477-3.319-7.176-4.003-10.496-1.525s-4.003 7.177-1.525 10.496c15.51 20.784 40.232 33.193 66.133 33.193 45.475 0 82.471-36.996 82.471-82.471s-36.995-82.473-82.47-82.473zm110.577-276.671 28.396 1.352 1.352 28.396-225.051 225.051-9.57-9.57 96.417-96.417c2.929-2.93 2.929-7.678 0-10.607-2.93-2.928-7.678-2.928-10.607 0l-96.417 96.417-9.57-9.57zm-304.141 386.974-9.647 9.646c-.331.33-.707.4-.966.4-.258 0-.635-.07-.974-.409-.222-.221-12.934-12.932-25.626-25.624-21.193-21.194-25.49-25.491-25.517-25.518-.533-.532-.533-1.4 0-1.933l9.646-9.647c.331-.33.707-.4.966-.4.258 0 .635.07.966.401l51.15 51.15c.331.331.401.708.401.967.001.259-.069.636-.399.967zm-26.735-49.882 15.409-15.409 19.147 27.917-11.024 11.024zm26.199-26.198 11.521-11.521 19.147 27.917-11.521 11.521zm41.457 5.607-19.147-27.917 10.116-10.116c1.262 1.541 21.787 22.102 23.533 23.532zm73.149-5.345c-11.25-11.251-26.205-17.681-42.112-18.106-2.956-.079-5.778-1.317-7.946-3.485l-19.687-19.686c-2.168-2.169-3.406-4.991-3.485-7.946-.425-15.906-6.855-30.862-18.105-42.113-5.187-5.186-11.108-9.331-17.659-12.367l11.824-11.824c1.543-1.543 3.595-2.393 5.776-2.393 2.183 0 4.234.85 5.777 2.394l54.866 54.866c.013.013.025.025.037.038.012.012.025.024.038.037l51.088 51.088c-5.204 5.347-9.69 11.396-13.302 17.989-2.093-3.013-4.466-5.848-7.11-8.492z"/></g></svg>