<svg id="Capa_1" enable-background="new 0 0 512 512" height="512" viewBox="0 0 512 512" width="512" xmlns="http://www.w3.org/2000/svg"><g><path d="m445.721 94.428c8.661 0 15.707-7.046 15.707-15.707v-39.22c0-8.661-7.046-15.708-15.707-15.708h-15.999v-5.063c0-10.328-8.403-18.73-18.73-18.73h-46.698c-4.143 0-7.5 3.357-7.5 7.5s3.357 7.5 7.5 7.5h46.698c2.057 0 3.729 1.673 3.729 3.729v409.555c0 2.057-1.673 3.729-3.729 3.729h-265.968v-417.013h190.27c4.143 0 7.5-3.357 7.5-7.5s-3.357-7.5-7.5-7.5h-226.047c-21.925 0-39.784 17.733-39.991 39.61h-11.184c-4.143 0-7.5 3.357-7.5 7.5s3.357 7.5 7.5 7.5h11.182v21.256h-11.182c-4.143 0-7.5 3.357-7.5 7.5s3.357 7.5 7.5 7.5h11.182v21.257h-11.182c-4.143 0-7.5 3.357-7.5 7.5s3.357 7.5 7.5 7.5h11.182v21.256h-11.182c-4.143 0-7.5 3.357-7.5 7.5s3.357 7.5 7.5 7.5h11.182v21.256h-11.182c-4.143 0-7.5 3.357-7.5 7.5s3.357 7.5 7.5 7.5h11.182v21.256h-11.182c-4.143 0-7.5 3.357-7.5 7.5s3.357 7.5 7.5 7.5h11.182v21.256h-11.182c-4.143 0-7.5 3.357-7.5 7.5s3.357 7.5 7.5 7.5h11.182v21.256h-11.182c-4.143 0-7.5 3.357-7.5 7.5s3.357 7.5 7.5 7.5h11.182v21.256h-11.182c-4.143 0-7.5 3.357-7.5 7.5s3.357 7.5 7.5 7.5h11.182v21.256h-11.182c-4.143 0-7.5 3.357-7.5 7.5s3.357 7.5 7.5 7.5h11.182v21.257h-11.182c-4.143 0-7.5 3.357-7.5 7.5s3.357 7.5 7.5 7.5h11.182v54.836c0 22.053 17.94 39.993 39.993 39.993h204.397c4.143 0 7.5-3.357 7.5-7.5s-3.357-7.5-7.5-7.5h-204.397c-13.781 0-24.993-11.212-24.993-24.993s11.212-24.993 24.993-24.993h280.373v46.257c0 2.057-1.673 3.729-3.729 3.729h-43.247c-4.143 0-7.5 3.357-7.5 7.5s3.357 7.5 7.5 7.5h43.247c10.327 0 18.729-8.402 18.729-18.729v-46.257h6.372c10.327 0 18.729-8.402 18.729-18.729v-5.446h15.999c8.661 0 15.707-7.046 15.707-15.707v-39.223c0-8.661-7.046-15.707-15.707-15.707h-15.999v-11.468h15.999c8.661 0 15.707-7.046 15.707-15.707v-39.221c0-8.661-7.046-15.707-15.707-15.707h-15.999v-11.468h15.999c8.661 0 15.707-7.046 15.707-15.707v-39.221c0-8.661-7.046-15.707-15.707-15.707h-15.999v-11.467h15.999c8.661 0 15.707-7.046 15.707-15.707v-39.221c0-8.661-7.046-15.707-15.707-15.707h-15.999v-11.467zm-361.467 346.379v-23.636h13.638c4.143 0 7.5-3.357 7.5-7.5s-3.357-7.5-7.5-7.5h-13.638v-21.257h13.638c4.143 0 7.5-3.357 7.5-7.5s-3.357-7.5-7.5-7.5h-13.638v-21.256h13.638c4.143 0 7.5-3.357 7.5-7.5s-3.357-7.5-7.5-7.5h-13.638v-21.256h13.638c4.143 0 7.5-3.357 7.5-7.5s-3.357-7.5-7.5-7.5h-13.638v-21.256h13.638c4.143 0 7.5-3.357 7.5-7.5s-3.357-7.5-7.5-7.5h-13.638v-21.256h13.638c4.143 0 7.5-3.357 7.5-7.5s-3.357-7.5-7.5-7.5h-13.638v-21.256h13.638c4.143 0 7.5-3.357 7.5-7.5s-3.357-7.5-7.5-7.5h-13.638v-21.256h13.638c4.143 0 7.5-3.357 7.5-7.5s-3.357-7.5-7.5-7.5h-13.638v-21.256h13.638c4.143 0 7.5-3.357 7.5-7.5s-3.357-7.5-7.5-7.5h-13.638v-21.256h13.638c4.143 0 7.5-3.357 7.5-7.5s-3.357-7.5-7.5-7.5h-13.638v-21.256h13.638c4.143 0 7.5-3.357 7.5-7.5s-3.357-7.5-7.5-7.5h-13.635c.205-13.605 11.337-24.61 24.99-24.61h20.777v417.014h-20.777c-9.448 0-18.142 3.293-24.993 8.793zm361.467-402.014c.39 0 .707.317.707.708v39.22c0 .39-.317.707-.707.707h-15.999v-40.635zm0 328.41c.39 0 .707.317.707.707v39.221c0 .39-.317.707-.707.707h-15.999v-40.635zm0-82.102c.39 0 .707.317.707.707v39.221c0 .39-.317.707-.707.707h-15.999v-40.635zm0-82.103c.39 0 .707.317.707.707v39.221c0 .39-.317.707-.707.707h-15.999v-40.635zm0-82.102c.39 0 .707.317.707.707v39.221c0 .39-.317.707-.707.707h-15.999v-40.635z"/><path d="m354.419 470.119c0-4.143-3.357-7.5-7.5-7.5h-219.963c-4.143 0-7.5 3.357-7.5 7.5s3.357 7.5 7.5 7.5h219.963c4.143 0 7.5-3.357 7.5-7.5z"/><path d="m333.047 290.891h-106.349c-4.143 0-7.5 3.357-7.5 7.5s3.357 7.5 7.5 7.5h106.349c4.143 0 7.5-3.357 7.5-7.5s-3.358-7.5-7.5-7.5z"/><path d="m333.047 318.039h-106.349c-4.143 0-7.5 3.357-7.5 7.5s3.357 7.5 7.5 7.5h106.349c4.143 0 7.5-3.357 7.5-7.5s-3.358-7.5-7.5-7.5z"/><path d="m340.547 352.687c0-4.143-3.357-7.5-7.5-7.5h-106.349c-4.143 0-7.5 3.357-7.5 7.5s3.357 7.5 7.5 7.5h106.349c4.142 0 7.5-3.358 7.5-7.5z"/><path d="m248.199 372.335c-4.143 0-7.5 3.357-7.5 7.5s3.357 7.5 7.5 7.5h63.348c4.143 0 7.5-3.357 7.5-7.5s-3.357-7.5-7.5-7.5z"/><path d="m355.409 255.069v-22.126c0-8.031-6.533-14.564-14.564-14.564h-121.944c-8.031 0-14.564 6.533-14.564 14.564v22.126c0 8.031 6.533 14.565 14.564 14.565h121.943c8.032.001 14.565-6.533 14.565-14.565zm-15-.434h-121.072v-21.256h121.072z"/><path d="m233.728 154.918c4.143 0 7.5-3.357 7.5-7.5v-8.221h8.22c4.143 0 7.5-3.357 7.5-7.5s-3.357-7.5-7.5-7.5h-8.22v-8.22c0-4.143-3.357-7.5-7.5-7.5s-7.5 3.357-7.5 7.5v8.22h-8.221c-4.143 0-7.5 3.357-7.5 7.5s3.357 7.5 7.5 7.5h8.221v8.221c0 4.143 3.357 7.5 7.5 7.5z"/><path d="m325.948 125.232c4.143 0 7.5-3.357 7.5-7.5v-1.825c0-4.143-3.357-7.5-7.5-7.5s-7.5 3.357-7.5 7.5v1.825c0 4.143 3.358 7.5 7.5 7.5z"/><path d="m325.948 154.988c4.143 0 7.5-3.357 7.5-7.5v-1.825c0-4.143-3.357-7.5-7.5-7.5s-7.5 3.357-7.5 7.5v1.825c0 4.143 3.358 7.5 7.5 7.5z"/><path d="m339.914 139.197h1.825c4.143 0 7.5-3.357 7.5-7.5s-3.357-7.5-7.5-7.5h-1.825c-4.143 0-7.5 3.357-7.5 7.5s3.357 7.5 7.5 7.5z"/><path d="m310.158 139.197h1.825c4.143 0 7.5-3.357 7.5-7.5s-3.357-7.5-7.5-7.5h-1.825c-4.143 0-7.5 3.357-7.5 7.5s3.358 7.5 7.5 7.5z"/><path d="m299.655 111.078c4.143 0 7.5-3.357 7.5-7.5s-3.357-7.5-7.5-7.5h-39.564c-4.143 0-7.5 3.357-7.5 7.5s3.357 7.5 7.5 7.5z"/><path d="m368.015 159.015c3.835 1.569 8.213-.265 9.783-4.098 3.028-7.394 4.564-15.206 4.564-23.22 0-33.801-27.499-61.3-61.301-61.3h-4.459v-5.562c0-10.703-8.707-19.41-19.41-19.41h-34.639c-10.703 0-19.41 8.707-19.41 19.41v5.562h-4.459c-33.802 0-61.301 27.499-61.301 61.3 0 33.802 27.499 61.301 61.301 61.301h82.377c13.196 0 25.773-4.136 36.373-11.961 3.332-2.461 4.039-7.156 1.579-10.489-2.461-3.331-7.156-4.038-10.489-1.579-8 5.907-17.497 9.029-27.463 9.029h-82.377c-25.53 0-46.301-20.771-46.301-46.301s20.771-46.3 46.301-46.3h82.377c25.53 0 46.301 20.77 46.301 46.3 0 6.055-1.159 11.953-3.445 17.534-1.57 3.833.265 8.213 4.098 9.784zm-109.871-88.618v-5.562c0-2.432 1.979-4.41 4.41-4.41h34.639c2.432 0 4.41 1.979 4.41 4.41v5.562z"/></g></svg>