<svg id="Capa_1" enable-background="new 0 0 512 512" height="512" viewBox="0 0 512 512" width="512" xmlns="http://www.w3.org/2000/svg"><g><path d="m230.86 265.079c2.567 3.297 6.572 5.421 11.064 5.421h12.184c7.729 0 14.016-6.287 14.016-14.016v-1.388l20.315-4.822h.001c11.682-2.774 19.84-13.097 19.84-25.103v-26.069c0-11.088-6.958-20.74-17.223-24.336v-37.87c0-75.485-61.411-136.896-136.896-136.896-41.645 0-80.528 18.629-106.679 51.111-2.598 3.227-2.088 7.947 1.139 10.545 3.227 2.6 7.948 2.089 10.545-1.139 23.29-28.926 57.914-45.517 94.995-45.517 67.214 0 121.896 54.683 121.896 121.896v34.164l-7.934-1.884v-1.387c0-3.848-1.558-7.338-4.077-9.873v-18.386c0-60.591-49.295-109.885-109.886-109.885s-109.884 49.295-109.884 109.886v18.385c-2.519 2.535-4.078 6.026-4.078 9.874v1.387l-7.934 1.884v-34.164c0-18.692 4.122-36.63 12.251-53.315 1.814-3.724.267-8.213-3.457-10.027-3.726-1.817-8.214-.267-10.027 3.457-9.135 18.749-13.767 38.897-13.767 59.886v37.87c-10.264 3.595-17.222 13.246-17.222 24.335v26.069c0 12.006 8.158 22.329 19.839 25.103h.001l20.315 4.822v1.388c0 7.729 6.287 14.016 14.016 14.016h12.185c4.492 0 8.497-2.124 11.064-5.421 10.797 18.491 28.088 32.747 48.722 39.618v4.526c-22.532 5.928-42.887 19.105-57.609 37.365-15.669 19.435-24.299 43.912-24.299 68.924v6.721c0 4.143 3.357 7.5 7.5 7.5s7.5-3.357 7.5-7.5v-6.721c0-42.192 27.184-78.562 66.908-90.704v4.895c0 15.427 12.55 27.977 27.977 27.977s27.978-12.55 27.978-27.977v-4.884c26.362 8.135 48.201 27.622 59.216 53.202 5.104 11.854 7.692 24.468 7.692 37.491v69.89c0 6.395-5.203 11.598-11.598 11.598h-166.575c-6.395 0-11.598-5.203-11.598-11.598v-34.169c0-4.143-3.357-7.5-7.5-7.5s-7.5 3.357-7.5 7.5v34.169c0 14.666 11.932 26.598 26.598 26.598h166.575c14.666 0 26.598-11.932 26.598-26.598v-69.89c0-15.075-2.999-29.685-8.915-43.424-13.364-31.033-40.493-54.323-72.993-62.865v-4.527c20.634-6.871 37.924-21.127 48.721-39.618zm22.264-9.579h-10.215v-86.726h10.215zm31.85-66.906c4.891 1.161 8.306 5.482 8.306 10.509v26.069c0 5.025-3.415 9.347-8.306 10.509l-16.851 4v-55.087zm-130.813-143.948c52.32 0 94.886 42.565 94.886 94.885v14.243h-6.271c-.964-7.059-7.033-12.515-14.352-12.515h-17.559c-5.407 0-10.598-2.563-13.885-6.856v-.001c-6.106-7.976-15.75-12.737-25.795-12.737h-9.748c-10.047 0-19.689 4.762-25.795 12.737-3.287 4.294-8.479 6.857-13.886 6.857h-41.857c-7.319 0-13.387 5.456-14.352 12.515h-6.271v-14.243c0-52.319 42.565-94.885 94.885-94.885zm-130.814 191.035c-4.89-1.162-8.305-5.483-8.305-10.509v-26.069c0-5.026 3.415-9.348 8.305-10.509l16.851-4v55.087zm42.067 19.819h-10.216v-86.726h10.216zm15-35.032v-64.208h41.343c10.045 0 19.688-4.762 25.796-12.739 3.286-4.293 8.477-6.855 13.885-6.855h9.748c5.407 0 10.598 2.563 13.885 6.856v-.001c6.105 7.977 15.749 12.739 25.795 12.739h17.044v64.208c0 40.664-33.083 73.747-73.748 73.747s-73.748-33.083-73.748-73.747zm86.724 109.236c0 7.155-5.821 12.977-12.978 12.977-7.155 0-12.977-5.821-12.977-12.977v-21.436c4.237.623 8.57.946 12.977.946s8.741-.323 12.978-.947z"/><path d="m154.161 392.333c4.143 0 7.5-3.357 7.5-7.5v-9.248c0-4.143-3.357-7.5-7.5-7.5s-7.5 3.357-7.5 7.5v9.248c0 4.143 3.357 7.5 7.5 7.5z"/><path d="m146.661 427.769c0 4.143 3.357 7.5 7.5 7.5s7.5-3.357 7.5-7.5v-9.247c0-4.143-3.357-7.5-7.5-7.5s-7.5 3.357-7.5 7.5z"/><path d="m146.661 470.705c0 4.143 3.357 7.5 7.5 7.5s7.5-3.357 7.5-7.5v-9.248c0-4.143-3.357-7.5-7.5-7.5s-7.5 3.357-7.5 7.5z"/><path d="m379.18 359.222c0-4.143-3.357-7.5-7.5-7.5h-1.352c-4.705-13.807-17.802-23.766-33.181-23.766h-15.794c-15.379 0-28.476 9.958-33.181 23.766h-1.352c-4.143 0-7.5 3.357-7.5 7.5 0 3.971 3.085 7.22 6.99 7.482v12.17c-3.905.262-6.99 3.511-6.99 7.482s3.085 7.22 6.99 7.482v12.17c-3.905.262-6.99 3.511-6.99 7.482 0 4.143 3.357 7.5 7.5 7.5h1.352c3.413 10.015 11.24 18.005 21.151 21.638v27.558h-8.535c-7.983 0-14.478 6.494-14.478 14.478v12.857c0 7.983 6.494 14.478 14.478 14.478h56.923c7.983 0 14.478-6.494 14.478-14.478v-12.857c0-7.983-6.494-14.478-14.478-14.478h-8.535v-27.558c9.911-3.634 17.739-11.624 21.151-21.638h1.352c4.143 0 7.5-3.357 7.5-7.5 0-3.971-3.085-7.22-6.99-7.482v-12.17c3.905-.262 6.99-3.511 6.99-7.482s-3.085-7.22-6.99-7.482v-12.17c3.906-.262 6.991-3.511 6.991-7.482zm-77.868 46.769v-12.135h55.878v12.135zm0-27.135v-12.135h55.878v12.135zm20.042-35.9h15.794c6.873 0 12.948 3.478 16.561 8.766h-48.915c3.612-5.288 9.687-8.766 16.56-8.766zm35.836 154.044h-55.878v-11.812h55.878zm-32.865-26.812v-25.431h9.853v25.431zm12.823-40.431h-15.794c-6.873 0-12.948-3.478-16.561-8.766h48.915c-3.612 5.288-9.687 8.766-16.56 8.766z"/><path d="m380.198 47.74h82.055c4.143 0 7.5-3.357 7.5-7.5s-3.357-7.5-7.5-7.5h-82.055c-4.143 0-7.5 3.357-7.5 7.5s3.357 7.5 7.5 7.5z"/><path d="m380.198 75.043h82.055c4.143 0 7.5-3.357 7.5-7.5s-3.357-7.5-7.5-7.5h-82.055c-4.143 0-7.5 3.357-7.5 7.5s3.357 7.5 7.5 7.5z"/><path d="m380.198 102.346h82.055c4.143 0 7.5-3.357 7.5-7.5s-3.357-7.5-7.5-7.5h-82.055c-4.143 0-7.5 3.357-7.5 7.5s3.357 7.5 7.5 7.5z"/><path d="m498.595 0h-156.988c-7.368 0-13.363 5.994-13.363 13.362v80.173c0 4.195-1.237 8.254-3.577 11.737l-18.645 27.747c-2.417 3.596-2.253 8.309.408 11.728 2.679 3.443 7.221 4.727 11.268 3.275l32.716-11.705c2.282-.816 4.668-1.23 7.092-1.23h55.978c4.143 0 7.5-3.357 7.5-7.5s-3.357-7.5-7.5-7.5h-55.978c-4.149 0-8.234.709-12.144 2.106l-18.423 6.592 10.179-15.147c4.008-5.966 6.126-12.917 6.126-20.103v-78.535h153.714v105.087h-54.475c-4.143 0-7.5 3.357-7.5 7.5s3.357 7.5 7.5 7.5h56.112c7.368 0 13.362-5.995 13.362-13.363v-108.362c.001-7.368-5.994-13.362-13.362-13.362z"/></g></svg>