<svg id="Capa_1" enable-background="new 0 0 512.194 512.194" height="512" viewBox="0 0 512.194 512.194" width="512" xmlns="http://www.w3.org/2000/svg"><g><path d="m108.739 86.828c1.354 3.929 5.628 5.993 9.534 4.649 3.917-1.349 5.998-5.618 4.649-9.534l-9.407-27.31 14.687 8.113 17.812 47.33c1.452 3.858 5.765 5.843 9.661 4.378 3.877-1.459 5.837-5.785 4.378-9.661l-27.223-72.336 16.139 4.601 14.079 34.265c1.574 3.831 5.956 5.661 9.788 4.086 3.831-1.574 5.661-5.956 4.086-9.788l-16.38-39.864 64.823 39.124v24.819h-15.546c-2.723 0-5.232 1.476-6.555 3.856l-23.567 42.396-36.982 3.457-10.298-29.897c-1.349-3.916-5.619-5.996-9.534-4.649-3.917 1.349-5.998 5.618-4.649 9.534l12.218 35.471c1.119 3.25 4.321 5.349 7.79 5.025l36.152-3.379c.517 1.202 1.351 2.282 2.476 3.1l74.722 54.289c1.314.955 2.861 1.432 4.408 1.432s3.094-.478 4.408-1.432l32.212-23.403c3.352-2.435 4.094-7.125 1.659-10.476s-7.123-4.093-10.476-1.659l-27.803 20.197-64.938-47.181 23.169-41.682h83.538l23.17 41.682-13.674 9.934c-3.352 2.435-4.094 7.125-1.659 10.476 2.434 3.352 7.126 4.094 10.476 1.66l19.049-13.839c1.126-.818 1.959-1.898 2.476-3.099l36.152 3.379c3.442.321 6.661-1.752 7.789-5.025l37.471-108.785c1.011-2.934.11-6.188-2.266-8.184-2.377-1.996-5.736-2.323-8.452-.823l-16.36 9.037 6.514-17.309c.998-2.651.416-5.639-1.503-7.723-1.918-2.083-4.846-2.91-7.573-2.131l-19.087 5.442 3.673-8.939c1.229-2.993.401-6.438-2.056-8.544-2.456-2.107-5.986-2.4-8.758-.728l-87.891 53.048c-2.25 1.357-3.625 3.793-3.625 6.421v29.051h-31.27v-29.051c0-2.627-1.375-5.063-3.625-6.421l-87.891-53.048c-2.771-1.673-6.302-1.38-8.757.728-2.457 2.106-3.285 5.551-2.055 8.544l3.673 8.94-19.089-5.442c-2.722-.777-5.654.048-7.573 2.131-1.919 2.084-2.5 5.071-1.503 7.723l6.514 17.309-16.36-9.037c-2.717-1.5-6.076-1.173-8.452.823-2.376 1.997-3.276 5.25-2.266 8.184zm177.896-21.946 64.822-39.124-16.38 39.864c-1.574 3.832.256 8.213 4.087 9.788 3.833 1.575 8.214-.255 9.788-4.086l14.079-34.265 16.138-4.601-27.223 72.336c-1.459 3.876.501 8.202 4.378 9.661 3.902 1.467 8.211-.525 9.661-4.378l17.812-47.33 14.687-8.114-29.2 84.775-36.982-3.457-23.567-42.396c-1.323-2.38-3.833-3.856-6.556-3.856h-15.546v-24.817z"/><path d="m285.397 122.525c0-4.142-3.357-7.5-7.5-7.5h-43.795c-4.142 0-7.5 3.358-7.5 7.5s3.358 7.5 7.5 7.5h43.795c4.143 0 7.5-3.358 7.5-7.5z"/><path d="m247.794 140.338c-4.142 0-7.5 3.358-7.5 7.5s3.358 7.5 7.5 7.5h16.411c4.143 0 7.5-3.358 7.5-7.5s-3.357-7.5-7.5-7.5z"/><path d="m113.008 355.828c2.938 2.938 6.846 4.557 11.001 4.557 4.156 0 8.063-1.618 11.001-4.557l26.655-26.655c6.065-6.065 6.065-15.937 0-22.003l-26.654-26.653c-2.938-2.939-6.846-4.558-11.002-4.558s-8.063 1.618-11.001 4.557l-26.656 26.655c-6.064 6.066-6.064 15.936.001 22.003zm-16.049-38.05 26.655-26.655c.041-.04.164-.163.394-.163.231 0 .354.123.395.164l26.654 26.653c.218.218.218.573 0 .79l-26.655 26.655c-.041.04-.164.163-.395.163-.23 0-.354-.123-.394-.163 0 0 0 0 0-.001l-26.653-26.653c-.218-.218-.218-.574-.001-.79z"/><path d="m53.214 432.232c-6.065-6.065-15.936-6.065-22.002 0l-26.655 26.655c-2.939 2.938-4.557 6.846-4.557 11.001 0 4.156 1.618 8.063 4.557 11.002l26.655 26.655c3.033 3.033 7.017 4.549 11.001 4.549s7.968-1.517 11.001-4.549l26.654-26.655c2.939-2.938 4.558-6.846 4.558-11.002 0-4.155-1.619-8.062-4.557-11.001zm16.048 38.05-26.655 26.655c-.218.219-.572.219-.79 0l-26.655-26.655c-.217-.217-.217-.571 0-.788l26.654-26.655c.219-.219.572-.219.79 0l26.655 26.655c.04.04.163.163.163.394.002.231-.121.354-.162.394z"/><path d="m217.195 432.232c-6.065-6.064-15.936-6.064-22.002 0l-26.654 26.655c-2.939 2.938-4.558 6.846-4.558 11.001 0 4.156 1.619 8.063 4.557 11.002l26.655 26.655c3.033 3.032 7.017 4.549 11 4.549s7.968-1.517 11.001-4.549l26.654-26.655c2.939-2.938 4.558-6.846 4.558-11.002 0-4.155-1.619-8.062-4.557-11.001zm16.049 38.05-26.654 26.655c-.217.218-.572.22-.79 0l-26.655-26.655c-.04-.04-.163-.163-.163-.395 0-.23.123-.354.164-.394l26.654-26.655c.219-.219.572-.219.79 0l26.655 26.655c.04.04.163.163.163.394-.001.232-.124.355-.164.395z"/><path d="m387.991 275.959c-4.156 0-8.063 1.618-11.001 4.557l-26.656 26.655c-6.064 6.066-6.064 15.936.001 22.003l26.655 26.654c2.938 2.938 6.845 4.557 11.001 4.557 4.155 0 8.062-1.618 11-4.557l26.656-26.655c6.064-6.066 6.064-15.936-.001-22.003l-26.654-26.653c-2.938-2.94-6.846-4.558-11.001-4.558zm27.05 42.608-26.656 26.655c-.041.041-.163.163-.394.163s-.354-.122-.395-.163c0 0 0 0-.001-.001l-26.654-26.653c-.218-.218-.218-.573-.001-.79l26.656-26.655c.041-.041.163-.163.395-.163.23 0 .353.122.395.164l26.654 26.653c.218.217.218.573.001.79z"/><path d="m256 217.308c-4.142 0-7.5 3.358-7.5 7.5v5.146c0 3.469-2.822 6.291-6.29 6.291h-109.115c-9.146 0-16.586 7.44-16.586 16.586v8.565c0 4.143 3.358 7.5 7.5 7.5s7.5-3.357 7.5-7.5v-8.565c0-.875.711-1.586 1.586-1.586h109.115c5.26 0 10.071-1.927 13.79-5.1 3.719 3.172 8.53 5.1 13.79 5.1h109.114c.874 0 1.586.711 1.586 1.586v8.565c0 4.143 3.357 7.5 7.5 7.5s7.5-3.357 7.5-7.5v-8.565c0-9.146-7.44-16.586-16.586-16.586h-109.114c-3.469 0-6.29-2.822-6.29-6.291v-5.146c0-4.142-3.357-7.5-7.5-7.5z"/><path d="m197.108 401.691c.875 0 1.586.712 1.586 1.586v8.565c0 4.143 3.358 7.5 7.5 7.5s7.5-3.357 7.5-7.5v-8.565c0-9.146-7.44-16.586-16.586-16.586h-59.115c-3.468 0-6.29-2.821-6.29-6.29v-5.146c0-4.143-3.358-7.5-7.5-7.5s-7.5 3.357-7.5 7.5v5.146c0 3.469-2.822 6.29-6.29 6.29h-59.114c-9.146 0-16.586 7.44-16.586 16.586v8.565c0 4.143 3.358 7.5 7.5 7.5s7.5-3.357 7.5-7.5v-8.565c0-.874.711-1.586 1.586-1.586h59.115c5.26 0 10.071-1.927 13.79-5.1 3.719 3.172 8.53 5.1 13.79 5.1z"/><path d="m317.001 432.232c-6.066-6.063-15.937-6.066-22.003.001l-26.653 26.654c-2.939 2.938-4.558 6.846-4.558 11.001 0 4.156 1.618 8.063 4.557 11.001l26.654 26.655c.001.001.001.001.001.001 3.033 3.032 7.017 4.548 11.001 4.548 3.983 0 7.969-1.516 11.002-4.549l26.653-26.654c2.939-2.938 4.558-6.846 4.558-11.002 0-4.155-1.618-8.062-4.557-11zm16.048 38.051-26.653 26.654c-.216.216-.572.219-.79.001l-26.655-26.656c-.041-.041-.163-.163-.163-.395 0-.23.122-.353.164-.395l26.653-26.654c.22-.218.574-.217.79-.001l26.655 26.656c.041.041.163.163.163.394 0 .232-.122.354-.164.396z"/><path d="m460.896 401.691c.874 0 1.586.712 1.586 1.586v8.565c0 4.143 3.357 7.5 7.5 7.5s7.5-3.357 7.5-7.5v-8.565c0-9.146-7.44-16.586-16.586-16.586h-59.116c-3.469 0-6.29-2.821-6.29-6.29v-5.146c0-4.143-3.357-7.5-7.5-7.5s-7.5 3.357-7.5 7.5v5.146c0 3.469-2.821 6.29-6.29 6.29h-59.114c-9.146 0-16.586 7.44-16.586 16.586v8.565c0 4.143 3.357 7.5 7.5 7.5s7.5-3.357 7.5-7.5v-8.565c0-.874.712-1.586 1.586-1.586h59.114c5.26 0 10.071-1.927 13.79-5.1 3.719 3.172 8.53 5.1 13.79 5.1z"/><path d="m507.638 458.888-26.655-26.656c-6.066-6.066-15.937-6.064-22.003.001l-26.653 26.654c-2.939 2.938-4.558 6.846-4.558 11.001 0 4.156 1.618 8.063 4.556 11l1.411 1.412c2.927 2.932 7.676 2.931 10.606.003s2.932-7.676.003-10.606l-1.413-1.414c-.041-.041-.163-.163-.163-.395 0-.23.122-.353.164-.395l26.654-26.654c.217-.219.572-.218.789-.001l26.654 26.656c.041.04.164.163.164.394s-.123.354-.164.396l-26.653 26.654c-.22.218-.574.218-.79 0l-4.737-4.737c-2.93-2.928-7.678-2.928-10.607 0-2.929 2.93-2.929 7.678 0 10.607l4.737 4.737c3.033 3.032 7.017 4.549 11.001 4.549s7.969-1.517 11.003-4.55l26.654-26.654c2.938-2.938 4.557-6.846 4.557-11.002-.001-4.155-1.62-8.063-4.557-11z"/></g></svg>