<svg id="Capa_1" enable-background="new 0 0 512 512" height="512" viewBox="0 0 512 512" width="512" xmlns="http://www.w3.org/2000/svg"><g><path d="m313.262 452.174c4.143 0 7.5-3.357 7.5-7.5v-8.22h8.221c4.143 0 7.5-3.357 7.5-7.5s-3.357-7.5-7.5-7.5h-8.221v-8.221c0-4.143-3.357-7.5-7.5-7.5s-7.5 3.357-7.5 7.5v8.221h-8.22c-4.143 0-7.5 3.357-7.5 7.5s3.357 7.5 7.5 7.5h8.22v8.22c0 4.142 3.358 7.5 7.5 7.5z"/><path d="m405.484 422.488c4.143 0 7.5-3.357 7.5-7.5v-1.825c0-4.143-3.357-7.5-7.5-7.5s-7.5 3.357-7.5 7.5v1.825c0 4.143 3.357 7.5 7.5 7.5z"/><path d="m405.484 452.244c4.143 0 7.5-3.357 7.5-7.5v-1.824c0-4.143-3.357-7.5-7.5-7.5s-7.5 3.357-7.5 7.5v1.824c0 4.143 3.357 7.5 7.5 7.5z"/><path d="m419.45 436.454h1.824c4.143 0 7.5-3.357 7.5-7.5s-3.357-7.5-7.5-7.5h-1.824c-4.143 0-7.5 3.357-7.5 7.5s3.357 7.5 7.5 7.5z"/><path d="m389.694 436.454h1.824c4.143 0 7.5-3.357 7.5-7.5s-3.357-7.5-7.5-7.5h-1.824c-4.143 0-7.5 3.357-7.5 7.5s3.357 7.5 7.5 7.5z"/><path d="m379.191 408.334c4.143 0 7.5-3.357 7.5-7.5s-3.357-7.5-7.5-7.5h-39.565c-4.143 0-7.5 3.357-7.5 7.5s3.357 7.5 7.5 7.5z"/><path d="m400.597 367.653h-4.459v-5.562c0-10.703-8.708-19.41-19.411-19.41h-9.818v-7.345c0-10.979-8.932-19.91-19.909-19.91-2.707 0-4.909-2.202-4.909-4.909v-18.654c0-4.143-3.357-7.5-7.5-7.5s-7.5 3.357-7.5 7.5v18.654c0 10.978 8.932 19.909 19.909 19.909 2.707 0 4.909 2.203 4.909 4.91v7.345h-9.819c-10.703 0-19.41 8.707-19.41 19.41v5.562h-4.46c-2.138 0-4.251.11-6.333.325-3.219-6.697-7.09-13.001-11.524-18.837 12.315-.067 22.313-10.106 22.313-22.436v-60.348c2.519-2.535 4.077-6.025 4.077-9.873v-1.387l20.315-4.823c11.682-2.772 19.841-13.096 19.841-25.103v-26.069c0-11.087-6.957-20.738-17.223-24.335v-37.871c0-17.01-3.119-33.306-8.814-48.345 20.403-7.47 34.605-27.275 34.605-49.439v-31.36c0-4.143-3.357-7.5-7.5-7.5h-31.36c-18.321 0-35.253 9.61-44.757 24.95-22.347-15.866-49.639-25.202-79.07-25.202-29.43 0-56.72 9.335-79.066 25.199-9.494-15.361-26.352-24.947-44.762-24.947h-31.36c-4.143 0-7.5 3.357-7.5 7.5v24.292c0 4.143 3.357 7.5 7.5 7.5s7.5-3.357 7.5-7.5v-16.792h23.86c13.768 0 26.325 7.501 32.908 19.383-12.687 11.293-23.266 24.905-31.066 40.164-8.949-2.977-16.498-9.243-21.107-17.658-1.989-3.634-6.549-4.966-10.18-2.977-3.634 1.989-4.966 6.547-2.977 10.18 6.205 11.334 16.236 19.881 28.163 24.215-5.694 15.037-8.812 31.33-8.812 48.338v37.87c-10.265 3.597-17.223 13.248-17.223 24.336v26.069c0 12.007 8.159 22.33 19.841 25.103l20.315 4.823v1.387c0 3.848 1.558 7.338 4.077 9.873v60.348c0 12.327 9.994 22.364 22.305 22.436-14.405 19.003-22.304 42.444-22.304 66.373v6.72c0 4.143 3.357 7.5 7.5 7.5s7.5-3.357 7.5-7.5v-6.72c0-42.193 27.184-78.564 66.908-90.704v4.894c0 15.427 12.55 27.977 27.977 27.977s27.978-12.55 27.978-27.977v-4.884c24.069 7.428 44.367 24.319 56.099 46.67-23.305 8.688-39.947 31.169-39.947 57.465 0 29.979 21.632 55 50.106 60.276-1.585 4.52-5.894 7.77-10.948 7.77h-166.574c-6.395 0-11.597-5.203-11.597-11.598v-34.169c0-4.143-3.357-7.5-7.5-7.5s-7.5 3.357-7.5 7.5v34.169c0 14.666 11.932 26.598 26.597 26.598h166.576c13.009 0 23.867-9.389 26.154-21.746h78.366c13.195 0 25.772-4.136 36.372-11.96 3.333-2.46 4.04-7.156 1.58-10.488s-7.156-4.04-10.488-1.58c-8.001 5.906-17.498 9.028-27.464 9.028h-82.378c-25.53 0-46.3-20.77-46.3-46.3s20.77-46.301 46.3-46.301h82.378c25.53 0 46.301 20.771 46.301 46.301 0 6.054-1.159 11.952-3.445 17.533-1.57 3.833.265 8.213 4.098 9.783 3.835 1.569 8.213-.265 9.783-4.098 3.028-7.394 4.564-15.205 4.564-23.219 0-33.803-27.499-61.302-61.301-61.302zm-114.059-147.185c0 40.665-33.083 73.748-73.748 73.748s-73.748-33.083-73.748-73.748v-61.755c28.983 11.262 70.803 14.968 95.411-3.259 18.971 5.514 30.917 8.326 52.085 2.109zm21.137-66.693h-6.429c-.696-3.418-2.615-6.456-5.496-8.598-3.684-2.737-8.314-3.549-12.712-2.223-17.841 5.376-26.579 3.278-44.648-1.978-4.357-1.264-9.082-.425-12.637 2.252-19.289 14.528-55.874 11.6-82.045 1.201-4.435-1.763-9.439-1.218-13.384 1.459-2.807 1.905-4.806 4.708-5.722 7.886h-6.699v-14.244c0-52.319 42.565-94.885 94.886-94.885s94.886 42.565 94.886 94.885zm-193.848 101.725v-86.725h10.215v86.725zm187.711-86.725h10.215v86.725h-10.215zm50.371 56.397c0 5.026-3.415 9.348-8.306 10.509l-16.851 4v-55.087l16.85 4c4.891 1.161 8.307 5.482 8.307 10.509zm-15.292-209.92h23.86v23.86c0 16.197-10.603 30.63-25.704 35.684-7.799-15.258-18.377-28.868-31.063-40.159 6.587-11.864 19.203-19.385 32.907-19.385zm-123.827-.252c67.214 0 121.896 54.683 121.896 121.896v34.164l-7.934-1.883v-1.387c0-3.848-1.558-7.338-4.077-9.873v-18.387c0-60.591-49.295-109.885-109.886-109.885s-109.885 49.295-109.885 109.886v18.387c-2.519 2.535-4.077 6.025-4.077 9.873v1.387l-7.934 1.883v-34.164c0-67.214 54.683-121.897 121.897-121.897zm-130.814 220.681c-4.891-1.161-8.306-5.482-8.306-10.509v-26.069c0-5.026 3.416-9.348 8.306-10.509l16.851-4v55.087zm56.983 98.461h-13.617c-4.101 0-7.438-3.336-7.438-7.437v-56.205h7.122c4.492 0 8.497-2.124 11.064-5.421 10.797 18.492 28.088 32.748 48.723 39.62v4.526c-17.024 4.478-32.806 13.095-45.854 24.917zm73.831 8.539c-7.155 0-12.977-5.821-12.977-12.977v-21.434c4.237.623 8.57.946 12.977.946s8.741-.323 12.978-.947v21.435c-.001 7.155-5.822 12.977-12.978 12.977zm27.977-37.983c20.635-6.871 37.925-21.128 48.722-39.619 2.567 3.297 6.572 5.421 11.064 5.421h7.122v56.205c0 4.101-3.337 7.437-7.438 7.437h-13.627c-12.947-11.745-28.643-20.397-45.844-24.917v-4.527zm96.912 62.955v-5.562c0-2.432 1.979-4.41 4.41-4.41h34.638c2.433 0 4.411 1.979 4.411 4.41v5.562z"/><path d="m212.79 446.884c1.084 0 2.168-.235 3.174-.705 30.939-14.45 35.56-31.066 35.56-39.686 0-13.428-10.154-23.946-23.116-23.946-6.619 0-11.822 2.474-15.617 5.581-3.794-3.107-8.998-5.581-15.616-5.581-12.963 0-23.117 10.519-23.117 23.946 0 8.619 4.62 25.235 35.56 39.686 1.004.469 2.088.705 3.172.705zm-23.734-40.391c0-4.445 2.788-8.946 8.117-8.946 5.759 0 8.43 4.692 8.83 5.465 1.173 2.698 3.773 4.361 6.72 4.405 2.994.079 5.626-1.761 6.871-4.448.025-.054 2.685-5.422 8.812-5.422 5.328 0 8.116 4.501 8.116 8.946 0 7.924-8.804 16.974-23.733 24.55-14.929-7.576-23.733-16.626-23.733-24.55z"/></g></svg>