<svg id="Capa_1" enable-background="new 0 0 512.626 512.626" height="512" viewBox="0 0 512.626 512.626" width="512" xmlns="http://www.w3.org/2000/svg"><g><path d="m301.267 294.143c-3.592-1.742-7.771-1.293-10.905 1.174l-16.139 12.69-9.824-12.31c-1.973-2.469-4.917-3.886-8.078-3.886-3.16 0-6.104 1.417-8.08 3.889l-9.821 12.307-16.138-12.689c-3.139-2.47-7.318-2.918-10.907-1.175-3.591 1.744-5.821 5.308-5.821 9.3v56.853c0 5.7 4.638 10.338 10.338 10.338h80.86c5.7 0 10.338-4.638 10.338-10.338v-56.853c-.001-3.993-2.232-7.556-5.823-9.3zm-9.178 61.49h-71.536v-42.593l12.231 9.619c4.449 3.497 10.94 2.745 14.471-1.677l9.065-11.359 9.066 11.359c3.531 4.423 10.021 5.177 14.47 1.677l12.232-9.619v42.593z"/><path d="m161.177 73.43v-21.799c0-4.143-3.357-7.5-7.5-7.5s-7.5 3.357-7.5 7.5v21.799c0 4.143 3.357 7.5 7.5 7.5s7.5-3.358 7.5-7.5z"/><path d="m358.965 80.93c4.143 0 7.5-3.357 7.5-7.5v-21.799c0-4.143-3.357-7.5-7.5-7.5s-7.5 3.357-7.5 7.5v21.799c0 4.142 3.358 7.5 7.5 7.5z"/><path d="m426.079 360.056-11.076-19.496c-3.272-5.76-3.272-12.915-.001-18.675l11.078-19.495c4.694-8.264 5.702-18.188 2.765-27.226s-9.585-16.472-18.239-20.396l-20.42-9.262c-6.032-2.736-10.238-8.525-10.978-15.108l-2.497-22.283c-1.059-9.444-6.076-18.065-13.766-23.651-.449-.326-.906-.64-1.368-.943l33.403-36.935c3.611-3.995 5.601-9.16 5.601-14.546v-110.352c-.001-11.959-9.729-21.688-21.687-21.688h-245.146c-11.959 0-21.688 9.729-21.688 21.688v15.443c0 4.143 3.357 7.5 7.5 7.5s7.5-3.357 7.5-7.5v-15.443c0-3.688 3-6.688 6.688-6.688h41.766v163.506c-3.019-.532-6.076-.646-9.085-.36l-37.64-41.622c-1.115-1.232-1.729-2.825-1.729-4.485v-65.908c0-4.143-3.357-7.5-7.5-7.5s-7.5 3.357-7.5 7.5v65.908c0 5.385 1.989 10.551 5.603 14.546l33.402 36.935c-.463.302-.919.617-1.369.943-7.689 5.586-12.707 14.206-13.766 23.651l-2.498 22.283c-.738 6.583-4.944 12.372-10.977 15.108l-20.42 9.262c-8.655 3.925-15.304 11.359-18.24 20.397-2.937 9.039-1.929 18.962 2.767 27.225l11.076 19.495c3.272 5.76 3.272 12.915.001 18.675l-11.077 19.496c-8.099 14.254-4.861 32.228 7.697 42.737 3.177 2.658 7.907 2.238 10.565-.938s2.238-7.907-.938-10.565c-6.998-5.855-8.799-15.875-4.283-23.823l11.078-19.496c5.868-10.33 5.868-23.165-.001-33.495l-11.077-19.495c-2.655-4.675-3.203-10.065-1.542-15.179s5.273-9.152 10.17-11.373l20.42-9.262c10.82-4.906 18.364-15.29 19.688-27.098l2.498-22.282c.6-5.344 3.325-10.027 7.676-13.188 4.35-3.158 9.646-4.303 14.91-3.223l21.965 4.51c11.64 2.387 23.844-1.576 31.855-10.351l15.119-16.56c3.624-3.97 8.581-6.156 13.958-6.156 5.376-.001 10.334 2.186 13.959 6.156l15.119 16.561c8.012 8.773 20.222 12.736 31.855 10.35l21.964-4.51c5.27-1.081 10.562.063 14.911 3.223 4.351 3.16 7.076 7.844 7.676 13.187l2.497 22.283c1.324 11.809 8.869 22.191 19.688 27.098l20.42 9.262c4.896 2.221 8.508 6.259 10.169 11.372 1.662 5.113 1.114 10.505-1.541 15.18l-11.078 19.495c-5.868 10.33-5.868 23.165.001 33.495l11.076 19.496c2.656 4.675 3.204 10.064 1.542 15.178-1.661 5.113-5.272 9.153-10.169 11.374l-20.421 9.261c-10.819 4.907-18.363 15.291-19.688 27.099l-2.497 22.282c-.6 5.343-3.325 10.026-7.675 13.187-4.351 3.161-9.646 4.306-14.912 3.224l-21.965-4.511c-11.641-2.393-23.846 1.576-31.855 10.352l-15.118 16.559c-3.625 3.971-8.583 6.157-13.959 6.157-5.377-.001-10.334-2.188-13.959-6.157l-15.118-16.559c-8.01-8.775-20.215-12.744-31.855-10.352l-21.965 4.511c-5.267 1.079-10.562-.063-14.911-3.224-4.35-3.16-7.075-7.843-7.675-13.187l-2.498-22.282c-1.323-11.808-8.867-22.19-19.692-27.101l-.289-.131c-3.772-1.712-8.217-.034-9.925 3.739-1.709 3.773-.034 8.217 3.739 9.925l.283.129c6.033 2.736 10.239 8.526 10.978 15.109l2.498 22.283c1.059 9.444 6.076 18.064 13.765 23.65s17.436 7.692 26.745 5.781l21.964-4.511c6.486-1.332 13.296.88 17.761 5.771l15.119 16.559c6.407 7.019 15.532 11.043 25.035 11.044h.001c9.503 0 18.629-4.025 25.037-11.044l15.118-16.559c4.466-4.891 11.275-7.098 17.761-5.771l21.964 4.511c9.312 1.912 19.059-.195 26.746-5.781 7.688-5.586 12.706-14.206 13.765-23.651l2.497-22.282c.738-6.583 4.945-12.373 10.978-15.109l20.42-9.261c8.655-3.926 15.303-11.36 18.24-20.398 2.936-9.039 1.929-18.962-2.767-27.224zm-227.673-176.864-7.892-1.62v-166.572h32.271v155.171l-6.62 7.251c-4.466 4.891-11.271 7.102-17.759 5.77zm57.914-33.373c-6.626 0-13.069 1.958-18.534 5.521v-140.34h37.07v140.341c-5.466-3.565-11.909-5.522-18.536-5.522zm57.917 33.373c-6.488 1.333-13.295-.878-17.761-5.771l-6.62-7.251v-155.17h32.272v166.572zm22.891-4.686v-163.506h41.766c3.687 0 6.687 3 6.687 6.688v110.352c0 1.661-.613 3.254-1.727 4.485l-37.64 41.621c-3.009-.287-6.066-.173-9.086.36z"/><path d="m311.406 250.199c2.071-3.587.842-8.174-2.745-10.245l-41.573-24.002c-6.642-3.834-14.894-3.833-21.535 0l-83.676 48.31c-6.641 3.835-10.767 10.982-10.767 18.651v96.618c0 7.671 4.126 14.817 10.768 18.651l83.676 48.31c3.32 1.917 7.044 2.876 10.767 2.876 3.724 0 7.447-.959 10.769-2.876l83.674-48.31c6.643-3.834 10.769-10.98 10.769-18.651v-96.618c0-7.669-4.126-14.816-10.768-18.651l-16.988-9.808c-3.59-2.071-8.175-.844-10.245 2.745-2.071 3.588-.842 8.175 2.745 10.245l16.987 9.808c2.017 1.164 3.269 3.333 3.269 5.661v96.618c0 2.328-1.252 4.497-3.268 5.661l-83.674 48.31c-2.017 1.162-4.521 1.164-6.537 0l-83.676-48.31c-2.015-1.164-3.267-3.333-3.267-5.661v-96.618c0-2.328 1.252-4.497 3.268-5.661l83.674-48.31c2.017-1.164 4.521-1.166 6.537 0l41.572 24.002c3.587 2.069 8.174.843 10.244-2.745z"/></g></svg>