<svg id="Capa_1" enable-background="new 0 0 512 512" height="512" viewBox="0 0 512 512" width="512" xmlns="http://www.w3.org/2000/svg"><g><path d="m323.187 336.547h-10.442v-288.771c0-2.25-1.01-4.381-2.752-5.806l-49.245-40.275c-2.762-2.26-6.734-2.26-9.496 0l-49.244 40.274c-1.742 1.425-2.752 3.556-2.752 5.806v27.042c0 4.143 3.357 7.5 7.5 7.5s7.5-3.357 7.5-7.5v-23.487l41.744-34.141 41.745 34.142v285.217h-9.554v-26.362c0-4.143-3.357-7.5-7.5-7.5s-7.5 3.357-7.5 7.5v26.362h-9.691v-116.978c0-4.143-3.357-7.5-7.5-7.5s-7.5 3.357-7.5 7.5v116.978h-9.691v-273.944l17.191-15.629 17.191 15.629v218.634c0 4.143 3.357 7.5 7.5 7.5s7.5-3.357 7.5-7.5v-221.951c0-2.113-.892-4.128-2.455-5.55l-24.691-22.447c-2.859-2.6-7.23-2.6-10.09 0l-24.691 22.447c-1.563 1.422-2.455 3.437-2.455 5.55v277.261h-9.553v-232.784c0-4.143-3.357-7.5-7.5-7.5s-7.5 3.357-7.5 7.5v232.783h-10.442c-11.612 0-21.06 9.447-21.06 21.06v19.189c0 3.74 1.887 7.168 5.046 9.169 3.156 1.997 7.056 2.236 10.433.64 5.299-2.507 10.979-3.777 16.883-3.777 10.172 0 19.839 3.854 27.222 10.853.091.086.183.172.275.256v14.044c-3.568-.032-6.756 2.497-7.431 6.127-.759 4.072 1.927 7.988 5.999 8.747l1.432.267v12.162c-3.568-.031-6.756 2.497-7.431 6.127-.759 4.072 1.927 7.988 5.999 8.747l1.432.267v19.427h-2.908c-8.366 0-15.172 6.806-15.172 15.172v11.805c0 8.366 6.807 15.173 15.173 15.173h16.822c4.143 0 7.5-3.357 7.5-7.5s-3.357-7.5-7.5-7.5h-16.822c-.096 0-.173-.077-.173-.173v-11.805c0-.095.077-.172.172-.172h62.594c.096 0 .173.077.173.172v11.805c0 .096-.077.173-.173.173h-16.822c-4.143 0-7.5 3.357-7.5 7.5s3.357 7.5 7.5 7.5h16.822c8.366 0 15.173-6.807 15.173-15.173v-11.805c0-8.366-6.807-15.172-15.173-15.172h-2.908v-8.965c.022 0 .045.001.067.001 3.541 0 6.692-2.52 7.364-6.127.759-4.072-1.927-7.988-5.999-8.747l-1.433-.267v-12.161c.022 0 .045.001.067.001 3.541 0 6.692-2.52 7.364-6.127.759-4.072-1.927-7.988-5.999-8.747l-1.433-.267v-24.508c.092-.085.184-.17.275-.256 7.382-6.998 17.05-10.853 27.221-10.853 5.904 0 11.585 1.271 16.883 3.777 3.378 1.597 7.276 1.357 10.434-.64 3.159-2.001 5.046-5.429 5.046-9.169v-19.189c-.001-11.613-9.448-21.061-21.061-21.061zm-80.576 133.304v-16.631l26.777 4.99v11.642h-26.777zm0-31.89v-12.044l26.777 4.99v12.044zm26.777-22.312-26.777-4.99v-10.45c1.078.058 25.713.057 26.776 0v15.44zm59.859-44.999c-5.567-1.875-11.384-2.822-17.362-2.822-14.027 0-27.359 5.315-37.541 14.967-1.667 1.581-3.904 2.451-6.298 2.451h-24.091c-2.394 0-4.631-.871-6.299-2.451-10.181-9.651-23.513-14.967-37.541-14.967-5.979 0-11.794.947-17.361 2.822v-13.043c0-3.341 2.719-6.06 6.06-6.06h134.374c3.341 0 6.06 2.719 6.06 6.06v13.043z"/><path d="m256 356.336c-4.143 0-7.5 3.357-7.5 7.5v9.528c0 4.143 3.357 7.5 7.5 7.5s7.5-3.357 7.5-7.5v-9.528c0-4.142-3.358-7.5-7.5-7.5z"/><path d="m382.077 162.029c8.347 0 15.138-6.79 15.138-15.137v-12.336h12.336c8.347 0 15.138-6.791 15.138-15.138v-10.22c0-8.347-6.791-15.138-15.138-15.138h-12.336v-12.335c0-8.347-6.791-15.137-15.138-15.137h-10.22c-8.347 0-15.138 6.79-15.138 15.137v12.336h-12.336c-8.347 0-15.137 6.791-15.137 15.138v10.22c0 8.347 6.79 15.138 15.137 15.138h12.336v12.336c0 8.347 6.791 15.137 15.138 15.137h10.22zm-10.358-15.137v-16.374c0-6.044-4.918-10.962-10.962-10.962h-16.374c-.075 0-.137-.062-.137-.138v-10.22c0-.076.062-.138.137-.138h16.374c6.044 0 10.962-4.918 10.962-10.962v-16.373c0-.075.062-.137.138-.137h10.22c.076 0 .138.062.138.137v16.374c0 6.044 4.918 10.962 10.962 10.962h16.374c.076 0 .138.062.138.138v10.22c0 .076-.062.138-.138.138h-16.374c-6.044 0-10.962 4.918-10.962 10.962v16.374c0 .075-.062.137-.138.137h-10.22c-.076-.001-.138-.063-.138-.138z"/><path d="m142.992 286.918v-10.22c0-8.347-6.791-15.138-15.138-15.138h-12.336v-12.336c0-8.347-6.791-15.137-15.138-15.137h-10.22c-8.347 0-15.138 6.79-15.138 15.137v12.336h-12.335c-8.347 0-15.137 6.791-15.137 15.138v10.22c0 8.347 6.79 15.138 15.137 15.138h12.336v12.336c0 8.347 6.791 15.137 15.138 15.137h10.22c8.347 0 15.138-6.79 15.138-15.137v-12.336h12.336c8.346 0 15.137-6.791 15.137-15.138zm-15 0c0 .076-.062.138-.138.138h-16.374c-6.044 0-10.962 4.918-10.962 10.962v16.374c0 .075-.062.137-.138.137h-10.22c-.076 0-.138-.062-.138-.137v-16.374c0-6.044-4.918-10.962-10.962-10.962h-16.373c-.075 0-.137-.062-.137-.138v-10.22c0-.076.062-.138.137-.138h16.374c6.044 0 10.962-4.918 10.962-10.962v-16.374c0-.075.062-.137.138-.137h10.22c.076 0 .138.062.138.137v16.374c0 6.044 4.918 10.962 10.962 10.962h16.374c.076 0 .138.062.138.138v10.22z"/><path d="m449.312 286.061h-12.335v-12.336c0-8.347-6.791-15.137-15.138-15.137h-10.221c-8.347 0-15.137 6.79-15.137 15.137v12.336h-12.336c-8.347 0-15.138 6.791-15.138 15.138v10.22c0 8.347 6.791 15.138 15.138 15.138h12.336v12.336c0 8.347 6.79 15.137 15.137 15.137h10.221c8.347 0 15.138-6.79 15.138-15.137v-12.336h12.335c8.347 0 15.138-6.791 15.138-15.138v-10.22c0-8.347-6.791-15.138-15.138-15.138zm.138 25.357c0 .076-.062.138-.138.138h-16.374c-6.044 0-10.961 4.918-10.961 10.962v16.374c0 .075-.062.137-.138.137h-10.221c-.075 0-.137-.062-.137-.137v-16.374c0-6.044-4.918-10.962-10.962-10.962h-16.374c-.076 0-.138-.062-.138-.138v-10.22c0-.076.062-.138.138-.138h16.374c6.044 0 10.962-4.918 10.962-10.962v-16.374c0-.075.062-.137.137-.137h10.221c.076 0 .138.062.138.137v16.374c0 6.044 4.917 10.962 10.961 10.962h16.374c.076 0 .138.062.138.138z"/><path d="m154.045 85.248c-4.143 0-7.5 3.357-7.5 7.5v40.001c0 4.143 3.357 7.5 7.5 7.5s7.5-3.357 7.5-7.5v-40.001c0-4.143-3.358-7.5-7.5-7.5z"/><path d="m409.688 175.434v35.01c0 4.143 3.357 7.5 7.5 7.5s7.5-3.357 7.5-7.5v-35.01c0-4.143-3.357-7.5-7.5-7.5s-7.5 3.358-7.5 7.5z"/><path d="m154.045 153.85c-4.143 0-7.5 3.357-7.5 7.5v10.868c0 4.143 3.357 7.5 7.5 7.5s7.5-3.357 7.5-7.5v-10.868c0-4.142-3.358-7.5-7.5-7.5z"/><path d="m184.206 423.131c-4.143 0-7.5 3.357-7.5 7.5v15.293c0 4.143 3.357 7.5 7.5 7.5s7.5-3.357 7.5-7.5v-15.293c0-4.142-3.358-7.5-7.5-7.5z"/><path d="m370.144 372.323c-4.143 0-7.5 3.357-7.5 7.5v15.293c0 4.143 3.357 7.5 7.5 7.5s7.5-3.357 7.5-7.5v-15.293c0-4.143-3.357-7.5-7.5-7.5z"/><path d="m335.972 228.897c4.143 0 7.5-3.357 7.5-7.5v-10.868c0-4.143-3.357-7.5-7.5-7.5s-7.5 3.357-7.5 7.5v10.868c0 4.143 3.358 7.5 7.5 7.5z"/><path d="m139.979 311.669c-4.143 0-7.5 3.357-7.5 7.5v17.491c0 4.143 3.357 7.5 7.5 7.5s7.5-3.357 7.5-7.5v-17.491c0-4.142-3.357-7.5-7.5-7.5z"/></g></svg>