<svg id="Capa_1" enable-background="new 0 0 511.991 511.991" height="512" viewBox="0 0 511.991 511.991" width="512" xmlns="http://www.w3.org/2000/svg"><g><path d="m511.954 97.323-8.248-82.323c-.356-3.551-3.164-6.358-6.715-6.715l-82.323-8.248c-2.233-.222-4.46.567-6.052 2.159l-61.35 61.35c-1.448-.196-2.926-.298-4.428-.298-18.107 0-32.838 14.731-32.838 32.839 0 1.501.102 2.979.298 4.427l-118.455 118.454c-2.929 2.93-2.929 7.678 0 10.607 1.465 1.464 3.385 2.196 5.304 2.196s3.839-.732 5.304-2.196l113.984-113.985c2.672 3.608 6.065 6.651 9.963 8.915l-164.888 164.89-9.439-9.439 29.875-29.874c2.929-2.93 2.929-7.678 0-10.607-2.93-2.928-7.678-2.928-10.607 0l-29.874 29.874-11.197-11.197c-9.801-9.799-25.745-9.8-35.546.001l-17.646 17.646c-2.891 2.891-4.081 6.997-3.186 10.985.895 3.982 3.724 7.18 7.565 8.554 7.493 2.682 14.167 6.914 19.834 12.581 9.764 9.763 15.344 22.742 15.713 36.546.013.477.037.953.073 1.427l-5.912 5.912-.125-.227c-2-3.626-6.564-4.941-10.19-2.942-3.627 2.002-4.943 6.564-2.942 10.19l2.218 4.019-8.409 8.409-.125-.227c-2.001-3.626-6.564-4.942-10.19-2.942-3.627 2.002-4.943 6.564-2.942 10.19l2.218 4.019-8.41 8.41-.125-.227c-2.002-3.626-6.564-4.941-10.19-2.942-3.627 2.002-4.943 6.564-2.942 10.19l2.218 4.019-18.106 18.106-4.268-4.268c-3.302-3.301-7.69-5.118-12.359-5.118s-9.058 1.817-12.359 5.118l-9.025 9.019c-6.813 6.814-6.813 17.903.001 24.719l21.991 21.99c2.928 2.928 7.677 2.929 10.606-.001 2.929-2.929 2.929-7.678-.001-10.606l-21.99-21.989c-.967-.967-.967-2.54 0-3.506l9.02-9.02c.965-.967 2.539-.967 3.504 0 7.42 7.42 48.113 48.113 57.562 57.562.967.966.967 2.538 0 3.504l-9.019 9.02c-.967.966-2.541.966-3.506.001l-14.878-14.88c-2.929-2.929-7.678-2.93-10.606-.001-2.93 2.929-2.93 7.678-.001 10.606l14.88 14.881c3.407 3.406 7.883 5.11 12.358 5.11s8.952-1.704 12.36-5.11l9.02-9.02c3.301-3.302 5.118-7.69 5.118-12.359s-1.817-9.058-5.118-12.359l-4.268-4.268 3.952-3.952.125.227c1.368 2.478 3.93 3.877 6.573 3.877 1.226 0 2.469-.301 3.617-.935 3.627-2.002 4.943-6.564 2.942-10.19l-2.218-4.019 8.409-8.409.125.227c1.367 2.478 3.93 3.877 6.573 3.877 1.226 0 2.469-.301 3.617-.935 3.627-2.002 4.943-6.564 2.942-10.19l-2.218-4.019 8.41-8.41.125.227c1.367 2.478 3.93 3.877 6.573 3.877 1.226 0 2.469-.301 3.617-.935 3.627-2.002 4.943-6.564 2.942-10.19l-2.218-4.019 20.067-20.067c.474.036.949.061 1.427.073 13.804.369 26.782 5.95 36.545 15.714 5.667 5.666 9.899 12.339 12.581 19.836 1.707 4.766 6.175 7.854 11.178 7.854 3.104 0 6.104-1.221 8.36-3.478l8.514-8.514c5.836 5.312 13.588 8.554 22.082 8.554 18.107 0 32.839-14.731 32.839-32.839s-14.731-32.84-32.839-32.84c-7.158 0-13.788 2.302-19.189 6.205l-4.956-4.956 267.152-267.152c1.593-1.59 2.385-3.811 2.162-6.05zm-169.115-19.075c9.837 0 17.84 8.003 17.84 17.839 0 9.837-8.003 17.84-17.84 17.84-9.836 0-17.839-8.003-17.839-17.84 0-9.836 8.003-17.839 17.839-17.839zm-261.303 380.019-27.812-27.812 15.044-15.043 19.783 35.842zm18.054-18.054-19.782-35.842 8.41-8.41 19.782 35.842zm19.449-19.449-19.782-35.842 8.409-8.409 19.782 35.841zm19.45-19.45-19.782-35.841 4.238-4.238c.805 1.055 1.685 2.063 2.639 3.017l22.154 22.153c.954.955 1.963 1.835 3.018 2.64zm76.19-1.217c-12.489-12.49-29.093-19.63-46.752-20.102-3.568-.096-6.971-1.586-9.581-4.197l-22.155-22.154c-2.61-2.61-4.101-6.013-4.196-9.58-.472-17.659-7.61-34.263-20.101-46.753-6.081-6.08-13.072-10.871-20.835-14.284l14.268-14.269c3.952-3.951 10.382-3.951 14.332 0l118.071 118.071c-2.413 4.569-3.781 9.772-3.781 15.289 0 4.113.76 8.051 2.147 11.682l-7.132 7.131c-3.414-7.762-8.206-14.755-14.285-20.834zm52.109-15.819c9.836 0 17.839 8.003 17.839 17.84 0 9.836-8.003 17.839-17.839 17.839s-17.839-8.003-17.839-17.839c0-9.837 8.003-17.84 17.839-17.84zm-34.753-24.358-9.439-9.439 205.038-205.038c2.929-2.93 2.929-7.678 0-10.607-2.93-2.928-7.678-2.928-10.607 0l-205.038 205.038-14.632-14.632 109.167-109.168c2.929-2.93 2.929-7.678 0-10.607-2.93-2.928-7.678-2.928-10.607 0l-109.167 109.167-14.633-14.633 171.078-171.077c17.826-.191 32.29-14.655 32.481-32.481l50.494-50.494 36.24 3.631 3.631 36.24-28.494 28.494c-2.929 2.93-2.929 7.678 0 10.607 1.465 1.464 3.385 2.196 5.304 2.196s3.839-.732 5.304-2.196l31.008-31.008c1.591-1.592 2.383-3.812 2.159-6.052l-4.597-45.882c-.356-3.551-3.164-6.358-6.715-6.715l-45.882-4.597c-2.244-.222-4.46.569-6.052 2.159l-46.818 46.818c-2.264-3.899-5.307-7.291-8.915-9.963l54.366-54.366 72.682 7.282 7.282 72.682z"/><path d="m163.249 338.136-8.763 8.762c-2.93 2.929-2.93 7.678-.001 10.606 1.465 1.465 3.384 2.197 5.304 2.197 1.919 0 3.839-.732 5.303-2.196l8.763-8.762c2.93-2.929 2.93-7.678.001-10.606-2.93-2.929-7.679-2.928-10.607-.001z"/><path d="m192.288 41.203h74.829l28.8 28.801c1.465 1.464 3.385 2.196 5.304 2.196s3.839-.732 5.304-2.196c2.929-2.93 2.929-7.678 0-10.607l-30.997-30.997c-1.407-1.406-3.314-2.196-5.304-2.196h-77.936c-4.143 0-7.5 3.357-7.5 7.5s3.357 7.499 7.5 7.499z"/><path d="m192.288 69.094h57.49c4.143 0 7.5-3.357 7.5-7.5s-3.357-7.5-7.5-7.5h-57.49c-4.143 0-7.5 3.357-7.5 7.5s3.357 7.5 7.5 7.5z"/><path d="m192.288 94.884h57.49c4.143 0 7.5-3.357 7.5-7.5s-3.357-7.5-7.5-7.5h-57.49c-4.143 0-7.5 3.357-7.5 7.5s3.357 7.5 7.5 7.5z"/><path d="m192.288 120.675h57.49c4.143 0 7.5-3.357 7.5-7.5s-3.357-7.5-7.5-7.5h-57.49c-4.143 0-7.5 3.357-7.5 7.5s3.357 7.5 7.5 7.5z"/><path d="m417.339 332.233h-77.936c-1.989 0-3.896.79-5.304 2.196l-30.997 30.997c-2.929 2.93-2.929 7.678 0 10.607 1.465 1.464 3.385 2.196 5.304 2.196s3.839-.732 5.304-2.196l28.8-28.801h74.829c4.143 0 7.5-3.357 7.5-7.5s-3.358-7.499-7.5-7.499z"/><path d="m417.339 360.125h-57.49c-4.143 0-7.5 3.357-7.5 7.5s3.357 7.5 7.5 7.5h57.49c4.143 0 7.5-3.357 7.5-7.5s-3.358-7.5-7.5-7.5z"/><path d="m417.339 385.916h-57.49c-4.143 0-7.5 3.357-7.5 7.5s3.357 7.5 7.5 7.5h57.49c4.143 0 7.5-3.357 7.5-7.5s-3.358-7.5-7.5-7.5z"/><path d="m417.339 411.706h-57.49c-4.143 0-7.5 3.357-7.5 7.5s3.357 7.5 7.5 7.5h57.49c4.143 0 7.5-3.357 7.5-7.5s-3.358-7.5-7.5-7.5z"/></g></svg>