<svg id="Capa_1" enable-background="new 0 0 512.003 512.003" height="512" viewBox="0 0 512.003 512.003" width="512" xmlns="http://www.w3.org/2000/svg"><g><path d="m490.033 84.087h-113.992l16.653-48.347c1.011-2.934.11-6.187-2.266-8.184s-5.736-2.325-8.452-.823l-10.589 5.849 4.204-11.17c.998-2.651.416-5.639-1.503-7.723-1.918-2.083-4.845-2.909-7.572-2.132l-13.356 3.807 2.061-5.015c1.229-2.993.401-6.437-2.056-8.544s-5.986-2.399-8.758-.728l-73.053 44.092c-2.249 1.357-3.624 3.793-3.624 6.421v22.88h-23.458v-22.88c0-2.628-1.375-5.063-3.624-6.421l-73.052-44.089c-2.771-1.673-6.301-1.38-8.758.728-2.457 2.106-3.285 5.551-2.056 8.544l2.061 5.015-13.355-3.807c-2.728-.778-5.655.049-7.572 2.132-1.919 2.084-2.501 5.071-1.503 7.723l4.204 11.17-10.59-5.85c-2.716-1.501-6.077-1.174-8.452.823-2.376 1.996-3.276 5.25-2.266 8.184l16.653 48.347h-63.294c-4.143 0-7.5 3.357-7.5 7.5s3.357 7.5 7.5 7.5h68.46l9.325 27.072c1.107 3.213 4.274 5.346 7.789 5.025l29.19-2.728c.508.863 1.197 1.637 2.054 2.259l62.106 45.123c1.314.955 2.861 1.433 4.408 1.433s3.094-.478 4.408-1.433l62.106-45.123c.856-.622 1.545-1.395 2.054-2.259l29.19 2.728c3.511.321 6.681-1.808 7.789-5.025l9.325-27.072h119.158c3.843 0 6.969 3.127 6.969 6.97v281.189c0 3.843-3.126 6.97-6.969 6.97h-76.95l4.539-5.885v.001c6.148-7.97 6.148-19.103 0-27.072l-4.973-6.446c-1.007-1.305-1.535-2.932-1.487-4.58l.234-8.129c.29-10.07-6.259-19.08-15.928-21.91l-7.798-2.282c-1.587-.464-2.974-1.473-3.905-2.839l-4.565-6.696c-5.687-8.34-16.293-11.784-25.791-8.378l-7.628 2.734c-1.559.559-3.276.558-4.835.001l-7.629-2.737c-9.499-3.409-20.105.039-25.791 8.378l-4.565 6.696c-.931 1.366-2.318 2.374-3.904 2.839l-7.799 2.281c-9.669 2.83-16.218 11.84-15.928 21.909l.234 8.131c.048 1.647-.481 3.274-1.488 4.581l-4.972 6.445c-6.148 7.97-6.148 19.103 0 27.072l4.538 5.884h-251.668c-3.843 0-6.97-3.127-6.97-6.97v-281.189c0-3.843 3.127-6.97 6.97-6.97h21.697c4.143 0 7.5-3.357 7.5-7.5s-3.357-7.5-7.5-7.5h-21.697c-12.114 0-21.97 9.855-21.97 21.97v281.189c0 12.114 9.855 21.97 21.97 21.97h253.372c.412 8.432 5.6 15.887 13.287 19.231v69.14c0 4.977 2.514 9.531 6.723 12.186 2.35 1.48 5.004 2.229 7.673 2.229 2.113 0 4.235-.47 6.22-1.418l34.114-16.3 34.113 16.299c4.492 2.147 9.686 1.842 13.894-.811 4.209-2.654 6.723-7.209 6.723-12.186v-21.63c0-4.143-3.357-7.5-7.5-7.5s-7.5 3.357-7.5 7.5v20.686l-33.521-16.016c-3.947-1.885-8.474-1.885-12.419 0l-33.52 16.016v-61.136l3.892 5.708c5.688 8.341 16.298 11.783 25.792 8.378l7.628-2.734c1.56-.559 3.277-.56 4.835-.001l7.628 2.735c2.452.88 4.978 1.303 7.474 1.303 7.174 0 14.1-3.494 18.318-9.681l3.893-5.709v11.452c0 4.143 3.357 7.5 7.5 7.5s7.5-3.357 7.5-7.5v-18.51c7.687-3.345 12.875-10.8 13.286-19.231h78.657c12.113 0 21.969-9.855 21.969-21.97v-281.189c-.001-12.114-9.856-21.97-21.969-21.97zm-350.192-34.794 8.917 4.926 14.641 38.903c1.452 3.858 5.765 5.843 9.661 4.378 3.877-1.459 5.837-5.784 4.378-9.661l-21.741-57.771 10.405 2.966 11.469 27.913c1.575 3.831 5.956 5.659 9.788 4.087 3.831-1.574 5.661-5.956 4.087-9.788l-12.157-29.587 49.984 30.168v18.646h-11.655c-2.723 0-5.232 1.476-6.556 3.856l-19.264 34.654-29.083 2.719zm116.16 111.208-52.323-38.016 18.352-33.013h67.943l18.352 33.013zm93.286-44.799-29.083-2.719-19.264-34.654c-1.323-2.381-3.833-3.856-6.556-3.856h-11.654v-18.647l49.983-30.168-12.157 29.587c-1.574 3.831.256 8.214 4.087 9.788 3.832 1.573 8.213-.256 9.788-4.087l11.469-27.913 10.406-2.966-21.742 57.771c-1.459 3.877.501 8.202 4.378 9.661 3.902 1.467 8.211-.525 9.661-4.378l14.641-38.903 8.916-4.925zm22.08 310.368-4.565 6.696c-1.838 2.694-5.263 3.808-8.335 2.708l-7.629-2.736c-2.411-.864-4.944-1.296-7.479-1.296-2.533 0-5.067.433-7.479 1.297l-7.629 2.735c-3.071 1.101-6.498-.014-8.335-2.708l-4.565-6.696c-2.884-4.229-7.176-7.35-12.086-8.786l-7.798-2.282c-3.125-.914-5.241-3.826-5.147-7.081l.234-8.129c.147-5.101-1.488-10.135-4.604-14.176l-4.972-6.445c-1.986-2.575-1.986-6.173 0-8.749l4.972-6.446c3.117-4.041 4.753-9.075 4.605-14.174l-.234-8.131c-.094-3.254 2.022-6.166 5.146-7.08l7.801-2.282c4.911-1.438 9.203-4.558 12.085-8.785l4.565-6.696c1.838-2.696 5.267-3.809 8.334-2.708l7.63 2.736c4.822 1.729 10.134 1.729 14.958-.001l7.629-2.735c3.066-1.101 6.497.013 8.334 2.708l4.565 6.696c2.884 4.229 7.176 7.35 12.087 8.786l7.798 2.282c3.124.914 5.24 3.826 5.146 7.081l-.234 8.129c-.147 5.102 1.488 10.136 4.605 14.176l4.972 6.445c1.986 2.575 1.986 6.173 0 8.748v.001l-4.971 6.443c-3.117 4.04-4.754 9.074-4.606 14.177l.234 8.131c.094 3.254-2.022 6.165-5.148 7.079l-7.798 2.283c-4.912 1.437-9.204 4.557-12.086 8.785z"/><path d="m92.682 118.276c-2.627-2.627-6.119-4.074-9.834-4.074s-7.207 1.447-9.832 4.073l-21.19 21.188c-5.422 5.423-5.422 14.244 0 19.667l21.189 21.189c2.711 2.711 6.272 4.065 9.833 4.065s7.122-1.354 9.833-4.065l21.189-21.189c5.422-5.423 5.422-14.244-.001-19.667zm-9.834 50.663-19.642-19.642 19.642-19.642 19.642 19.642z"/><path d="m419.323 180.32c2.711 2.71 6.271 4.065 9.832 4.065s7.122-1.355 9.834-4.065l21.189-21.189c5.422-5.423 5.422-14.244-.001-19.667l-21.188-21.188c-2.627-2.626-6.119-4.073-9.833-4.073-3.715 0-7.207 1.447-9.832 4.073l-21.19 21.188c-5.422 5.423-5.422 14.244 0 19.667zm9.833-50.664 19.642 19.642-19.642 19.642-19.642-19.642z"/><path d="m274.202 95.521h-36.401c-4.143 0-7.5 3.357-7.5 7.5s3.357 7.5 7.5 7.5h36.401c4.143 0 7.5-3.357 7.5-7.5s-3.357-7.5-7.5-7.5z"/><path d="m262.822 116.561h-13.64c-4.143 0-7.5 3.357-7.5 7.5s3.357 7.5 7.5 7.5h13.64c4.143 0 7.5-3.357 7.5-7.5s-3.358-7.5-7.5-7.5z"/><path d="m343.36 329.06c-25.22 0-45.737 20.518-45.737 45.736s20.518 45.736 45.737 45.736 45.736-20.518 45.736-45.736-20.518-45.736-45.736-45.736zm0 76.473c-16.948 0-30.737-13.788-30.737-30.736s13.789-30.736 30.737-30.736 30.736 13.788 30.736 30.736-13.788 30.736-30.736 30.736z"/><path d="m300.448 201.426c4.143 0 7.5-3.357 7.5-7.5s-3.357-7.5-7.5-7.5h-88.892c-4.143 0-7.5 3.357-7.5 7.5s3.357 7.5 7.5 7.5z"/><path d="m150.044 218.871c0 4.143 3.357 7.5 7.5 7.5h196.914c4.143 0 7.5-3.357 7.5-7.5s-3.357-7.5-7.5-7.5h-196.914c-4.142 0-7.5 3.357-7.5 7.5z"/><path d="m86.61 334.619c-4.143 0-7.5 3.357-7.5 7.5s3.357 7.5 7.5 7.5h23.833c4.143 0 7.5-3.357 7.5-7.5s-3.357-7.5-7.5-7.5z"/><path d="m143.432 334.619c-4.143 0-7.5 3.357-7.5 7.5s3.357 7.5 7.5 7.5h23.833c4.143 0 7.5-3.357 7.5-7.5s-3.357-7.5-7.5-7.5z"/><path d="m200.254 334.619c-4.143 0-7.5 3.357-7.5 7.5s3.357 7.5 7.5 7.5h23.834c4.143 0 7.5-3.357 7.5-7.5s-3.357-7.5-7.5-7.5z"/><path d="m111.839 249.168v22.342c0 6.535 5.316 11.853 11.852 11.853h264.621c6.535 0 11.853-5.317 11.853-11.853v-22.342c0-6.535-5.317-11.852-11.853-11.852h-47.915c-4.143 0-7.5 3.357-7.5 7.5s3.357 7.5 7.5 7.5h44.768v16.046h-258.326v-16.046h184.558c4.143 0 7.5-3.357 7.5-7.5s-3.357-7.5-7.5-7.5h-187.706c-6.535 0-11.852 5.316-11.852 11.852z"/></g></svg>