<svg id="Capa_1" enable-background="new 0 0 512 512" height="512" viewBox="0 0 512 512" width="512" xmlns="http://www.w3.org/2000/svg"><g><path d="m498.637 0h-156.988c-7.368 0-13.363 5.995-13.363 13.363v80.172c0 4.196-1.237 8.255-3.576 11.737l-18.646 27.747c-2.416 3.595-2.253 8.307.407 11.726 2.675 3.439 7.212 4.73 11.27 3.278l32.719-11.706c2.279-.816 4.664-1.23 7.087-1.23h141.091c7.368 0 13.362-5.995 13.362-13.363v-108.361c0-7.368-5.994-13.363-13.363-13.363zm-1.637 120.087h-139.453c-4.151 0-8.236.709-12.142 2.107l-18.424 6.592 10.179-15.147c4.008-5.966 6.126-12.918 6.126-20.104v-78.535h153.714z"/><path d="m436.452 413.865h-24.986c-2.16-14.536-14.723-25.725-29.85-25.725s-27.691 11.188-29.85 25.725h-10.961l-11.704-26.861h44.296c12.567 0 22.792-10.225 22.792-22.792v-33.69c0-4.143-3.357-7.5-7.5-7.5s-7.5 3.357-7.5 7.5v33.69c0 4.297-3.495 7.792-7.792 7.792h-191.562c-4.297 0-7.792-3.495-7.792-7.792v-132.38c0-4.297 3.496-7.793 7.792-7.793h191.562c4.297 0 7.792 3.496 7.792 7.793v69.689c0 4.143 3.357 7.5 7.5 7.5s7.5-3.357 7.5-7.5v-69.689c0-12.568-10.225-22.793-22.792-22.793h-65.158v-9.937c0-11.087-6.957-20.738-17.223-24.335v-37.871c-.001-75.485-61.412-136.896-136.897-136.896-41.645 0-80.527 18.629-106.679 51.111-2.598 3.227-2.088 7.947 1.138 10.545 3.228 2.599 7.949 2.089 10.545-1.139 23.291-28.926 57.915-45.517 94.996-45.517 67.214 0 121.896 54.683 121.896 121.896v34.164l-7.934-1.883v-1.387c0-3.848-1.559-7.338-4.077-9.873v-18.386c0-60.591-49.295-109.886-109.886-109.886s-109.884 49.296-109.884 109.887v18.385c-2.519 2.535-4.078 6.026-4.078 9.873v1.387l-7.934 1.883v-34.164c0-18.692 4.122-36.63 12.251-53.315 1.814-3.724.267-8.213-3.457-10.027-3.723-1.814-8.213-.267-10.027 3.457-9.135 18.749-13.767 38.897-13.767 59.886v37.87c-10.264 3.596-17.222 13.248-17.222 24.336v26.07c0 12.007 8.159 22.329 19.84 25.102l20.315 4.823v1.387c0 7.729 6.288 14.016 14.016 14.016h12.184c4.492 0 8.497-2.124 11.064-5.421 10.797 18.491 28.088 32.748 48.722 39.619v4.527c-22.532 5.928-42.887 19.105-57.609 37.365-15.67 19.435-24.299 43.912-24.299 68.924v6.72c0 4.143 3.358 7.5 7.5 7.5s7.5-3.357 7.5-7.5v-6.72c0-42.191 27.184-78.562 66.908-90.704v4.894c0 15.427 12.55 27.977 27.977 27.977 1.652 0 3.301-.148 4.923-.438v6.969c0 12.567 10.225 22.792 22.792 22.792h44.296l-11.704 26.861h-95.645c-11.669 0-21.162 9.493-21.162 21.162v41.972h-26.787c-6.395 0-11.598-5.203-11.598-11.598v-14.169c0-4.143-3.358-7.5-7.5-7.5s-7.5 3.357-7.5 7.5v14.169c0 14.666 11.932 26.598 26.598 26.598h26.786v12.5c0 4.143 3.358 7.5 7.5 7.5s7.5-3.357 7.5-7.5v-69.473c0-3.397 2.764-6.162 6.162-6.162h317.672c3.397 0 6.162 2.765 6.162 6.162v69.473c0 4.143 3.357 7.5 7.5 7.5s7.5-3.357 7.5-7.5v-69.473c.001-11.669-9.492-21.162-21.161-21.162zm-193.586-245.09h10.215v40.264h-10.215zm42.066 19.819c4.89 1.161 8.306 5.482 8.306 10.509v9.937h-25.156v-24.445zm-130.813-143.948c52.32 0 94.885 42.565 94.885 94.886v14.243h-6.138v-.949c0-5.604-3.422-10.384-8.718-12.181-5.328-1.809-10.985-.082-14.416 4.392-9.035 11.785-19.439 17.544-31.74 17.544-.061 0-.12 0-.18-.001l2.802-17.597c.882-5.543-1.884-10.969-6.885-13.501-5.024-2.544-11.062-1.557-15.025 2.454-9.266 9.373-17.977 15.625-26.53 19.024l1.351-13.648c.505-5.106-1.942-9.868-6.388-12.427-4.447-2.56-9.797-2.282-13.961.721-13.446 9.699-28.731 15.665-46.729 18.236-4.637.663-8.436 3.795-10.128 7.933h-7.085v-14.243c0-52.32 42.565-94.886 94.885-94.886zm-130.814 191.035c-4.89-1.161-8.305-5.482-8.305-10.508v-26.07c0-5.026 3.416-9.348 8.305-10.509l16.851-4v55.087zm42.066 19.819h-10.215v-86.725h10.215zm15-35.032v-60.045c17.8-2.781 33.839-8.834 47.775-18.025l-1.228 12.41c-.429 4.328 1.334 8.545 4.715 11.279 3.391 2.742 7.895 3.583 12.056 2.257 10.393-3.321 20.616-9.699 31.11-19.429l-2.178 13.676c-.571 3.585.402 7.268 2.67 10.104 2.242 2.805 5.572 4.544 9.138 4.771 16.778 1.079 31.362-5.228 43.437-18.741v50.314h-46.032c-12.568 0-22.792 10.225-22.792 22.793v62.221c-1.639.108-3.284.163-4.923.163-40.665 0-73.748-33.083-73.748-73.748zm73.748 122.213c-7.156 0-12.977-5.821-12.977-12.977v-21.434c4.237.623 8.57.946 12.977.946 1.638 0 3.282-.046 4.923-.136v32.638c-1.554.639-3.205.963-4.923.963zm76.67 71.184 11.704-26.861h70.245l11.704 26.861zm136.315 0c1.907-6.203 7.691-10.725 14.512-10.725s12.604 4.521 14.512 10.725z"/><path d="m248.648 334.415c-4.142 0-7.5 3.357-7.5 7.5s3.358 7.5 7.5 7.5h57.935c4.143 0 7.5-3.357 7.5-7.5s-3.357-7.5-7.5-7.5z"/><path d="m396.063 99.811c2.42 1.396 5.073 2.095 7.727 2.095s5.31-.698 7.729-2.096l32.705-18.882c4.839-2.793 7.728-7.797 7.728-13.385 0-5.587-2.889-10.591-7.728-13.384l-32.705-18.882c-4.836-2.794-10.615-2.794-15.455-.001-4.839 2.794-7.728 7.797-7.728 13.385v37.765c0 5.588 2.888 10.591 7.727 13.385zm7.273-51.15c0-.111 0-.263.228-.394.093-.054.169-.073.234-.073.094 0 .164.04.221.073l32.705 18.882c.096.056.228.131.228.394 0 .264-.132.339-.228.395l-32.705 18.882c-.099.056-.23.13-.455 0-.228-.131-.228-.282-.228-.394z"/></g></svg>