<svg id="Capa_1" enable-background="new 0 0 512.006 512.006" height="512" viewBox="0 0 512.006 512.006" width="512" xmlns="http://www.w3.org/2000/svg"><g><path d="m488.753 65.861h-22.661v-10.335c0-4.143-3.357-7.5-7.5-7.5s-7.5 3.357-7.5 7.5v10.335h-28.518v-10.335c0-4.143-3.357-7.5-7.5-7.5s-7.5 3.357-7.5 7.5v10.335h-28.517v-10.335c0-4.143-3.357-7.5-7.5-7.5s-7.5 3.357-7.5 7.5v10.335h-28.517v-10.335c0-4.143-3.357-7.5-7.5-7.5s-7.5 3.357-7.5 7.5v10.335h-28.517v-10.335c0-4.143-3.357-7.5-7.5-7.5s-7.5 3.357-7.5 7.5v10.335h-28.517v-10.335c0-4.143-3.357-7.5-7.5-7.5s-7.5 3.357-7.5 7.5v10.335h-28.517v-10.335c0-4.143-3.357-7.5-7.5-7.5s-7.5 3.357-7.5 7.5v10.335h-28.518v-10.335c0-4.143-3.357-7.5-7.5-7.5s-7.5 3.357-7.5 7.5v10.335h-22.661c-12.438 0-22.626 9.817-23.225 22.109l-79.361 278.75c-1.135 3.983 1.176 8.133 5.159 9.267 3.986 1.138 8.133-1.176 9.267-5.159l64.91-227.982v306.134h-80.569c-2.157 0-3.415-1.239-3.973-1.979-.558-.738-1.405-2.288-.815-4.362l12.481-43.836c1.135-3.983-1.175-8.133-5.159-9.267-3.983-1.141-8.133 1.175-9.267 5.159l-12.481 43.837c-1.73 6.081-.538 12.463 3.271 17.509s9.621 7.939 15.943 7.939h468.762c12.821 0 23.253-10.432 23.253-23.254v-39.184c0-4.143-3.357-7.5-7.5-7.5s-7.5 3.357-7.5 7.5v39.184c0 4.551-3.702 8.254-8.253 8.254h-373.193v-295.928h381.446v219.49c0 4.143 3.357 7.5 7.5 7.5s7.5-3.357 7.5-7.5v-283.428c0-12.821-10.432-23.253-23.253-23.253zm-373.193 72.191v-48.938c0-4.551 3.702-8.253 8.253-8.253h22.661v8.253c0 4.143 3.357 7.5 7.5 7.5s7.5-3.357 7.5-7.5v-8.253h28.518v8.253c0 4.143 3.357 7.5 7.5 7.5s7.5-3.357 7.5-7.5v-8.253h28.517v8.253c0 4.143 3.357 7.5 7.5 7.5s7.5-3.357 7.5-7.5v-8.253h28.517v8.253c0 4.143 3.357 7.5 7.5 7.5s7.5-3.357 7.5-7.5v-8.253h28.517v8.253c0 4.143 3.357 7.5 7.5 7.5s7.5-3.357 7.5-7.5v-8.253h28.517v8.253c0 4.143 3.357 7.5 7.5 7.5s7.5-3.357 7.5-7.5v-8.253h28.517v8.253c0 4.143 3.357 7.5 7.5 7.5s7.5-3.357 7.5-7.5v-8.253h28.518v8.253c0 4.143 3.357 7.5 7.5 7.5s7.5-3.357 7.5-7.5v-8.253h22.661c4.551 0 8.253 3.702 8.253 8.253v48.938z"/><path d="m367.22 110.118h-121.874c-4.143 0-7.5 3.357-7.5 7.5s3.357 7.5 7.5 7.5h121.874c4.143 0 7.5-3.357 7.5-7.5s-3.358-7.5-7.5-7.5z"/><path d="m400.03 212.355c7.568 0 13.726-6.157 13.726-13.727v-19.585c0-7.568-6.157-13.726-13.726-13.726h-187.495c-7.568 0-13.726 6.157-13.726 13.726v19.585c0 7.569 6.157 13.727 13.726 13.727zm-186.22-32.037h184.946v17.037h-184.946z"/><path d="m165.586 416.37c-4.143 0-7.5 3.357-7.5 7.5s3.357 7.5 7.5 7.5h19.799c4.143 0 7.5-3.357 7.5-7.5s-3.357-7.5-7.5-7.5z"/><path d="m232.513 416.37h-19.798c-4.143 0-7.5 3.357-7.5 7.5s3.357 7.5 7.5 7.5h19.798c4.143 0 7.5-3.357 7.5-7.5s-3.358-7.5-7.5-7.5z"/><path d="m331.984 326.455c0-4.143-3.357-7.5-7.5-7.5h-36.401c-4.143 0-7.5 3.357-7.5 7.5s3.357 7.5 7.5 7.5h36.401c4.142 0 7.5-3.358 7.5-7.5z"/><path d="m320.603 347.494c0-4.143-3.357-7.5-7.5-7.5h-13.64c-4.143 0-7.5 3.357-7.5 7.5s3.357 7.5 7.5 7.5h13.64c4.142 0 7.5-3.358 7.5-7.5z"/><path d="m306.282 400.704c1.547 0 3.094-.478 4.408-1.433l62.106-45.122c.857-.622 1.546-1.396 2.054-2.259l29.191 2.729c3.511.321 6.681-1.808 7.789-5.025l31.145-90.419c1.011-2.934.11-6.187-2.266-8.184-2.375-1.997-5.737-2.324-8.451-.824l-10.591 5.85 4.204-11.17c.998-2.651.416-5.639-1.503-7.723-1.918-2.083-4.847-2.907-7.573-2.132l-13.355 3.807 2.061-5.015c1.229-2.993.401-6.438-2.056-8.544-2.457-2.107-5.986-2.399-8.758-.728l-73.053 44.092c-2.249 1.357-3.624 3.793-3.624 6.421v22.88h-23.458v-22.88c0-2.628-1.375-5.063-3.624-6.421l-73.053-44.092c-2.772-1.673-6.302-1.38-8.758.728-2.457 2.106-3.285 5.551-2.056 8.544l2.061 5.015-13.355-3.807c-2.729-.777-5.654.048-7.573 2.132s-2.501 5.071-1.503 7.723l4.204 11.17-10.589-5.85c-2.715-1.499-6.076-1.173-8.452.824-2.376 1.996-3.276 5.25-2.266 8.184l13.098 38.022c1.352 3.926 5.631 5.996 9.533 4.648 3.917-1.349 5.998-5.617 4.648-9.533l-6.747-19.587 8.917 4.927 14.64 38.901c1.452 3.858 5.765 5.843 9.661 4.378 3.877-1.459 5.837-5.784 4.378-9.661l-21.741-57.77 10.406 2.967 11.469 27.912c1.574 3.83 5.955 5.658 9.788 4.087 3.831-1.574 5.661-5.957 4.087-9.788l-12.155-29.588 49.983 30.168v18.646h-11.655c-2.723 0-5.232 1.476-6.556 3.856l-19.263 34.654-29.083 2.719-8.235-23.909c-1.349-3.916-5.616-6.003-9.533-4.648-3.916 1.349-5.998 5.617-4.648 9.533l10.155 29.483c1.107 3.213 4.274 5.346 7.789 5.025l29.19-2.729c.509.864 1.198 1.637 2.054 2.259l62.106 45.122c1.315.957 2.862 1.435 4.408 1.435zm26.73-121.446 49.983-30.168-12.157 29.587c-1.574 3.831.256 8.214 4.087 9.788 3.832 1.572 8.214-.257 9.788-4.087l11.469-27.912 10.406-2.967-21.741 57.77c-1.459 3.877.501 8.202 4.378 9.661 3.902 1.467 8.211-.525 9.661-4.378l14.641-38.902 8.917-4.926-22.874 66.409-29.084-2.719-19.262-34.654c-1.323-2.381-3.832-3.856-6.556-3.856h-11.655v-18.646zm-60.701 33.647h67.944l18.351 33.014-52.323 38.015-52.323-38.015z"/></g></svg>