<svg id="Capa_1" enable-background="new 0 0 512 512" height="512" viewBox="0 0 512 512" width="512" xmlns="http://www.w3.org/2000/svg"><g><path d="m380.576 164.663c-2.275-2.042-5.561-2.499-8.309-1.154l-10.082 4.938 3.738-9.933c.998-2.651.416-5.639-1.503-7.723-1.918-2.083-4.847-2.908-7.573-2.132l-10.931 3.116 1.379-3.356c1.229-2.993.401-6.438-2.056-8.544-2.456-2.107-5.986-2.4-8.758-.728l-66.78 40.306c-2.249 1.357-3.624 3.793-3.624 6.421v20.271h-20.155v-20.271c0-2.628-1.375-5.063-3.625-6.421l-66.781-40.306c-2.771-1.673-6.301-1.381-8.757.728-2.457 2.106-3.285 5.551-2.055 8.544l1.379 3.356-10.931-3.117c-2.725-.775-5.654.049-7.573 2.132-1.919 2.084-2.5 5.071-1.503 7.723l3.738 9.933-10.081-4.938c-2.726-1.335-5.989-.896-8.264 1.114s-3.114 5.193-2.126 8.063c5.46 15.854 23.289 63.352 29.562 81.563 1.108 3.218 4.279 5.346 7.79 5.025l26.29-2.458c.481.722 1.095 1.371 1.833 1.908l56.774 41.249c1.314.955 2.861 1.433 4.408 1.433s3.094-.478 4.409-1.433l56.773-41.249c.739-.536 1.352-1.186 1.834-1.908l26.289 2.458c3.451.315 6.599-1.74 7.749-4.912l29.562-81.563c1.043-2.873.235-6.092-2.04-8.135zm-230.852 20.441 7.796 3.818 13.225 35.142c1.452 3.858 5.765 5.843 9.661 4.378 3.877-1.459 5.837-5.784 4.378-9.661l-19.424-51.613 7.983 2.276 10.365 25.226c1.574 3.831 5.957 5.659 9.788 4.087 3.831-1.574 5.661-5.957 4.086-9.788l-10.372-25.242 43.712 26.382v16.038h-10.011c-2.723 0-5.232 1.476-6.555 3.856l-17.444 31.382-25.776 2.41c-5.362-15.115-14.758-40.432-21.412-58.691zm106.276 99.533-46.991-34.142 16.314-29.349h61.353l16.314 29.349zm84.928-40.836-25.84-2.416-17.444-31.382c-1.323-2.381-3.833-3.856-6.556-3.856h-10.011v-16.038l43.711-26.382-10.372 25.242c-1.574 3.831.256 8.214 4.087 9.788 3.833 1.573 8.214-.256 9.788-4.087l10.365-25.226 7.982-2.276-19.424 51.613c-1.459 3.877.501 8.202 4.378 9.661 3.902 1.467 8.211-.525 9.661-4.378l13.225-35.142 7.708-3.774z"/><path d="m262.234 235.884h-12.468c-4.142 0-7.5 3.357-7.5 7.5s3.358 7.5 7.5 7.5h12.468c4.143 0 7.5-3.357 7.5-7.5s-3.358-7.5-7.5-7.5z"/><path d="m187.036 308.752c0-4.143-3.358-7.5-7.5-7.5h-32.556c-4.142 0-7.5 3.357-7.5 7.5s3.358 7.5 7.5 7.5h32.556c4.142 0 7.5-3.357 7.5-7.5z"/><path d="m372.52 308.752c0-4.143-3.357-7.5-7.5-7.5h-32.557c-4.143 0-7.5 3.357-7.5 7.5s3.357 7.5 7.5 7.5h32.557c4.143 0 7.5-3.357 7.5-7.5z"/><path d="m306.618 426.344c4.143 0 7.5-3.357 7.5-7.5s-3.357-7.5-7.5-7.5h-101.236c-4.142 0-7.5 3.357-7.5 7.5s3.358 7.5 7.5 7.5z"/><path d="m164.142 451.431c0 4.143 3.358 7.5 7.5 7.5h168.716c4.143 0 7.5-3.357 7.5-7.5s-3.357-7.5-7.5-7.5h-168.716c-4.142 0-7.5 3.357-7.5 7.5z"/><path d="m361.973 380.633v-23.763c0-7.236-5.887-13.123-13.123-13.123h-122.812c-4.142 0-7.5 3.357-7.5 7.5s3.358 7.5 7.5 7.5h120.936v20.009h-181.948v-20.009h32.011c4.142 0 7.5-3.357 7.5-7.5s-3.358-7.5-7.5-7.5h-33.888c-7.236 0-13.123 5.887-13.123 13.123v23.763c0 7.236 5.887 13.123 13.123 13.123h185.701c7.236 0 13.123-5.887 13.123-13.123z"/><path d="m421.795 441.679c4.143 0 7.5-3.357 7.5-7.5v-317.19c0-9.729-7.915-17.645-17.645-17.645h-33.69v-8.463c0-13.333-10.847-24.18-24.179-24.18h-12.373v-59.201c0-4.143-3.357-7.5-7.5-7.5s-7.5 3.357-7.5 7.5v59.201h-74.952c-4.142 0-7.5 3.357-7.5 7.5s3.358 7.5 7.5 7.5h102.325c5.062 0 9.179 4.118 9.179 9.18v8.463h-213.921v-8.463c0-5.062 4.118-9.18 9.179-9.18h64.239c4.142 0 7.5-3.357 7.5-7.5s-3.358-7.5-7.5-7.5h-36.865v-59.201c0-4.143-3.358-7.5-7.5-7.5s-7.5 3.357-7.5 7.5v59.201h-12.374c-13.332 0-24.179 10.847-24.179 24.18v8.463h-33.69c-9.729 0-17.645 7.915-17.645 17.645v377.367c0 9.729 7.915 17.645 17.645 17.645h311.302c9.729 0 17.645-7.915 17.645-17.645v-31.177c0-4.143-3.357-7.5-7.5-7.5s-7.5 3.357-7.5 7.5v31.177c0 1.458-1.187 2.645-2.645 2.645h-311.302c-1.458 0-2.645-1.187-2.645-2.645v-377.368c0-1.458 1.187-2.645 2.645-2.645h311.302c1.458 0 2.645 1.187 2.645 2.645v317.19c-.001 4.143 3.357 7.501 7.499 7.501z"/></g></svg>