<svg id="Capa_1" enable-background="new 0 0 512 512" height="512" viewBox="0 0 512 512" width="512" xmlns="http://www.w3.org/2000/svg"><g><path d="m256 308.285c84.95 0 154.143-69.106 154.143-154.143-.001-85.106-69.249-154.142-154.143-154.142-33.019 0-64.476 10.259-90.971 29.667-3.341 2.448-4.065 7.142-1.618 10.483 2.449 3.341 7.143 4.064 10.483 1.618 4.009-2.937 8.143-5.641 12.39-8.108l9.876 27.619c1.567 4.382 5.568 7.549 10.192 8.069l9.339 1.051 5.753 22.296c1.402 5.423 6.293 9.211 11.894 9.211h21.75c16.533 36.029 14.459 31.509 14.708 32.051 2.255 4.911 7.561 7.797 12.914 7.033l30.092-4.333 17.68 16.5c2.794 2.608 6.725 3.797 10.556 3.111l53.902-9.688c.135 2.504.204 5.025.204 7.562 0 1.923-.04 3.836-.118 5.741l-30.561 9.151-28.94-5.964c-3.347-.689-6.86.058-9.637 2.048l-13.985 10.026h-26.583c-3.134 0-6.119 1.181-8.403 3.324l-23.232 21.791c-1.678 1.574-2.876 3.581-3.465 5.798l-8.744 32.85c-.502 1.881-.548 3.88-.134 5.78l1.529 7.02c.765 3.51 3.87 5.905 7.321 5.905.528 0 1.065-.057 1.604-.174 4.047-.882 6.613-4.878 5.731-8.925l-1.39-6.377 8.378-31.47 21.88-20.522h26.379c2.579 0 5.052-.794 7.157-2.3l13.729-9.843 28.444 5.862c1.986.407 4.065.317 6.005-.264l25.314-7.581c-9.954 62.762-62.022 111.689-126.243 116.82l-3.396-15.592c-.882-4.047-4.875-6.612-8.924-5.732-4.048.882-6.614 4.877-5.732 8.924l2.785 12.786c-6.194-.18-12.287-.766-18.254-1.733l-14.911-60.118 11.296-27.471c.864-2.107 1.127-4.408.758-6.659l-4.137-25.15c-.838-5.098-4.814-9.152-9.893-10.087l-11.175-2.061c-1.663-6.099-12.976-47.597-14.771-54.183-1.453-5.331-6.326-9.054-11.852-9.054h-13.803l-5.91-12.732c-1.862-4.013-5.759-6.724-10.168-7.074l-8.397-.668c3.782-5.592 7.989-10.937 12.603-15.988 2.794-3.059 2.579-7.803-.479-10.596-3.061-2.794-7.803-2.58-10.596.479-26.032 28.499-40.369 65.438-40.369 104.012.002 85.647 69.724 154.144 154.145 154.144zm-20.558-221.379-5.695-22.068c-1.265-4.899-5.493-8.57-10.521-9.136l-9.514-1.07-9.955-27.843c17.545-7.764 36.586-11.789 56.243-11.789 20.019 0 39.063 4.25 56.279 11.894l-26.972 10.184c-3.457 1.306-5.448 4.935-4.691 8.552l7.575 36.218-18.183 16.608-2.013-4.387c-1.996-4.351-6.378-7.162-11.165-7.162h-21.388zm104.28 54.359-17.637-16.461c-2.733-2.552-6.42-3.715-10.133-3.18l-29.372 4.229-6.004-13.083 24.889-22.734c1.957-1.789 2.825-4.479 2.282-7.073l-7.137-34.121 33.274-12.562c33.12 20.837 56.885 55.239 63.437 95.351zm-148.759 22.031.611 2.243c1.234 4.525 5.012 7.999 9.623 8.85l10.977 2.024 3.702 22.506-11.338 27.57c-1.005 2.439-1.199 5.081-.563 7.633l13.316 53.686c-36.175-10.492-66.322-35.306-83.871-67.869l25.052-12.93c2.494-1.287 4.061-3.858 4.061-6.665v-27.599zm-58.775-72.689 14.136 1.124 5.973 12.866c2.006 4.321 6.379 7.113 11.142 7.113h13.461l10.112 37.092-34.345 11.414c-3.066 1.019-5.135 3.887-5.135 7.117v28.44l-20.508 10.585c-6.555-16.131-10.167-33.76-10.167-52.217 0-22.323 5.32-44.041 15.331-63.534z"/><path d="m139.487 136.886h4.348c4.143 0 7.5-3.357 7.5-7.5s-3.357-7.5-7.5-7.5h-4.348c-4.143 0-7.5 3.357-7.5 7.5s3.357 7.5 7.5 7.5z"/><path d="m336.775 85.751h-4.348c-4.143 0-7.5 3.357-7.5 7.5s3.357 7.5 7.5 7.5h4.348c4.143 0 7.5-3.357 7.5-7.5s-3.358-7.5-7.5-7.5z"/><path d="m258.174 42.663h-4.349c-4.143 0-7.5 3.357-7.5 7.5s3.357 7.5 7.5 7.5h4.349c4.143 0 7.5-3.357 7.5-7.5s-3.357-7.5-7.5-7.5z"/><path d="m316.582 233.349c4.143 0 7.5-3.357 7.5-7.5s-3.357-7.5-7.5-7.5h-4.348c-4.143 0-7.5 3.357-7.5 7.5s3.357 7.5 7.5 7.5z"/><path d="m180.234 216.18h4.348c4.143 0 7.5-3.357 7.5-7.5s-3.357-7.5-7.5-7.5h-4.348c-4.143 0-7.5 3.357-7.5 7.5s3.357 7.5 7.5 7.5z"/><path d="m139.629 352.089h-11.591c-4.143 0-7.5 3.357-7.5 7.5s3.357 7.5 7.5 7.5h11.591c4.143 0 7.5-3.357 7.5-7.5s-3.357-7.5-7.5-7.5z"/><path d="m166.35 367.089h217.611c4.143 0 7.5-3.357 7.5-7.5s-3.357-7.5-7.5-7.5h-217.611c-4.143 0-7.5 3.357-7.5 7.5s3.358 7.5 7.5 7.5z"/><path d="m139.629 380.494h-11.591c-4.143 0-7.5 3.357-7.5 7.5s3.357 7.5 7.5 7.5h11.591c4.143 0 7.5-3.357 7.5-7.5s-3.357-7.5-7.5-7.5z"/><path d="m166.35 395.494h217.611c4.143 0 7.5-3.357 7.5-7.5s-3.357-7.5-7.5-7.5h-217.611c-4.143 0-7.5 3.357-7.5 7.5s3.358 7.5 7.5 7.5z"/><path d="m139.629 408.898h-11.591c-4.143 0-7.5 3.357-7.5 7.5s3.357 7.5 7.5 7.5h11.591c4.143 0 7.5-3.357 7.5-7.5s-3.357-7.5-7.5-7.5z"/><path d="m166.35 423.898h217.611c4.143 0 7.5-3.357 7.5-7.5s-3.357-7.5-7.5-7.5h-217.611c-4.143 0-7.5 3.357-7.5 7.5s3.358 7.5 7.5 7.5z"/><path d="m139.629 437.303h-11.591c-4.143 0-7.5 3.357-7.5 7.5s3.357 7.5 7.5 7.5h11.591c4.143 0 7.5-3.357 7.5-7.5s-3.357-7.5-7.5-7.5z"/><path d="m166.35 452.303h217.611c4.143 0 7.5-3.357 7.5-7.5s-3.357-7.5-7.5-7.5h-217.611c-4.143 0-7.5 3.357-7.5 7.5s3.358 7.5 7.5 7.5z"/><path d="m139.629 465.708h-11.591c-4.143 0-7.5 3.357-7.5 7.5s3.357 7.5 7.5 7.5h11.591c4.143 0 7.5-3.357 7.5-7.5s-3.357-7.5-7.5-7.5z"/><path d="m166.35 480.708h217.611c4.143 0 7.5-3.357 7.5-7.5s-3.357-7.5-7.5-7.5h-217.611c-4.143 0-7.5 3.357-7.5 7.5s3.358 7.5 7.5 7.5z"/><path d="m414.753 320.798h-317.507c-8.932 0-16.197 7.266-16.197 16.197v158.807c0 8.932 7.266 16.198 16.197 16.198h40.104c4.143 0 7.5-3.357 7.5-7.5s-3.357-7.5-7.5-7.5h-40.104c-.66 0-1.197-.537-1.197-1.198v-158.807c0-.66.537-1.197 1.197-1.197h317.508c.661 0 1.198.537 1.198 1.197v158.807c0 .661-.537 1.198-1.198 1.198h-248.404c-4.143 0-7.5 3.357-7.5 7.5s3.357 7.5 7.5 7.5h248.403c8.932 0 16.198-7.267 16.198-16.198v-158.807c.001-8.932-7.266-16.197-16.198-16.197z"/></g></svg>