<svg id="Capa_1" enable-background="new 0 0 512 512" height="512" viewBox="0 0 512 512" width="512" xmlns="http://www.w3.org/2000/svg"><g><path d="m498.086 0h-79.474c-5.605 0-10.636 3.336-12.816 8.498l-25.554 60.474h-362.888c-9.569 0-17.354 7.785-17.354 17.354v408.319c0 9.57 7.785 17.355 17.354 17.355h477.291c9.569 0 17.354-7.785 17.354-17.354v-347.174c0-4.143-3.357-7.5-7.5-7.5s-7.5 3.357-7.5 7.5v347.174c0 1.298-1.057 2.354-2.354 2.354h-477.291c-1.298 0-2.354-1.057-2.354-2.354v-408.32c0-1.298 1.056-2.354 2.354-2.354h479.646v34.5c0 4.143 3.357 7.5 7.5 7.5s7.5-3.357 7.5-7.5v-104.558c0-7.672-6.242-13.914-13.914-13.914zm-101.561 68.972 22.807-53.972h77.668v53.972z"/><path d="m472.616 24.227c-2.93-2.928-7.678-2.928-10.607 0l-7.152 7.152-7.152-7.152c-2.93-2.928-7.678-2.928-10.607 0-2.929 2.93-2.929 7.678 0 10.607l7.152 7.152-7.152 7.152c-2.929 2.93-2.929 7.678 0 10.607 1.465 1.464 3.385 2.196 5.304 2.196s3.839-.732 5.304-2.196l7.152-7.152 7.152 7.152c1.465 1.464 3.385 2.196 5.304 2.196s3.839-.732 5.304-2.196c2.929-2.93 2.929-7.678 0-10.607l-7.152-7.152 7.152-7.152c2.927-2.93 2.927-7.678-.002-10.607z"/><path d="m109.569 210.694c1.084 0 2.168-.235 3.174-.705 36.255-16.934 41.668-36.164 41.668-46.119 0-15.231-11.496-27.162-26.171-27.162-8.076 0-14.295 3.237-18.671 7.125-4.375-3.888-10.595-7.125-18.671-7.125-14.675 0-26.171 11.931-26.171 27.162 0 9.955 5.413 29.186 41.668 46.119 1.006.47 2.09.705 3.174.705zm-29.842-46.824c0-5.896 3.915-12.162 11.171-12.162 7.971 0 11.495 6.59 11.898 7.401 1.242 2.612 3.857 4.318 6.753 4.318 2.921 0 5.558-1.656 6.786-4.307.375-.759 3.894-7.413 11.904-7.413 7.256 0 11.171 6.267 11.171 12.162 0 10.312-10.825 21.509-29.842 30.997-19.016-9.487-29.841-20.684-29.841-30.996z"/><path d="m76.036 328.888.082 11.471c.026 3.504 1.733 6.825 4.568 8.885 2.834 2.059 6.521 2.655 9.862 1.599l10.934-3.467 10.935 3.467c1.088.345 2.213.514 3.333.514 2.319 0 4.617-.724 6.529-2.112 2.834-2.061 4.542-5.382 4.567-8.886l.083-11.47 6.675-9.327c2.04-2.851 2.61-6.542 1.527-9.875s-3.715-5.982-7.038-7.088l-10.883-3.623-6.809-9.231c-2.08-2.819-5.413-4.503-8.917-4.503 0 0 0 0-.001 0-3.503 0-6.837 1.683-8.918 4.503l-6.809 9.231-10.88 3.622c-3.325 1.105-5.958 3.756-7.041 7.088-1.083 3.334-.513 7.025 1.527 9.875zm15.636-16.074c2.181-.726 4.055-2.088 5.418-3.937l4.392-5.955 4.392 5.954c1.364 1.849 3.237 3.211 5.418 3.938l7.021 2.337-4.307 6.018c-1.338 1.87-2.054 4.074-2.069 6.369l-.053 7.399-7.049-2.235c-2.193-.695-4.512-.696-6.701-.001l-7.054 2.236-.053-7.4c-.017-2.3-.733-4.503-2.07-6.368l-4.306-6.018z"/><path d="m212.033 133.642h104.262c4.143 0 7.5-3.357 7.5-7.5s-3.357-7.5-7.5-7.5h-104.262c-4.142 0-7.5 3.357-7.5 7.5s3.358 7.5 7.5 7.5z"/><path d="m212.033 165.349h245.84c4.143 0 7.5-3.357 7.5-7.5s-3.357-7.5-7.5-7.5h-245.84c-4.142 0-7.5 3.357-7.5 7.5s3.358 7.5 7.5 7.5z"/><path d="m212.033 197.055h245.84c4.143 0 7.5-3.357 7.5-7.5s-3.357-7.5-7.5-7.5h-245.84c-4.142 0-7.5 3.357-7.5 7.5s3.358 7.5 7.5 7.5z"/><path d="m212.033 228.761h245.84c4.143 0 7.5-3.357 7.5-7.5s-3.357-7.5-7.5-7.5h-245.84c-4.142 0-7.5 3.357-7.5 7.5s3.358 7.5 7.5 7.5z"/><path d="m205.941 352.151c15.378 0 28.788-10.92 31.885-25.966.519-2.522-.292-5.135-2.149-6.919s-4.497-2.489-6.999-1.873c-1.199.297-2.433.447-3.666.447-8.38 0-15.199-6.818-15.199-15.198 0-1.841.327-3.644.973-5.356.909-2.41.516-5.118-1.039-7.172s-4.06-3.166-6.622-2.945c-16.676 1.435-29.739 15.679-29.739 32.428 0 17.951 14.604 32.554 32.555 32.554zm-10.951-46.233c1.394 12.862 10.898 23.328 23.278 26.164-3.205 3.152-7.592 5.069-12.327 5.069-9.68 0-17.555-7.875-17.555-17.555 0-5.464 2.577-10.434 6.604-13.678z"/><path d="m337.342 308.719-18.257-18.257c-5.474-5.471-14.38-5.475-19.854 0l-18.259 18.257c-5.474 5.475-5.474 14.381.001 19.855l18.258 18.257h-.001c2.737 2.736 6.332 4.105 9.928 4.104 3.594 0 7.189-1.368 9.926-4.104l18.259-18.257c5.473-5.474 5.473-14.381-.001-19.855zm-27.505 27.505-.004-.004zm-.68-.68-16.898-16.897 16.899-16.897 16.898 16.897z"/><path d="m412.397 348.16c15.79 0 28.637-12.847 28.637-28.638s-12.847-28.638-28.637-28.638c-15.791 0-28.638 12.847-28.638 28.638s12.847 28.638 28.638 28.638zm0-42.275c7.52 0 13.637 6.118 13.637 13.638s-6.117 13.638-13.637 13.638-13.638-6.118-13.638-13.638 6.119-13.638 13.638-13.638z"/><path d="m323.658 455.165c-4.143 0-7.5 3.357-7.5 7.5s3.357 7.5 7.5 7.5h136.059c6.538 0 11.856-5.319 11.856-11.857v-91.203c0-.026.001-.052.001-.078s-.001-.052-.001-.078v-91.203c0-6.538-5.318-11.857-11.856-11.857h-407.434c-6.538 0-11.857 5.319-11.857 11.857v182.561c0 6.538 5.319 11.857 11.857 11.857h242.375c4.143 0 7.5-3.357 7.5-7.5s-3.357-7.5-7.5-7.5h-31.157v-80.638h89.036v80.638h-28.879zm132.915-95.638h-89.036v-80.637h89.036zm-208.073-80.637v80.638h-89.037v-80.638zm-104.036 0v80.638h-89.037v-80.638zm-89.037 95.637h89.037v80.638h-89.037zm193.073 80.638h-89.037v-80.638h89.037zm15.001-95.638v-80.637h89.036v80.638h-89.036zm104.036 15h89.036v80.638h-89.036z"/><path d="m45.47 180.701c-4.142 0-7.5 3.357-7.5 7.5v35.677c0 8.156 6.635 14.792 14.792 14.792h113.615c8.156 0 14.792-6.636 14.792-14.792v-100.353c0-8.156-6.635-14.792-14.792-14.792h-113.616c-8.156 0-14.792 6.636-14.792 14.792v35.676c0 4.143 3.358 7.5 7.5 7.5s7.5-3.357 7.5-7.5v-35.468h113.198v99.937h-113.197v-35.469c0-4.142-3.358-7.5-7.5-7.5z"/></g></svg>