<svg id="Capa_1" enable-background="new 0 0 511.999 511.999" height="512" viewBox="0 0 511.999 511.999" width="512" xmlns="http://www.w3.org/2000/svg"><g><path d="m215.452 271.419c0-4.143-3.357-7.5-7.5-7.5s-7.5 3.357-7.5 7.5v5.284c0 4.143 3.357 7.5 7.5 7.5s7.5-3.357 7.5-7.5z"/><path d="m237.459 296.425c1.919 0 3.839-.732 5.304-2.196l3.736-3.736c2.929-2.93 2.929-7.678 0-10.607-2.93-2.928-7.678-2.928-10.607 0l-3.736 3.736c-2.929 2.93-2.929 7.678 0 10.607 1.464 1.463 3.384 2.196 5.303 2.196z"/><path d="m262.465 318.432c0-4.143-3.357-7.5-7.5-7.5h-5.284c-4.143 0-7.5 3.357-7.5 7.5s3.357 7.5 7.5 7.5h5.284c4.142 0 7.5-3.358 7.5-7.5z"/><path d="m242.763 342.635c-2.93-2.928-7.678-2.928-10.607 0-2.929 2.93-2.929 7.678 0 10.607l3.736 3.736c1.465 1.464 3.385 2.196 5.304 2.196s3.839-.732 5.304-2.196c2.929-2.93 2.929-7.678 0-10.607z"/><path d="m207.952 352.66c-4.143 0-7.5 3.357-7.5 7.5v5.284c0 4.143 3.357 7.5 7.5 7.5s7.5-3.357 7.5-7.5v-5.284c0-4.142-3.357-7.5-7.5-7.5z"/><path d="m174.709 359.175c1.919 0 3.839-.732 5.304-2.196l3.736-3.736c2.929-2.93 2.929-7.678 0-10.607-2.93-2.928-7.678-2.928-10.607 0l-3.736 3.736c-2.929 2.93-2.929 7.678 0 10.607 1.464 1.463 3.384 2.196 5.303 2.196z"/><path d="m173.724 318.432c0-4.143-3.357-7.5-7.5-7.5h-5.284c-4.143 0-7.5 3.357-7.5 7.5s3.357 7.5 7.5 7.5h5.284c4.142 0 7.5-3.358 7.5-7.5z"/><path d="m183.749 283.621-3.736-3.736c-2.93-2.928-7.678-2.928-10.607 0-2.929 2.93-2.929 7.678 0 10.607l3.736 3.736c1.465 1.464 3.385 2.196 5.304 2.196s3.839-.732 5.304-2.196c2.928-2.929 2.928-7.677-.001-10.607z"/><path d="m319.974 382.413c0-14.979-12.187-27.166-27.166-27.166s-27.166 12.187-27.166 27.166 12.187 27.166 27.166 27.166 27.166-12.186 27.166-27.166zm-39.332 0c0-6.708 5.458-12.166 12.166-12.166s12.166 5.458 12.166 12.166-5.458 12.166-12.166 12.166-12.166-5.458-12.166-12.166z"/><path d="m123.098 409.579c14.979 0 27.166-12.187 27.166-27.166s-12.187-27.166-27.166-27.166-27.166 12.187-27.166 27.166 12.186 27.166 27.166 27.166zm0-39.332c6.708 0 12.166 5.458 12.166 12.166s-5.458 12.166-12.166 12.166-12.166-5.458-12.166-12.166 5.458-12.166 12.166-12.166z"/><path d="m494.726 112.449c-2.421-3.361-7.107-4.122-10.469-1.701s-4.123 7.108-1.701 10.469c9.449 13.117 14.443 28.603 14.443 44.782 0 42.311-34.422 76.733-76.732 76.733s-76.732-34.423-76.732-76.733 34.422-76.732 76.732-76.732c15.452 0 30.351 4.576 43.084 13.233 3.424 2.328 8.09 1.441 10.419-1.985s1.44-8.09-1.985-10.419c-15.23-10.355-33.045-15.829-51.518-15.829-50.581 0-91.732 41.151-91.732 91.732 0 11.677 2.193 22.851 6.189 33.132h-316.808c-9.879 0-17.916 8.037-17.916 17.917v202.768c0 9.88 8.037 17.917 17.916 17.917h217.265c4.143 0 7.5-3.357 7.5-7.5s-3.357-7.5-7.5-7.5h-217.265c-1.607 0-2.916-1.309-2.916-2.917v-48.193l21.336-10.833c5.147-2.613 8.345-7.822 8.345-13.597v-57.521c0-5.772-3.197-10.982-8.345-13.597l-21.336-10.834v-48.193c0-1.608 1.309-2.917 2.916-2.917h324.286c12.918 20.876 33.973 36.211 58.703 41.545v164.139c0 1.608-1.309 2.917-2.917 2.917h-133.807c-4.143 0-7.5 3.357-7.5 7.5s3.357 7.5 7.5 7.5h133.808c9.88 0 17.917-8.037 17.917-17.917v-162.185c1.445.068 2.899.103 4.361.103 50.581 0 91.732-41.151 91.732-91.733 0-19.348-5.973-37.865-17.273-53.551zm-465.182 176.999c.084.043.137.128.137.223v57.521c0 .095-.052.179-.135.222h-.001l-14.545 7.385v-72.735z"/><path d="m460.49 137.451c1.574 0 3.162-.493 4.516-1.516 3.305-2.497 3.96-7.2 1.463-10.506-11.054-14.629-27.894-23.02-46.202-23.02s-35.148 8.391-46.202 23.02c-2.497 3.306-1.842 8.009 1.463 10.506 3.307 2.498 8.01 1.84 10.506-1.463 8.192-10.844 20.67-17.062 34.233-17.062s26.041 6.219 34.233 17.062c1.475 1.952 3.719 2.979 5.99 2.979z"/><path d="m451.526 152.714c3.422-2.334 4.304-7 1.969-10.422-7.506-11.002-19.928-17.57-33.229-17.57s-25.724 6.568-33.229 17.571c-2.335 3.422-1.453 8.088 1.969 10.422 1.294.883 2.764 1.306 4.22 1.306 2.396 0 4.751-1.146 6.202-3.274 4.709-6.903 12.499-11.024 20.838-11.024s16.128 4.121 20.838 11.023c2.334 3.42 6.999 4.303 10.422 1.968z"/><path d="m438.248 169.075c3.716-1.831 5.243-6.328 3.412-10.043-4.048-8.212-12.245-13.313-21.394-13.313s-17.347 5.102-21.394 13.314c-1.831 3.716-.303 8.212 3.412 10.043 1.066.525 2.196.774 3.31.774 2.767 0 5.428-1.537 6.733-4.187 1.503-3.051 4.545-4.945 7.938-4.945s6.436 1.895 7.938 4.944c1.833 3.716 6.332 5.244 10.045 3.413z"/><path d="m427.767 175.584c0-4.143-3.357-7.5-7.5-7.5s-7.5 3.357-7.5 7.5v23.055c0 4.143 3.357 7.5 7.5 7.5s7.5-3.357 7.5-7.5z"/><path d="m420.267 208.313c-4.143 0-7.5 3.357-7.5 7.5v6.274c0 4.143 3.357 7.5 7.5 7.5s7.5-3.357 7.5-7.5v-6.274c0-4.142-3.358-7.5-7.5-7.5z"/><path d="m79.432 240.117c4.143 0 7.5-3.357 7.5-7.5s-3.357-7.5-7.5-7.5h-13.192c-7.05 0-12.785 5.735-12.785 12.784v24.661c0 7.049 5.735 12.784 12.785 12.784h59.009c7.049 0 12.784-5.735 12.784-12.784v-24.661c0-7.049-5.735-12.784-12.784-12.784h-16.817c-4.143 0-7.5 3.357-7.5 7.5s3.357 7.5 7.5 7.5h14.602v20.23h-54.579v-20.23z"/></g></svg>