<svg id="Capa_1" enable-background="new 0 0 512 512" height="512" viewBox="0 0 512 512" width="512" xmlns="http://www.w3.org/2000/svg"><g><path d="m94.859 240.162c0-14.26-11.602-25.86-25.861-25.86s-25.86 11.601-25.86 25.86 11.601 25.861 25.86 25.861 25.861-11.601 25.861-25.861zm-25.861 10.862c-5.988 0-10.86-4.872-10.86-10.861 0-5.988 4.872-10.86 10.86-10.86 5.989 0 10.861 4.872 10.861 10.86s-4.872 10.861-10.861 10.861z"/><path d="m109.387 299.717c-14.26 0-25.86 11.601-25.86 25.86s11.601 25.861 25.86 25.861 25.861-11.602 25.861-25.861-11.602-25.86-25.861-25.86zm0 36.722c-5.988 0-10.86-4.872-10.86-10.861 0-5.988 4.872-10.86 10.86-10.86 5.989 0 10.861 4.872 10.861 10.86s-4.872 10.861-10.861 10.861z"/><path d="m227.181 113.102c0 14.26 11.601 25.86 25.86 25.86s25.861-11.601 25.861-25.86-11.602-25.86-25.861-25.86-25.86 11.6-25.86 25.86zm36.721 0c0 5.988-4.872 10.86-10.861 10.86-5.988 0-10.86-4.872-10.86-10.86s4.872-10.86 10.86-10.86c5.989-.001 10.861 4.871 10.861 10.86z"/><path d="m335.558 155.825c-14.26 0-25.86 11.601-25.86 25.86s11.601 25.86 25.86 25.86c14.26 0 25.86-11.601 25.86-25.86s-11.601-25.86-25.86-25.86zm0 36.721c-5.988 0-10.86-4.872-10.86-10.86s4.872-10.86 10.86-10.86 10.86 4.872 10.86 10.86-4.872 10.86-10.86 10.86z"/><path d="m509.325 295.044c-2.377-1.998-5.736-2.325-8.452-.823l-15.188 8.39 6.045-16.063c.998-2.651.416-5.639-1.503-7.723-1.918-2.082-4.846-2.909-7.573-2.132l-17.923 5.11 3.345-8.142c1.229-2.993.401-6.438-2.056-8.544-2.457-2.107-5.988-2.4-8.757-.728l-29.31 17.69c1.041-8.613 1.571-17.366 1.571-26.08 0-57.365-22.339-111.297-62.902-151.86s-94.495-62.902-151.86-62.902c-47.848 0-96.654 16.209-136.273 48.771-3.2 2.63-3.662 7.356-1.032 10.556s7.355 3.661 10.556 1.032c9.371-7.702 19.396-14.492 29.923-20.318l15.17 42.425c1.819 5.086 6.464 8.764 11.834 9.369l15.318 1.723 8.667 33.576c1.625 6.299 7.304 10.698 13.808 10.698h32.73l21.615 47.104c2.617 5.702 8.789 9.06 14.993 8.167l44.004-6.336 26.074 24.336c2.654 2.478 6.171 3.833 9.756 3.833.832 0 1.668-.073 2.498-.222l19.005-3.416c4.076-.733 6.787-4.632 6.055-8.709-.733-4.076-4.631-6.784-8.709-6.055l-18.64 3.351-26.062-24.325c-3.176-2.964-7.468-4.306-11.763-3.69l-43.809 6.308-21.583-47.035c-2.318-5.048-7.406-8.311-12.962-8.311h-32.63l-8.65-33.515c-1.468-5.689-6.377-9.952-12.216-10.609l-15.365-1.728-15.644-43.753c25.976-11.908 54.432-18.227 83.333-18.227 100.197 0 183.401 74.151 197.619 170.46l-32.842 5.903c-4.076.733-6.787 4.632-6.055 8.709.727 4.043 4.592 6.789 8.709 6.055l31.821-5.72c.338 4.742.511 9.529.511 14.355 0 3.485-.09 6.972-.27 10.452l-46.05 13.791-41.671-8.588c-3.881-.8-7.961.064-11.188 2.377l-20.577 14.752h-3.78l-40.416-24.394c-2.771-1.673-6.302-1.381-8.758.728-2.457 2.106-3.285 5.551-2.056 8.544l3.346 8.142-17.924-5.11c-2.729-.777-5.655.048-7.573 2.132-1.919 2.084-2.501 5.071-1.503 7.723l6.045 16.063-15.188-8.39c-2.716-1.502-6.077-1.175-8.452.823-2.376 1.996-3.276 5.25-2.266 8.184l11.573 33.597-10.588 39.779c-.582 2.181-.637 4.5-.155 6.709l15.778 72.44c-10.959-.104-21.71-1.093-32.184-2.901l-21.81-87.933 16.349-39.756c1.008-2.448 1.313-5.124.884-7.739l-5.846-35.549c-.974-5.915-5.588-10.621-11.485-11.71l-17.712-3.266-21.391-78.465c-1.688-6.187-7.347-10.508-13.759-10.508h-21.489l-9.187-19.791c-2.162-4.658-6.686-7.806-11.805-8.213l-17.088-1.359c6.253-9.783 13.393-19.072 21.375-27.75 2.804-3.049 2.605-7.793-.443-10.598-3.048-2.803-7.791-2.604-10.598.443-36.54 39.73-56.664 91.346-56.664 145.342 0 57.365 22.339 111.297 62.902 151.86s94.495 62.902 151.86 62.902c36.702 0 72.833-9.396 104.675-27.194l30.072 21.849c1.314.955 2.861 1.433 4.408 1.433s3.094-.478 4.408-1.433l28.144-20.447c3.352-2.435 4.094-7.125 1.659-10.476-2.435-3.352-7.124-4.095-10.476-1.659l-23.735 17.244-62.377-45.32 22.191-39.922h80.371l22.192 39.922-15.101 10.972c-3.352 2.435-4.094 7.125-1.659 10.476 2.435 3.353 7.126 4.097 10.476 1.659l20.476-14.876c1.072-.778 1.881-1.794 2.403-2.927l34.726 3.246c3.511.321 6.681-1.808 7.789-5.025l36.186-105.057c1.012-2.933.111-6.187-2.265-8.183zm-185.502-8.633 41.531 8.559c2.307.477 4.719.372 6.974-.305l40.447-12.112c-.427 3.219-.931 6.421-1.512 9.602l-38.878 23.465c-2.25 1.357-3.625 3.793-3.625 6.421v27.798h-29.683v-27.799c0-2.628-1.375-5.063-3.625-6.421l-28.433-17.161zm-308.823-30.411c0-32.781 7.975-64.619 22.964-93.054l23.835 1.896 9.203 19.825c2.327 5.018 7.404 8.26 12.936 8.26h21.396l21.364 78.365c1.433 5.255 5.818 9.288 11.172 10.274l17.658 3.256 5.728 34.827-16.361 39.786c-1.164 2.828-1.39 5.893-.653 8.859l20.096 81.021c-85.818-22.399-149.338-100.579-149.338-193.315zm290.959 177.776c-24.133 12.388-50.674 19.726-77.85 21.541l-16.34-75.02 4.805-18.051 15.858 46.038c1.107 3.213 4.274 5.346 7.789 5.025l34.726-3.246c.522 1.133 1.331 2.148 2.403 2.927zm3.361-83.938c-2.723 0-5.232 1.476-6.556 3.856l-22.693 40.824-35.379 3.308-27.916-81.048 13.515 7.466 17.168 45.619c1.132 3.007 3.987 4.86 7.021 4.86.878 0 1.771-.155 2.641-.482 3.877-1.459 5.837-5.784 4.378-9.661l-26.11-69.379 14.975 4.27 13.549 32.975c1.574 3.83 5.956 5.66 9.788 4.087 3.831-1.574 5.661-5.957 4.087-9.788-3.288-8.001-9.967-24.257-15.522-37.777l61.811 37.306v23.564zm153.824 47.988-35.379-3.308-22.693-40.824c-1.323-2.381-3.833-3.856-6.556-3.856h-14.756v-23.564l61.811-37.306c-5.537 13.475-12.204 29.7-15.522 37.777-1.574 3.831.256 8.214 4.087 9.788 3.832 1.574 8.214-.256 9.788-4.087l13.549-32.975 14.974-4.269-26.109 69.378c-1.459 3.877.501 8.202 4.378 9.661.87.327 1.763.482 2.641.482 3.033 0 5.889-1.854 7.021-4.86l17.168-45.618 13.515-7.466z"/><path d="m382.565 381.795c0-4.143-3.357-7.5-7.5-7.5h-42.294c-4.143 0-7.5 3.357-7.5 7.5s3.357 7.5 7.5 7.5h42.294c4.143 0 7.5-3.357 7.5-7.5z"/><path d="m345.994 398.74c-4.143 0-7.5 3.357-7.5 7.5s3.357 7.5 7.5 7.5h15.849c4.143 0 7.5-3.357 7.5-7.5s-3.357-7.5-7.5-7.5z"/></g></svg>