<svg id="Capa_1" enable-background="new 0 0 512 512" height="512" viewBox="0 0 512 512" width="512" xmlns="http://www.w3.org/2000/svg"><g><path d="m431.623 147.143c-4.143 0-7.5 3.357-7.5 7.5v342.357h-250.105c-4.143 0-7.5 3.357-7.5 7.5s3.357 7.5 7.5 7.5h250.519c8.043 0 14.586-6.543 14.586-14.586v-342.771c0-4.143-3.358-7.5-7.5-7.5z"/><path d="m424.537 46.701h-110.011c-6.072-26.707-30.008-46.701-58.526-46.701-9.055 0-17.763 1.971-25.88 5.857-3.736 1.789-5.315 6.268-3.526 10.003 1.789 3.736 6.271 5.313 10.003 3.526 6.079-2.91 12.608-4.386 19.403-4.386 24.821 0 45.015 20.193 45.015 45.014s-20.194 45.013-45.015 45.013c-24.82 0-45.014-20.193-45.014-45.014 0-8.471 2.376-16.732 6.87-23.893 2.203-3.508 1.145-8.137-2.364-10.339-3.508-2.203-8.137-1.146-10.339 2.364-3.604 5.741-6.187 12.012-7.674 18.555h-110.016c-8.043 0-14.586 6.543-14.586 14.586v436.127c0 8.043 6.543 14.586 14.586 14.586h57.555c4.143 0 7.5-3.357 7.5-7.5s-3.357-7.5-7.5-7.5h-57.141v-435.298h108.133c.897 32.315 27.463 58.326 59.99 58.326s59.094-26.011 59.991-58.326h108.132v63.941c0 4.143 3.357 7.5 7.5 7.5s7.5-3.357 7.5-7.5v-64.355c0-8.043-6.543-14.586-14.586-14.586z"/><path d="m194.625 134.571-10.884-3.623-6.808-9.23c-2.08-2.82-5.414-4.504-8.918-4.504-3.505 0-6.839 1.684-8.919 4.504l-6.808 9.23-10.884 3.623c-3.324 1.107-5.956 3.758-7.039 7.09-1.082 3.332-.512 7.023 1.528 9.873l6.675 9.327.082 11.471c.025 3.504 1.733 6.826 4.568 8.886 2.876 2.088 6.569 2.641 9.861 1.598l10.935-3.467 10.934 3.467c3.341 1.058 7.026.461 9.861-1.598 2.835-2.06 4.543-5.382 4.568-8.887l.082-11.47 6.675-9.327c2.04-2.85 2.61-6.541 1.528-9.873-1.081-3.332-3.713-5.982-7.037-7.09zm-14.089 18.576c-1.334 1.866-2.048 4.065-2.066 6.364l-.053 7.399-7.058-2.238c-1.094-.346-2.218-.519-3.343-.519-1.126 0-2.254.174-3.351.521l-7.053 2.236-.053-7.405c-.019-2.293-.732-4.492-2.07-6.364l-4.306-6.017 7.021-2.337c2.178-.726 4.051-2.085 5.418-3.936l4.392-5.955 4.396 5.958c1.364 1.848 3.237 3.207 5.415 3.933l7.021 2.337z"/><path d="m298.791 221.5h-89.009c-24.725 0-44.839 20.114-44.839 44.839s20.114 44.84 44.839 44.84h79.76c17.354 0 31.472 14.118 31.472 31.473 0 17.354-14.118 31.472-31.472 31.472h-7.301c-19.879 0-36.051 16.172-36.051 36.051v4.386c0 4.143 3.357 7.5 7.5 7.5s7.5-3.357 7.5-7.5v-4.386c0-11.607 9.443-21.051 21.051-21.051h7.301c25.625 0 46.472-20.848 46.472-46.473s-20.847-46.472-46.472-46.472h-79.76c-16.453 0-29.839-13.386-29.839-29.84 0-16.453 13.386-29.839 29.839-29.839h89.009c24.067 0 43.647-19.58 43.647-43.647s-19.58-43.647-43.647-43.647h-78.788c-4.143 0-7.5 3.357-7.5 7.5s3.357 7.5 7.5 7.5h78.788c15.796 0 28.647 12.852 28.647 28.647s-12.852 28.647-28.647 28.647z"/><path d="m379.706 170.971c-13.788 0-25.005 11.217-25.005 25.005s11.217 25.005 25.005 25.005c13.787 0 25.004-11.217 25.004-25.005s-11.217-25.005-25.004-25.005zm0 35.009c-5.517 0-10.005-4.488-10.005-10.005s4.488-10.005 10.005-10.005 10.004 4.488 10.004 10.005-4.488 10.005-10.004 10.005z"/><path d="m103.692 271.122c0 13.787 11.217 25.004 25.004 25.004 13.788 0 25.005-11.217 25.005-25.004 0-13.788-11.217-25.005-25.005-25.005-13.787 0-25.004 11.217-25.004 25.005zm35.009 0c0 5.517-4.488 10.004-10.005 10.004s-10.004-4.487-10.004-10.004 4.487-10.005 10.004-10.005 10.005 4.488 10.005 10.005z"/><path d="m410.875 344.223c0-13.788-11.217-25.005-25.004-25.005-13.788 0-25.005 11.217-25.005 25.005s11.217 25.005 25.005 25.005c13.787 0 25.004-11.217 25.004-25.005zm-35.009 0c0-5.517 4.488-10.005 10.005-10.005s10.004 4.488 10.004 10.005-4.487 10.005-10.004 10.005-10.005-4.489-10.005-10.005z"/><path d="m230.996 455.485c0 13.788 11.217 25.005 25.004 25.005 13.788 0 25.005-11.217 25.005-25.005 0-13.787-11.217-25.004-25.005-25.004s-25.004 11.217-25.004 25.004zm35.008 0c0 5.517-4.488 10.005-10.005 10.005s-10.004-4.488-10.004-10.005 4.487-10.004 10.004-10.004 10.005 4.488 10.005 10.004z"/><path d="m246.22 86.135c2.218 3.216 5.875 5.135 9.781 5.135 3.906-.001 7.562-1.921 9.778-5.136l13.359-19.376c2.784-4.034 2.784-9.455.001-13.488l-13.36-19.375c-2.217-3.216-5.872-5.136-9.778-5.137-.001 0-.001 0-.002 0-3.905 0-7.562 1.92-9.779 5.136l-13.362 19.377c-2.78 4.033-2.78 9.452 0 13.486l13.362 19.378c0-.001 0-.001 0 0zm9.78-40.001 9.57 13.88-9.57 13.879-9.57-13.879z"/><path d="m319.841 248.403c0 4.143 3.357 7.5 7.5 7.5h38.643c4.143 0 7.5-3.357 7.5-7.5s-3.357-7.5-7.5-7.5h-38.643c-4.142 0-7.5 3.358-7.5 7.5z"/><path d="m373.484 271.122c0-4.143-3.357-7.5-7.5-7.5h-38.643c-4.143 0-7.5 3.357-7.5 7.5s3.357 7.5 7.5 7.5h38.643c4.142 0 7.5-3.357 7.5-7.5z"/><path d="m137.763 321.801c-4.143 0-7.5 3.357-7.5 7.5s3.357 7.5 7.5 7.5h38.643c4.143 0 7.5-3.357 7.5-7.5s-3.357-7.5-7.5-7.5z"/><path d="m137.763 359.52h38.643c4.143 0 7.5-3.357 7.5-7.5s-3.357-7.5-7.5-7.5h-38.643c-4.143 0-7.5 3.357-7.5 7.5s3.358 7.5 7.5 7.5z"/><path d="m373.58 392.7h-38.642c-4.143 0-7.5 3.357-7.5 7.5s3.357 7.5 7.5 7.5h38.642c4.143 0 7.5-3.357 7.5-7.5s-3.358-7.5-7.5-7.5z"/><path d="m373.58 415.418h-38.642c-4.143 0-7.5 3.357-7.5 7.5s3.357 7.5 7.5 7.5h38.642c4.143 0 7.5-3.357 7.5-7.5s-3.358-7.5-7.5-7.5z"/></g></svg>