<svg id="Capa_1" enable-background="new 0 0 512 512" height="512" viewBox="0 0 512 512" width="512" xmlns="http://www.w3.org/2000/svg"><g><path d="m244.434 63.868c3.884-1.439 5.866-5.754 4.428-9.638l-2.42-6.532c-1.439-3.884-5.757-5.868-9.639-4.427-3.884 1.439-5.866 5.754-4.428 9.638l2.42 6.532c1.439 3.88 5.754 5.868 9.639 4.427z"/><path d="m277.203 59.441 2.421-6.532c1.439-3.884-.542-8.199-4.426-9.639-3.882-1.437-8.198.542-9.639 4.426l-2.421 6.532c-1.439 3.884.542 8.199 4.426 9.639 3.867 1.433 8.193-.525 9.639-4.426z"/><path d="m238.217 106.17h35.567c4.143 0 7.5-3.358 7.5-7.5s-3.357-7.5-7.5-7.5h-35.567c-4.143 0-7.5 3.358-7.5 7.5s3.357 7.5 7.5 7.5z"/><path d="m238.217 129.95h35.567c4.143 0 7.5-3.358 7.5-7.5s-3.357-7.5-7.5-7.5h-35.567c-4.143 0-7.5 3.358-7.5 7.5s3.357 7.5 7.5 7.5z"/><path d="m435.163 179.023h-37.651c-6.503 0-11.794 5.291-11.794 11.793v13.428c0 6.503 5.291 11.793 11.794 11.793h11.624v23.984c0 5.253-4.274 9.527-9.527 9.527h-7.145c4.846-9.244 4.124-20.493-1.977-29.065-8.025-11.272-23.321-14.935-35.583-8.52l-6.028 3.155v-14.132c0-11.044-2.921-21.935-8.447-31.492l-9.456-16.362c-8.999-15.571-8.572-34.656 1.115-49.807l7.477-11.691c6.535-10.223 6.433-23.365-.264-33.483-4.689-7.086-12.186-11.949-20.565-13.343l-8.656-1.44c-4.521-.752-8.477-3.432-10.853-7.351l-12.866-21.227c-5.528-9.123-15.59-14.79-26.258-14.79h-8.206c-10.668 0-20.729 5.667-26.258 14.79l-12.865 21.227c-2.375 3.919-6.331 6.599-10.853 7.351l-8.655 1.44c-8.382 1.394-15.878 6.258-20.566 13.344-6.695 10.118-6.798 23.26-.263 33.483l7.476 11.693c.986 1.542 1.91 3.197 2.746 4.92 1.808 3.727 6.291 5.283 10.021 3.476 3.727-1.807 5.283-6.294 3.476-10.021-1.091-2.25-2.304-4.423-3.604-6.457l-7.475-11.691c-3.344-5.229-3.291-11.951.134-17.125 2.397-3.624 6.231-6.111 10.519-6.824l8.656-1.44c8.84-1.471 16.573-6.71 21.218-14.374l12.865-21.227c2.827-4.666 7.974-7.564 13.43-7.564h8.206c5.456 0 10.603 2.898 13.43 7.564l12.864 21.227c4.646 7.663 12.379 12.902 21.218 14.373l8.657 1.44c4.286.713 8.12 3.2 10.519 6.824 3.425 5.175 3.478 11.897.135 17.125l-7.476 11.691c-12.72 19.892-13.281 44.95-1.465 65.393l9.456 16.363c4.209 7.28 6.434 15.574 6.434 23.985v39.846c0 6.435-2.801 12.562-7.589 16.795h-24.787v-26.838c0-4.142-3.357-7.5-7.5-7.5s-7.5 3.358-7.5 7.5v26.838h-60.997v-70.556c0-13.63 11.089-24.72 24.72-24.72h11.557c13.631 0 24.721 11.089 24.721 24.72v14.718c0 4.142 3.357 7.5 7.5 7.5s7.5-3.358 7.5-7.5v-14.718c0-21.901-17.818-39.72-39.721-39.72h-11.557c-21.901 0-39.72 17.818-39.72 39.72v70.556h-24.787c-4.788-4.233-7.589-10.36-7.589-16.795v-39.846c0-8.41 2.225-16.704 6.433-23.986l9.457-16.362c4.655-8.055 7.507-17.212 8.247-26.483.329-4.129-2.751-7.744-6.88-8.073-4.14-.327-7.744 2.75-8.073 6.879-.571 7.162-2.685 13.948-6.28 20.171l-9.457 16.362c-5.525 9.561-8.446 20.451-8.446 31.492v14.133l-6.029-3.155c-12.263-6.416-27.558-2.751-35.582 8.521-6.101 8.571-6.823 19.82-1.978 29.064h-7.145c-5.253 0-9.527-4.274-9.527-9.527v-23.984h11.625c6.503 0 11.793-5.291 11.793-11.793v-13.428c0-6.503-5.29-11.793-11.793-11.793h-37.655c-6.503 0-11.794 5.291-11.794 11.793v13.428c0 6.503 5.291 11.793 11.794 11.793h11.026v23.984c0 13.524 11.003 24.527 24.527 24.527h16.034l19.464 32.665c.354 13.434 11.392 24.252 24.909 24.252h43.563v10.248c0 7.802 6.347 14.148 14.148 14.148h1.688v23.874c0 4.143 3.357 7.5 7.5 7.5s7.5-3.357 7.5-7.5v-23.874h17.604v76.749h-17.604c0-4.501 0-17.152 0-23.875 0-4.143-3.357-7.5-7.5-7.5s-7.5 3.357-7.5 7.5v16.864l-86.95 27.234c-3.129.98-5.259 3.879-5.259 7.157v11.565c-10.568 3.22-18.279 13.059-18.279 24.665 0 14.215 11.564 25.779 25.779 25.779 14.214 0 25.778-11.564 25.778-25.779 0-11.606-7.711-21.446-18.278-24.665v-6.056l77.301-24.211c.565 3.583 3.666 6.323 7.408 6.323h8.802v23.944c-10.567 3.22-18.278 13.059-18.278 24.665 0 14.215 11.565 25.779 25.779 25.779 14.215 0 25.779-11.564 25.779-25.779 0-11.606-7.711-21.446-18.279-24.665v-23.944h8.803c3.742 0 6.843-2.74 7.408-6.323l77.301 24.211v6.055c-10.567 3.22-18.278 13.059-18.278 24.665 0 14.215 11.564 25.779 25.778 25.779 14.215 0 25.779-11.564 25.779-25.779 0-11.606-7.711-21.446-18.279-24.665v-11.565c0-3.278-2.13-6.177-5.259-7.157l-86.95-27.234v-69.737h1.688c7.802 0 14.148-6.347 14.148-14.148v-10.248h43.562c13.518 0 24.556-10.819 24.91-24.252l19.463-32.665h16.034c13.524 0 24.527-11.002 24.527-24.527v-23.984h11.027c6.503 0 11.794-5.291 11.794-11.793v-13.428c.001-6.504-5.29-11.794-11.793-11.794zm-355.119 15h31.238v7.015h-31.238zm78.223 292.198c0 5.943-4.835 10.779-10.778 10.779s-10.779-4.836-10.779-10.779 4.836-10.778 10.779-10.778 10.778 4.835 10.778 10.778zm108.512 0c0 5.943-4.836 10.779-10.779 10.779s-10.778-4.836-10.778-10.779 4.835-10.778 10.778-10.778 10.779 4.835 10.779 10.778zm108.512 0c0 5.943-4.836 10.779-10.779 10.779s-10.778-4.836-10.778-10.779 4.835-10.778 10.778-10.778 10.779 4.835 10.779 10.778zm-13.433-260.966c5.656-2.96 12.708-1.268 16.407 3.929 2.95 4.144 3.174 9.645.569 14.014-6.397 10.736-10.74 18.026-17.104 28.706-3.257-6.866-9.562-12.017-17.157-13.692 2.784-5.298 4.302-11.253 4.302-17.378v-8.785zm-228.123 3.929c3.7-5.198 10.754-6.886 16.406-3.929l12.984 6.794v8.784c0 6.125 1.518 12.08 4.302 17.378-7.595 1.675-13.901 6.826-17.157 13.692-6.458-10.837-10.679-17.922-17.105-28.706-2.604-4.368-2.38-9.869.57-14.013zm146.903 101.679h-49.276v-9.396h49.276zm68.482-34.315c0 5.469-4.449 9.918-9.919 9.918h-166.402c-5.469 0-9.918-4.449-9.918-9.918v-14.002c0-5.469 4.449-9.918 9.918-9.918h166.402c5.47 0 9.919 4.449 9.919 9.918zm82.837-95.51h-31.239v-7.015h31.239z"/></g></svg>