<svg id="Capa_1" enable-background="new 0 0 512 512" height="512" viewBox="0 0 512 512" width="512" xmlns="http://www.w3.org/2000/svg"><g><path d="m496.189 306.678h-94.939l14.021-45.268c1.226-3.954-.989-8.154-4.946-9.378-3.954-1.228-8.157.989-9.382 4.944l-17.293 55.83c-.976 3.15-3.848 5.266-7.146 5.266h-217.495c-2.401 0-4.597-1.108-6.021-3.041-1.425-1.932-1.835-4.354-1.125-6.648l34.489-111.348c.975-3.149 3.847-5.264 7.146-5.264h217.495c2.401 0 4.596 1.108 6.021 3.04 1.426 1.933 1.836 4.356 1.126 6.649l-8.217 26.528c-1.226 3.954.989 8.154 4.946 9.378 3.958 1.228 8.158-.989 9.382-4.944l8.218-26.528c2.134-6.891.901-14.174-3.382-19.98-4.282-5.806-10.877-9.136-18.094-9.136h-57.773l-53.354-165.813c-2.11-6.559-8.159-10.965-15.051-10.965h-210.245c-4.143 0-7.5 3.356-7.5 7.497s3.357 7.497 7.5 7.497h210.245c.354 0 .663.226.771.562l51.877 161.224h-143.966c-9.097 0-17.113 5.355-20.636 13.55h-157.049c-.447 0-.812-.363-.812-.81v-173.717c0-.447.364-.81.812-.81h29.758c4.143 0 7.5-3.356 7.5-7.497s-3.357-7.496-7.5-7.496h-29.758c-8.719 0-15.812 7.09-15.812 15.803v173.715c0 8.714 7.093 15.803 15.812 15.803h152.272l-30.549 98.628c-2.135 6.891-.903 14.174 3.379 19.98 4.283 5.806 10.878 9.137 18.096 9.137h48.163l-50.933 158.291c-1.542 4.791-.691 10.078 2.273 14.146 2.966 4.068 7.743 6.496 12.778 6.496h48.924c4.143 0 7.5-3.356 7.5-7.497s-3.357-7.497-7.5-7.497h-48.925c-.103 0-.413 0-.656-.334-.242-.332-.147-.627-.116-.724l52.41-162.882h153.576c8.272 0 15.651-4.429 19.571-11.395h100.115c.447 0 .811.363.811.81v173.715c0 .447-.363.81-.811.81h-246.976c-4.143 0-7.5 3.356-7.5 7.497s3.357 7.497 7.5 7.497h246.976c8.718 0 15.811-7.09 15.811-15.803v-173.715c-.001-8.713-7.094-15.803-15.812-15.803z"/><path d="m258.096 452.062c3.25 18.622 19.32 32.309 38.566 32.309h22.749c19.245 0 35.313-13.686 38.565-32.308 5.726-5.541 9.29-13.301 9.29-21.877v-23.496c0-32.645-26.57-59.203-59.23-59.203-32.659 0-59.229 26.558-59.229 59.203v23.495c0 8.576 3.564 16.336 9.289 21.877zm61.315 17.316h-22.749c-7.507 0-14.231-3.373-18.668-8.757.903.038 58.989.046 60.085 0-4.437 5.383-11.161 8.757-18.668 8.757zm-55.604-62.688c0-24.378 19.842-44.21 44.23-44.21s44.229 19.832 44.229 44.21v23.495c0 8.53-6.942 15.47-15.477 15.47h-57.507c-3.539 0-6.805-1.194-9.415-3.199-.066-.053-.133-.106-.201-.157-3.569-2.836-5.861-7.212-5.861-12.113v-23.496z"/><path d="m288.601 424.519h38.872c8.551 0 15.507-6.953 15.507-15.5v-6.591c0-8.547-6.956-15.5-15.507-15.5h-38.872c-8.551 0-15.507 6.953-15.507 15.5v6.591c0 8.547 6.956 15.5 15.507 15.5zm-.507-22.091c0-.279.228-.507.507-.507h38.872c.279 0 .507.227.507.507v6.591c0 .279-.228.507-.507.507h-38.872c-.279 0-.507-.227-.507-.507z"/><path d="m454.907 366.125c4.143 0 7.5-3.356 7.5-7.497s-3.357-7.497-7.5-7.497h-33.666c-4.143 0-7.5 3.356-7.5 7.497s3.357 7.497 7.5 7.497z"/><path d="m394.867 383.984c0 4.141 3.357 7.497 7.5 7.497h71.414c4.143 0 7.5-3.356 7.5-7.497s-3.357-7.497-7.5-7.497h-71.414c-4.142 0-7.5 3.356-7.5 7.497z"/><path d="m402.367 416.836h71.414c4.143 0 7.5-3.356 7.5-7.497s-3.357-7.497-7.5-7.497h-71.414c-4.143 0-7.5 3.356-7.5 7.497s3.358 7.497 7.5 7.497z"/><path d="m402.367 442.191h71.414c4.143 0 7.5-3.356 7.5-7.497s-3.357-7.497-7.5-7.497h-71.414c-4.143 0-7.5 3.356-7.5 7.497 0 4.142 3.358 7.497 7.5 7.497z"/><path d="m402.367 467.546h71.414c4.143 0 7.5-3.356 7.5-7.497s-3.357-7.497-7.5-7.497h-71.414c-4.143 0-7.5 3.356-7.5 7.497s3.358 7.497 7.5 7.497z"/><path d="m90.759 44.454h-33.665c-4.143 0-7.5 3.356-7.5 7.497s3.357 7.497 7.5 7.497h33.665c4.143 0 7.5-3.356 7.5-7.497s-3.358-7.497-7.5-7.497z"/><path d="m109.633 69.81h-71.413c-4.143 0-7.5 3.356-7.5 7.497s3.357 7.497 7.5 7.497h71.413c4.143 0 7.5-3.356 7.5-7.497 0-4.142-3.358-7.497-7.5-7.497z"/><path d="m109.633 95.164h-71.413c-4.143 0-7.5 3.356-7.5 7.497s3.357 7.497 7.5 7.497h71.413c4.143 0 7.5-3.356 7.5-7.497s-3.358-7.497-7.5-7.497z"/><path d="m109.633 120.52h-71.413c-4.143 0-7.5 3.356-7.5 7.497s3.357 7.497 7.5 7.497h71.413c4.143 0 7.5-3.356 7.5-7.497s-3.358-7.497-7.5-7.497z"/><path d="m109.633 145.875h-71.413c-4.143 0-7.5 3.356-7.5 7.497s3.357 7.497 7.5 7.497h71.413c4.143 0 7.5-3.356 7.5-7.497s-3.358-7.497-7.5-7.497z"/><path d="m332.659 286.582c-8.424 0-16.553-3.419-21.745-9.146-2.783-3.07-7.526-3.299-10.594-.521-3.069 2.78-3.303 7.521-.521 10.589 7.989 8.811 20.273 14.072 32.86 14.072 15.149 0 28.353-9.953 30.71-23.152 1.787-10.005-2.873-23.12-21.312-29.918-9.997-3.685-19.275-7.707-21.713-8.777-2.316-1.722-3.438-4.454-3.014-7.41.544-3.784 3.475-6.829 7.84-8.143 12.285-3.698 23.432 5.206 23.677 5.405 3.17 2.636 7.882 2.221 10.538-.939 2.665-3.169 2.256-7.899-.915-10.563-.7-.588-17.395-14.349-37.626-8.26-9.952 2.997-16.987 10.802-18.361 20.37-1.281 8.922 2.585 17.502 10.091 22.393 2.222 1.448 19.617 8.267 24.292 9.991 8.405 3.099 12.683 7.916 11.736 13.216-.948 5.306-7.17 10.793-15.943 10.793z"/><path d="m262.357 213.548-20.257 60.948-21.249-61.187c-1.358-3.912-5.633-5.985-9.544-4.624-3.913 1.358-5.984 5.628-4.626 9.54l26.804 77.185c1.312 3.695 4.815 6.166 8.734 6.166.021 0 .041 0 .062-.001 3.943-.026 7.444-2.552 8.729-6.331l25.581-76.969c1.307-3.929-.822-8.172-4.753-9.477-3.926-1.308-8.175.819-9.481 4.75z"/><path d="m157.705 131.577c1.985 19.795 18.746 35.301 39.064 35.301h16.469c20.319 0 37.081-15.506 39.065-35.302l1.968-1.057c4.042-2.173 6.553-6.371 6.553-10.957v-37.128c0-30.766-25.041-55.795-55.82-55.795s-55.82 25.03-55.82 55.795v37.128c0 4.586 2.511 8.784 6.554 10.958zm55.532 20.308h-16.469c-7.981 0-15.075-3.873-19.499-9.837 3.702 1.654 7.913 1.414 11.438-.691 3.795-2.268 6.061-6.26 6.061-10.679v-20.974c0-3.99-1.934-7.764-5.168-10.091l-6.233-4.492v-12.859c6.039 2.84 13.52 6.312 21.637 6.312 8.119 0 15.596-3.465 21.637-6.305v12.851l-6.231 4.491c-3.237 2.331-5.17 6.104-5.17 10.092v20.974c0 4.419 2.266 8.411 6.061 10.679 3.519 2.101 7.726 2.35 11.438.692-4.427 5.964-11.52 9.837-19.502 9.837zm-49.054-69.451c0-22.499 18.312-40.802 40.82-40.802s40.82 18.303 40.82 40.802v35.601l-15.585 8.372v-15.396l6.232-4.491c3.236-2.332 5.169-6.105 5.169-10.092v-18.15c0-4.224-2.113-8.119-5.652-10.423-3.543-2.307-7.973-2.663-11.841-.95-1.16.513-2.379 1.085-3.645 1.681-4.979 2.341-10.621 4.995-15.499 4.995-4.864 0-10.5-2.65-15.472-4.989-1.276-.6-2.505-1.177-3.675-1.694-3.869-1.709-8.297-1.353-11.842.954-3.537 2.304-5.648 6.199-5.648 10.421v18.155c0 3.987 1.933 7.76 5.168 10.091l6.233 4.492v15.396l-15.585-8.372v-35.601z"/></g></svg>