<svg id="Capa_1" enable-background="new 0 0 512 512" height="512" viewBox="0 0 512 512" width="512" xmlns="http://www.w3.org/2000/svg"><g><path d="m512 58.838c0-11.184-9.098-20.281-20.28-20.281h-31.706c-4.143 0-7.5 3.357-7.5 7.5s3.357 7.5 7.5 7.5h31.706c2.911 0 5.28 2.369 5.28 5.281v23.648c0 2.912-2.369 5.281-5.28 5.281h-216.661c-2.912 0-5.281-2.369-5.281-5.281v-23.648c0-2.912 2.369-5.281 5.281-5.281h155.955c4.143 0 7.5-3.357 7.5-7.5s-3.357-7.5-7.5-7.5h-155.955c-11.184 0-20.281 9.098-20.281 20.281v23.648c0 4.841 1.705 9.291 4.546 12.782-2.347 2.884-3.918 6.423-4.393 10.297-20.345-7.47-42.312-11.55-65.215-11.55-104.611 0-189.716 85.105-189.716 189.714s85.105 189.715 189.715 189.715c61.722 0 116.655-29.629 151.322-75.41h107.51c4.143 0 7.5-3.357 7.5-7.5s-3.357-7.5-7.5-7.5h-97.238c6.626-10.744 12.212-22.195 16.615-34.211h123.796c2.911 0 5.28 2.369 5.28 5.281v23.649c0 2.911-2.369 5.28-5.28 5.28h-14.173c-4.143 0-7.5 3.357-7.5 7.5s3.357 7.5 7.5 7.5h14.173c11.183 0 20.28-9.098 20.28-20.28v-23.649c0-4.841-1.705-9.29-4.545-12.781 2.84-3.49 4.545-7.94 4.545-12.781v-23.649c0-4.841-1.705-9.29-4.545-12.781 2.84-3.49 4.545-7.94 4.545-12.781v-23.649c0-4.841-1.705-9.29-4.545-12.781 2.84-3.49 4.545-7.94 4.545-12.781v-23.649c0-4.841-1.705-9.291-4.545-12.781 2.84-3.491 4.545-7.941 4.545-12.781v-23.649c0-4.841-1.705-9.29-4.545-12.781 2.84-3.491 4.545-7.94 4.545-12.781v-23.648c0-4.841-1.705-9.291-4.545-12.781 2.84-3.491 4.545-7.94 4.545-12.781zm-242.222 49.211c0-2.912 2.369-5.281 5.28-5.281h216.662c2.911 0 5.28 2.369 5.28 5.281v23.648c0 2.912-2.369 5.281-5.28 5.281h-181.901c-12.179-9.986-25.619-18.49-40.041-25.231zm227.222 49.211v23.648c0 2.912-2.369 5.281-5.28 5.281h-139.337c-7.458-12.392-16.292-23.867-26.288-34.211h165.625c2.911.001 5.28 2.37 5.28 5.282zm0 49.211v23.649c0 2.911-2.369 5.28-5.28 5.28h-118.528c-3.136-11.898-7.403-23.342-12.676-34.211h131.204c2.911 0 5.28 2.37 5.28 5.282zm0 49.211v23.649c0 2.911-2.369 5.28-5.28 5.28h-112.294c.001-.294.003-.588.003-.883 0-11.368-1.006-22.505-2.931-33.328h115.222c2.911 0 5.28 2.37 5.28 5.282zm-307.285 202.761c-96.338 0-174.715-78.377-174.715-174.714s78.377-174.714 174.715-174.714 174.714 78.376 174.714 174.714c0 95.848-77.89 174.714-174.714 174.714zm183.002-124.621c3.025-11.038 5.076-22.474 6.053-34.211h112.95c2.911 0 5.28 2.369 5.28 5.281v23.649c0 2.911-2.369 5.28-5.28 5.28h-119.003z"/><path d="m189.715 347.024c6.083 0 11.802-2.369 16.104-6.671l40.521-40.521c8.879-8.88 8.879-23.328 0-32.208l-40.521-40.521c-8.881-8.879-23.329-8.879-32.208 0l-40.521 40.521c-8.879 8.88-8.879 23.328 0 32.208l40.521 40.52v.001c4.301 4.301 10.021 6.671 16.104 6.671zm-46.018-57.798c-1.469-1.468-2.277-3.42-2.277-5.496 0-2.077.809-4.029 2.277-5.497l40.521-40.521c1.516-1.516 3.506-2.273 5.497-2.273s3.981.758 5.497 2.272l40.521 40.522c1.469 1.468 2.277 3.42 2.277 5.497 0 2.076-.809 4.028-2.277 5.496l-40.521 40.521c-1.469 1.469-3.421 2.278-5.497 2.278-2.077 0-4.028-.809-5.497-2.277 0 0 0 0 0-.001z"/><path d="m189.715 124.227c-87.95 0-159.503 71.553-159.503 159.502 0 6.675.421 13.413 1.25 20.026.516 4.111 4.273 7.022 8.374 6.509 4.11-.515 7.024-4.265 6.509-8.374-.752-5.998-1.133-12.108-1.133-18.161 0-79.679 64.824-144.502 144.503-144.502s144.502 64.823 144.502 144.502-64.823 144.503-144.502 144.503c-62.615 0-117.798-39.945-137.314-99.397-1.292-3.935-5.527-6.078-9.465-4.787-3.936 1.292-6.079 5.529-4.787 9.465 21.544 65.627 82.454 109.72 151.566 109.72 87.949 0 159.502-71.553 159.502-159.503 0-87.951-71.553-159.503-159.502-159.503z"/></g></svg>