<svg id="Capa_1" enable-background="new 0 0 512.194 512.194" height="512" viewBox="0 0 512.194 512.194" width="512" xmlns="http://www.w3.org/2000/svg"><g><path d="m108.739 86.828c1.07 3.107 3.979 5.06 7.091 5.06.81 0 1.634-.132 2.442-.411 3.916-1.349 5.998-5.617 4.648-9.533l-9.406-27.311 14.686 8.113 17.813 47.331c1.452 3.858 5.765 5.843 9.661 4.378 3.877-1.459 5.837-5.784 4.378-9.661l-27.224-72.336 16.139 4.601 14.08 34.265c1.574 3.83 5.956 5.66 9.788 4.087 3.831-1.574 5.661-5.957 4.087-9.788l-16.38-39.863 64.822 39.123v24.817h-15.546c-2.723 0-5.232 1.476-6.556 3.856l-23.566 42.395-36.982 3.457-10.298-29.897c-1.349-3.915-5.616-6.001-9.533-4.648-3.916 1.349-5.998 5.617-4.648 9.533l12.218 35.472c1.107 3.213 4.274 5.346 7.789 5.025l36.149-3.379c.517 1.202 1.354 2.281 2.479 3.098l74.722 54.288c1.314.955 2.861 1.433 4.408 1.433s3.094-.478 4.408-1.433l32.212-23.403c3.352-2.435 4.094-7.125 1.659-10.476-2.435-3.352-7.124-4.095-10.476-1.659l-27.803 20.2-64.938-47.181 23.17-41.682h83.537l23.17 41.682-13.674 9.936c-3.352 2.435-4.094 7.125-1.659 10.476 2.436 3.353 7.125 4.096 10.476 1.659l19.049-13.84c1.126-.818 1.962-1.896 2.479-3.098l36.149 3.379c3.511.321 6.681-1.808 7.789-5.025l37.471-108.785c1.011-2.934.11-6.188-2.266-8.184-2.377-1.997-5.736-2.325-8.452-.823l-16.359 9.037 6.514-17.308c.998-2.651.416-5.639-1.503-7.723-1.918-2.083-4.846-2.908-7.573-2.132l-19.087 5.441 3.673-8.938c1.229-2.993.401-6.438-2.056-8.544-2.456-2.107-5.987-2.399-8.757-.728l-87.893 53.047c-2.25 1.357-3.625 3.793-3.625 6.421v29.051h-31.27v-29.051c0-2.628-1.375-5.063-3.625-6.421l-87.891-53.047c-2.77-1.673-6.301-1.38-8.757.728-2.457 2.106-3.285 5.551-2.056 8.544l3.673 8.939-19.089-5.442c-2.729-.777-5.655.049-7.572 2.132-1.919 2.084-2.501 5.071-1.503 7.723l6.514 17.308-16.359-9.038c-2.715-1.501-6.076-1.175-8.452.823-2.376 1.996-3.276 5.25-2.266 8.184zm177.896-21.946 64.822-39.123-16.38 39.863c-1.574 3.831.256 8.214 4.087 9.788 3.833 1.574 8.214-.256 9.788-4.087l14.079-34.265 16.138-4.601-27.223 72.336c-1.459 3.877.501 8.202 4.378 9.661 3.902 1.467 8.211-.525 9.661-4.378l17.812-47.33 14.687-8.113-29.2 84.775-36.982-3.457-23.566-42.395c-1.323-2.381-3.833-3.856-6.556-3.856h-15.546v-24.818z"/><path d="m285.397 122.525c0-4.143-3.357-7.5-7.5-7.5h-43.795c-4.143 0-7.5 3.357-7.5 7.5s3.357 7.5 7.5 7.5h43.795c4.143 0 7.5-3.358 7.5-7.5z"/><path d="m247.795 140.337c-4.143 0-7.5 3.357-7.5 7.5s3.357 7.5 7.5 7.5h16.41c4.143 0 7.5-3.357 7.5-7.5s-3.357-7.5-7.5-7.5z"/><path d="m53.215 382.233c-6.066-6.066-15.938-6.066-22.004 0l-26.653 26.654c-2.94 2.938-4.558 6.846-4.558 11.002 0 4.155 1.618 8.062 4.557 11.002l26.654 26.654h.001c3.033 3.032 7.017 4.548 11.001 4.548 3.983 0 7.968-1.516 11.002-4.548l26.654-26.654c2.938-2.939 4.557-6.847 4.557-11.002 0-4.156-1.618-8.063-4.557-11.002zm16.047 38.05-26.653 26.654c-.217.217-.574.217-.791 0l-26.653-26.654c-.041-.04-.164-.163-.164-.395s.122-.354.164-.395l26.654-26.654c.217-.219.572-.219.789 0l26.655 26.654c.041.041.163.163.163.395s-.123.355-.164.395z"/><path d="m197.196 432.233c-6.066-6.066-15.938-6.066-22.004 0l-26.653 26.654c-2.939 2.938-4.558 6.846-4.558 11.002 0 4.155 1.618 8.062 4.557 11.002l26.654 26.654h.001c3.033 3.032 7.017 4.548 11.001 4.548 3.983 0 7.968-1.516 11.002-4.548l26.654-26.655c6.065-6.067 6.064-15.938 0-22.003zm16.047 38.05-26.653 26.654c-.217.217-.574.217-.791 0l-26.653-26.654c-.041-.04-.164-.163-.164-.395s.122-.354.164-.395l26.654-26.653c.217-.219.572-.219.789 0l26.654 26.654c.218.218.218.573 0 .789z"/><path d="m337.002 432.233c-6.066-6.066-15.938-6.066-22.004 0l-26.653 26.654c-2.939 2.938-4.558 6.846-4.558 11.002 0 4.155 1.618 8.062 4.557 11.002l26.654 26.654h.001c3.033 3.032 7.017 4.548 11.001 4.548 3.983 0 7.968-1.516 11.002-4.548l26.654-26.654c2.938-2.939 4.557-6.847 4.557-11.002 0-4.156-1.618-8.063-4.557-11.002zm16.047 38.05-26.653 26.654c-.217.217-.574.217-.791 0l-26.653-26.654c-.041-.04-.164-.163-.164-.395s.122-.354.164-.395l26.654-26.654c.217-.219.572-.219.789 0l26.655 26.654c.041.041.163.163.163.395s-.123.355-.164.395z"/><path d="m507.638 408.888-26.655-26.656c-6.066-6.066-15.937-6.064-22.003.001l-26.653 26.654c-2.939 2.938-4.558 6.846-4.558 11.002 0 4.155 1.618 8.062 4.556 10.999l1.411 1.412c2.927 2.931 7.676 2.932 10.606.003 2.93-2.928 2.932-7.676.003-10.606l-1.413-1.414c-.041-.041-.163-.163-.163-.394s.122-.354.164-.396l26.654-26.654c.217-.219.572-.218.789-.001l26.654 26.656c.041.04.164.163.164.395 0 .23-.123.354-.164.395l-26.653 26.654c-.22.217-.574.219-.79 0l-4.737-4.737c-2.93-2.928-7.678-2.928-10.607 0-2.929 2.93-2.929 7.678 0 10.607l4.737 4.737c3.033 3.032 7.017 4.549 11.001 4.549s7.969-1.517 11.003-4.55l26.654-26.654c2.938-2.938 4.557-6.846 4.557-11.001-.001-4.156-1.62-8.064-4.557-11.001z"/><path d="m312.607 279.31c3.249 0 5.893 2.709 5.893 6.039v125.653c0 4.143 3.357 7.5 7.5 7.5s7.5-3.357 7.5-7.5v-125.653c0-2.098-.307-4.125-.877-6.039h123.965c3.25 0 5.894 2.709 5.894 6.039v75.105c0 4.143 3.357 7.5 7.5 7.5s7.5-3.357 7.5-7.5v-75.105c0-11.601-9.373-21.039-20.894-21.039h-187.098c-3.25 0-5.894-2.71-5.894-6.04v-29.867c0-4.143-3.357-7.5-7.5-7.5s-7.5 3.357-7.5 7.5v31.524c0 3.249-2.644 5.893-5.893 5.893h-187.098c-11.521 0-20.893 9.373-20.893 20.894v74.289c0 4.143 3.357 7.5 7.5 7.5s7.5-3.357 7.5-7.5v-74.289c0-3.25 2.644-5.894 5.893-5.894h123.935c-.551 1.87-.846 3.848-.846 5.894v124.289c0 4.143 3.357 7.5 7.5 7.5s7.5-3.357 7.5-7.5v-124.29c0-3.25 2.644-5.894 5.893-5.894h43.117c5.532 0 10.568-2.161 14.309-5.683 3.484 2.62 7.804 4.173 12.477 4.173h43.117z"/></g></svg>