<svg id="Capa_1" enable-background="new 0 0 512 512" height="512" viewBox="0 0 512 512" width="512" xmlns="http://www.w3.org/2000/svg"><g><path d="m298.292 266.597c-3.133.977-5.268 3.878-5.268 7.16v38.133c0 4.143 3.357 7.5 7.5 7.5s7.5-3.357 7.5-7.5v-14.074l12.118 17.547c2.064 2.979 5.686 4.282 9.016 3.242 3.373-1.055 5.639-4.271 5.639-8.074l-.357-36.918c-.04-4.118-3.39-7.428-7.498-7.428h-.074c-4.143.04-7.468 3.431-7.428 7.572l.14 14.394-12.884-18.655c-1.866-2.702-5.267-3.873-8.404-2.899z"/><path d="m417.807 281.185c2.325 0 4.567.684 6.482 1.978 3.432 2.318 8.095 1.416 10.413-2.017s1.416-8.095-2.017-10.413c-4.404-2.976-9.549-4.548-14.879-4.548-14.668 0-26.602 11.934-26.602 26.603s11.934 26.603 26.602 26.603c5.942 0 11.293-1.969 15.467-5.688.815-.725 1.593-1.526 2.312-2.383 2.663-3.172 2.251-7.902-.922-10.566-3.172-2.662-7.902-2.25-10.566.922-.252.3-.518.574-.796.821-1.43 1.274-3.228 1.894-5.495 1.894-6.397 0-11.602-5.205-11.602-11.603s5.205-11.603 11.603-11.603z"/><path d="m367.781 266.185h-10.638c-1.993 0-3.904.793-5.312 2.205-1.4 1.405-2.188 3.31-2.188 5.295v38.205c0 4.143 3.357 7.5 7.5 7.5s7.5-3.357 7.5-7.5v-9.133c1.223-.005 2.348-.009 3.138-.009 10.196 0 18.492-8.201 18.492-18.281 0-10.081-8.295-18.282-18.492-18.282zm0 21.563c-.783 0-1.894.003-3.103.008-.015-4.067-.003-2.603-.015-6.571h3.117c1.86 0 3.492 1.534 3.492 3.282s-1.63 3.281-3.491 3.281z"/><path d="m82.507 362.104c-2.993-2.864-7.74-2.76-10.604.233l-11.664 12.19-11.664-12.19c-2.864-2.992-7.612-3.098-10.604-.233s-3.097 7.611-.233 10.604l17.083 17.853c1.415 1.479 3.372 2.314 5.419 2.314s4.004-.836 5.419-2.314l17.083-17.853c2.862-2.992 2.757-7.739-.235-10.604z"/><path d="m187.379 387.591c4.143 0 7.5-3.357 7.5-7.5s-3.357-7.5-7.5-7.5h-88.954c-4.143 0-7.5 3.357-7.5 7.5s3.357 7.5 7.5 7.5z"/><path d="m70.925 409.155c0 4.143 3.357 7.5 7.5 7.5h377.578c4.143 0 7.5-3.357 7.5-7.5s-3.357-7.5-7.5-7.5h-377.578c-4.143 0-7.5 3.358-7.5 7.5z"/><path d="m456.003 430.72h-377.578c-4.143 0-7.5 3.357-7.5 7.5s3.357 7.5 7.5 7.5h377.578c4.143 0 7.5-3.357 7.5-7.5s-3.357-7.5-7.5-7.5z"/><path d="m78.425 474.784h377.578c4.143 0 7.5-3.357 7.5-7.5s-3.357-7.5-7.5-7.5h-377.578c-4.143 0-7.5 3.357-7.5 7.5s3.357 7.5 7.5 7.5z"/><path d="m497.855 328.534h-11.102l-11.76-64.345c-2.347-12.834-13.52-22.148-26.565-22.148h-45.29c-4.143 0-7.5 3.357-7.5 7.5s3.357 7.5 7.5 7.5h45.29c5.8 0 10.767 4.141 11.81 9.846l11.268 61.647h-212.645l11.269-61.647c1.043-5.705 6.009-9.846 11.809-9.846h92.199c4.143 0 7.5-3.357 7.5-7.5s-3.357-7.5-7.5-7.5h-92.199c-13.047 0-24.219 9.314-26.564 22.148l-11.761 64.345h-13.84v-11.546c0-12.867-2.561-25.337-7.609-37.064-.555-1.289-1.138-2.562-1.748-3.819 9.06-1.865 15.895-9.904 15.895-19.508v-156.27c-.002-55.32-45.009-100.327-100.33-100.327s-100.327 45.007-100.327 100.327v28.867c0 4.143 3.357 7.5 7.5 7.5s7.5-3.357 7.5-7.5v-28.867c0-47.05 38.278-85.327 85.327-85.327s85.327 38.277 85.327 85.327v156.27c0 2.711-2.205 4.916-4.916 4.916h-4.787c-12.45-16.927-30.377-29.408-50.866-35.008v-2.065c29.775-10.291 51.218-38.605 51.218-71.834v-44.355c0-4.239-1.951-8.12-5.354-10.648-3.406-2.531-7.691-3.282-11.755-2.055-14.746 4.442-21.576 2.806-36.962-1.67-4.027-1.17-8.398-.389-11.688 2.089-15.739 11.854-46.784 9.29-68.003.857-4.102-1.63-8.729-1.124-12.378 1.351-3.639 2.471-5.812 6.572-5.812 10.974v43.458c0 33.229 21.443 61.544 51.218 71.834v2.065c-18.882 5.169-35.918 16.309-48.292 31.655-.886 1.099-1.746 2.218-2.579 3.354h-4.782c-2.711 0-4.916-2.205-4.916-4.916v-98.402c0-4.143-3.357-7.5-7.5-7.5s-7.5 3.357-7.5 7.5v98.402c0 9.614 6.848 17.659 15.922 19.514-6.123 12.668-9.385 26.672-9.385 40.878v11.546h-28.047c-7.799-.003-14.145 6.343-14.145 14.142v155.177c0 7.799 6.346 14.144 14.145 14.144h238.569c4.143 0 7.5-3.357 7.5-7.5s-3.357-7.5-7.5-7.5h-237.714v-153.466h482v153.466h-215.286c-4.143 0-7.5 3.357-7.5 7.5s3.357 7.5 7.5 7.5h216.142c7.799 0 14.145-6.345 14.145-14.145v-155.176c-.001-7.799-6.347-14.145-14.146-14.145zm-371.63-100.578c3.195.412 6.452.624 9.758.624s6.562-.212 9.758-.624v16.712c0 5.381-4.377 9.759-9.758 9.759s-9.758-4.378-9.758-9.759zm-51.218-75.352v-40.941c24.451 9.052 58.758 11.742 79.462-3.16 15.429 4.471 25.474 6.755 42.489 2.046v42.056c0 33.622-27.354 60.976-60.976 60.976s-60.975-27.354-60.975-60.977zm-17.815 164.384c0-34.491 21.878-64.299 54.032-74.835v2.515c0 13.652 11.106 24.759 24.758 24.759s24.758-11.106 24.758-24.759v-2.501c21.206 7.025 38.712 22.944 47.646 43.689 4.238 9.843 6.387 20.316 6.387 31.132v11.546h-157.581z"/></g></svg>