<svg id="Capa_1" enable-background="new 0 0 511.298 511.298" height="512" viewBox="0 0 511.298 511.298" width="512" xmlns="http://www.w3.org/2000/svg"><g><path d="m498.896 275.018h-221.198c-6.839 0-12.402 5.563-12.402 12.402v48.906h-19.294v-48.906c0-6.839-5.563-12.402-12.402-12.402h-221.198c-6.839 0-12.402 5.563-12.402 12.402v116.23c0 6.839 5.563 12.402 12.402 12.402h29.273c4.143 0 7.5-3.357 7.5-7.5s-3.357-7.5-7.5-7.5h-26.675v-111.034h216.002v46.309h-7.391v-15.137c0-4.143-3.357-7.5-7.5-7.5-4.842 0-8.781-3.939-8.781-8.782 0-4.143-3.357-7.5-7.5-7.5h-153.658c-4.143 0-7.5 3.357-7.5 7.5 0 4.843-3.939 8.782-8.781 8.782-4.143 0-7.5 3.357-7.5 7.5v48.69c0 4.143 3.357 7.5 7.5 7.5 4.842 0 8.781 3.939 8.781 8.781 0 4.143 3.357 7.5 7.5 7.5h64.429v7.391h-39.925c-4.143 0-7.5 3.357-7.5 7.5s3.357 7.5 7.5 7.5h39.925v71.66c0 7.347 5.977 13.324 13.323 13.324h262.748c7.347 0 13.323-5.978 13.323-13.324v-71.66h98.9c6.839 0 12.402-5.563 12.402-12.402v-116.23c.001-6.839-5.563-12.402-12.401-12.402zm-388.295 74.632v29.012h-58.141c-2.362-7.09-7.979-12.707-15.069-15.069v-36.114c7.09-2.362 12.708-7.979 15.07-15.07h141.08c2.362 7.091 7.98 12.708 15.07 15.07v8.849h-84.688c-7.346-.002-13.322 5.975-13.322 13.322zm274.394 136.386h-259.394v-134.71h259.395v134.71zm111.303-84.984h-96.303v-7.391h65.131c4.143 0 7.5-3.357 7.5-7.5 0-4.843 3.939-8.782 8.781-8.782 4.143 0 7.5-3.357 7.5-7.5v-48.689c0-4.143-3.357-7.5-7.5-7.5-4.842 0-8.781-3.939-8.781-8.782 0-4.143-3.357-7.5-7.5-7.5h-35.473c-4.143 0-7.5 3.357-7.5 7.5s3.357 7.5 7.5 7.5h29.184c2.363 7.091 7.98 12.708 15.07 15.07v36.113c-7.09 2.362-12.707 7.979-15.07 15.07h-58.842v-29.011c0-7.347-5.977-13.323-13.323-13.323h-83.985v-8.849c7.09-2.362 12.707-7.979 15.07-15.07h82.896c4.143 0 7.5-3.357 7.5-7.5s-3.357-7.5-7.5-7.5h-89.186c-4.143 0-7.5 3.357-7.5 7.5 0 4.843-3.939 8.782-8.781 8.782-4.143 0-7.5 3.357-7.5 7.5v15.137h-7.391v-46.309h216.002v111.034z"/><path d="m112.925 179.889c1.107 3.213 4.274 5.346 7.789 5.025l42.096-3.935c.468 1.487 1.4 2.836 2.745 3.812l85.335 62c1.314.955 2.861 1.433 4.408 1.433s3.094-.478 4.408-1.433l85.335-62c1.345-.977 2.277-2.326 2.745-3.812l42.096 3.935c3.511.321 6.681-1.808 7.789-5.025l42.793-124.237c1.011-2.934.11-6.188-2.266-8.184-2.377-1.998-5.737-2.324-8.452-.823l-21.213 11.718 8.457-22.472c.998-2.651.416-5.639-1.503-7.723-1.917-2.082-4.85-2.909-7.572-2.132l-23.912 6.817 5.03-12.241c1.229-2.993.401-6.437-2.056-8.544s-5.987-2.399-8.758-.728l-100.376 60.584c-2.249 1.357-3.624 3.793-3.624 6.421v34.243h-37.842v-34.243c0-2.628-1.375-5.063-3.625-6.421l-26.652-16.086c-3.545-2.138-8.156-1.001-10.296 2.546-2.141 3.546-1.001 8.156 2.546 10.296l23.027 13.898v30.01h-18.819c-2.723 0-5.232 1.476-6.556 3.856l-27.187 48.908-43.629 4.078-34.522-100.228 19.54 10.794 20.481 54.422c1.452 3.858 5.765 5.843 9.661 4.378 3.877-1.459 5.837-5.784 4.378-9.661l-31.834-84.591 20.963 5.976 16.276 39.611c1.572 3.825 5.949 5.663 9.788 4.087 3.831-1.574 5.661-5.957 4.087-9.788-.066-.16-19.977-48.618-19.933-48.511l29.424 17.76c3.548 2.141 8.157 1.001 10.297-2.545 2.141-3.547 1.001-8.156-2.545-10.297l-48.869-29.496c-2.771-1.673-6.302-1.38-8.758.728-2.457 2.106-3.285 5.551-2.056 8.544l5.03 12.241-23.912-6.817c-2.728-.778-5.655.048-7.572 2.132-1.919 2.084-2.501 5.071-1.503 7.723l8.457 22.472-21.214-11.719c-2.715-1.501-6.077-1.175-8.452.823-2.376 1.996-3.276 5.25-2.266 8.184zm176.294-97.311 77.307-46.659c-4.143 10.083-14.964 36.419-19.933 48.511-1.574 3.831.256 8.214 4.087 9.788 3.833 1.574 8.214-.256 9.788-4.087l16.276-39.611 20.963-5.976-31.835 84.591c-1.459 3.877.501 8.202 4.378 9.661 3.902 1.467 8.211-.525 9.661-4.378l20.481-54.422 19.54-10.794-34.522 100.229-43.629-4.078-27.187-48.908c-1.323-2.381-3.833-3.856-6.556-3.856h-18.819zm-82.249 45.01h96.656l26.935 48.454c.005.01.011.019.016.029l.273.491-75.552 54.893-75.552-54.893.273-.491c.005-.01.01-.019.016-.029z"/><path d="m230.29 156.51h50.016c4.143 0 7.5-3.357 7.5-7.5s-3.357-7.5-7.5-7.5h-50.016c-4.143 0-7.5 3.357-7.5 7.5s3.357 7.5 7.5 7.5z"/><path d="m264.669 170.418h-18.742c-4.143 0-7.5 3.357-7.5 7.5s3.357 7.5 7.5 7.5h18.742c4.143 0 7.5-3.357 7.5-7.5s-3.357-7.5-7.5-7.5z"/><path d="m144.697 455.099c6.528 0 11.84 5.312 11.84 11.84 0 4.143 3.357 7.5 7.5 7.5h182.521c4.143 0 7.5-3.357 7.5-7.5 0-6.528 5.312-11.84 11.84-11.84 4.143 0 7.5-3.357 7.5-7.5v-57.836c0-4.143-3.357-7.5-7.5-7.5-6.528 0-11.84-5.312-11.84-11.84 0-4.143-3.357-7.5-7.5-7.5h-182.521c-4.143 0-7.5 3.357-7.5 7.5 0 6.528-5.312 11.84-11.84 11.84-4.143 0-7.5 3.357-7.5 7.5v57.836c0 4.142 3.358 7.5 7.5 7.5zm7.5-58.902c8.779-2.559 15.715-9.494 18.273-18.273h169.654c2.559 8.779 9.494 15.715 18.273 18.273v44.969c-8.779 2.559-15.715 9.494-18.273 18.273h-169.653c-2.559-8.779-9.494-15.715-18.273-18.273v-44.969z"/><path d="m238.562 444.816c3.36 2.198 6.069 3.371 8.941 3.971.059 4.092 3.393 7.39 7.499 7.39 4.143 0 7.5-3.357 7.5-7.5v-.761c6.508-2.58 11.427-8.399 12.647-15.661 1.565-9.309-3.468-17.713-12.523-20.914-3.849-1.36-8.558-3.154-10.995-5.013-.114-.289-.175-1.074.164-1.925.223-.562.669-1.285 1.521-1.542 5.014-1.513 9.765.528 9.989.628 3.721 1.749 8.158.179 9.946-3.526 1.801-3.73.236-8.215-3.493-10.015-.527-.255-3.283-1.521-7.316-2.207-.464-3.697-3.618-6.557-7.441-6.557-4.143 0-7.5 3.357-7.5 7.5v.339c-5.478 2.222-9.494 7.18-10.643 13.273-1.166 6.185.908 12.222 5.413 15.756 4.088 3.205 9.795 5.466 15.354 7.431.806.285 3.257 1.151 2.73 4.285-.285 1.693-1.743 4.566-5.405 4.591-4.245.03-5.144-.111-8.177-2.097-3.467-2.268-8.115-1.297-10.383 2.17s-1.293 8.115 2.172 10.384z"/></g></svg>