<svg id="Capa_1" enable-background="new 0 0 512 512" height="512" viewBox="0 0 512 512" width="512" xmlns="http://www.w3.org/2000/svg"><g><path d="m171.599 33.757h237.982c4.734 0 8.586 3.852 8.586 8.586v233.799h-4.715c-9.627 0-17.459 7.832-17.459 17.459v17.037h-19.789v-17.037c0-9.627-7.832-17.459-17.458-17.459h-30.725c-9.627 0-17.459 7.832-17.459 17.459v17.037h-22.738c-2.459 0-4.762 1.205-6.163 3.226s-1.723 4.6-.861 6.902l28.058 74.994c1.096 2.931 3.896 4.872 7.024 4.872h159.772v25.236c0 4.143 3.357 7.5 7.5 7.5s7.5-3.357 7.5-7.5v-25.236h13.846c2.459 0 4.762-1.205 6.163-3.226s1.723-4.6.861-6.902l-28.058-74.994c-1.096-2.931-3.896-4.872-7.024-4.872h-14.807v-17.037c0-9.627-7.832-17.459-17.459-17.459h-11.01v-233.799c0-13.005-10.581-23.586-23.586-23.586h-237.981c-4.143 0-7.5 3.358-7.5 7.5s3.357 7.5 7.5 7.5zm153.963 259.844c0-1.355 1.104-2.459 2.459-2.459h30.725c1.355 0 2.458 1.104 2.458 2.459v17.037h-35.642zm168.125 92.031h-172.603l-22.446-59.994h172.602zm-47.051-92.031v17.037h-35.643v-17.037c0-1.355 1.104-2.459 2.459-2.459h30.725c1.355 0 2.459 1.103 2.459 2.459z"/><path d="m77.971 350.225c-4.143 0-7.5 3.357-7.5 7.5s3.357 7.5 7.5 7.5h16.733c4.143 0 7.5-3.357 7.5-7.5s-3.357-7.5-7.5-7.5z"/><path d="m173.833 365.225c4.143 0 7.5-3.357 7.5-7.5s-3.357-7.5-7.5-7.5h-16.734c-4.143 0-7.5 3.357-7.5 7.5s3.357 7.5 7.5 7.5z"/><path d="m434.03 350.225h-16.734c-4.143 0-7.5 3.357-7.5 7.5s3.357 7.5 7.5 7.5h16.734c4.143 0 7.5-3.357 7.5-7.5s-3.357-7.5-7.5-7.5z"/><path d="m354.901 350.225h-16.733c-4.143 0-7.5 3.357-7.5 7.5s3.357 7.5 7.5 7.5h16.733c4.143 0 7.5-3.357 7.5-7.5s-3.357-7.5-7.5-7.5z"/><path d="m504.5 478.243h-13.846v-23.375c0-4.143-3.357-7.5-7.5-7.5s-7.5 3.357-7.5 7.5v23.375h-439.307v-77.611h66.013c4.143 0 7.5-3.357 7.5-7.5s-3.357-7.5-7.5-7.5h-84.047l22.446-59.994h172.604l-22.446 59.994h-59.558c-4.143 0-7.5 3.357-7.5 7.5s3.357 7.5 7.5 7.5h64.76c3.128 0 5.929-1.941 7.024-4.872l28.058-74.994c.861-2.303.54-4.882-.861-6.902s-3.704-3.226-6.163-3.226h-22.738v-17.037c0-9.627-7.832-17.459-17.459-17.459h-30.725c-9.627 0-17.459 7.832-17.459 17.459v17.037h-19.789v-17.037c0-9.627-7.832-17.459-17.458-17.459h-4.716v-233.799c0-4.734 3.852-8.586 8.586-8.586h40.18c4.143 0 7.5-3.358 7.5-7.5s-3.357-7.5-7.5-7.5h-40.18c-13.005 0-23.586 10.581-23.586 23.586v233.799h-11.01c-9.626 0-17.458 7.832-17.458 17.459v17.037h-14.807c-3.129 0-5.929 1.941-7.024 4.872l-28.058 74.994c-.861 2.303-.54 4.882.861 6.902s3.704 3.226 6.163 3.226h13.847v77.611h-13.847c-4.143 0-7.5 3.357-7.5 7.5s3.357 7.5 7.5 7.5h497c4.143 0 7.5-3.357 7.5-7.5s-3.357-7.5-7.5-7.5zm-353.704-184.642c0-1.355 1.104-2.459 2.459-2.459h30.725c1.355 0 2.459 1.104 2.459 2.459v17.037h-35.643zm-85.431 0c0-1.355 1.103-2.459 2.458-2.459h30.726c1.355 0 2.458 1.104 2.458 2.459v17.037h-35.642z"/><path d="m69.109 417.601c-5.029 0-9.12 4.092-9.12 9.121v25.951c0 5.029 4.091 9.12 9.12 9.12h64.97c5.029 0 9.121-4.091 9.121-9.12v-25.951c0-5.029-4.092-9.121-9.121-9.121zm59.091 29.192h-53.211v-14.192h53.211z"/><path d="m377.921 417.601c-5.029 0-9.12 4.092-9.12 9.121v25.951c0 5.029 4.091 9.12 9.12 9.12h64.971c5.029 0 9.12-4.091 9.12-9.12v-25.951c0-5.029-4.091-9.121-9.12-9.121zm59.091 29.192h-53.211v-14.192h53.211z"/><path d="m171.929 439.698c0 4.143 3.357 7.5 7.5 7.5h153.143c4.143 0 7.5-3.357 7.5-7.5s-3.357-7.5-7.5-7.5h-153.143c-4.143 0-7.5 3.357-7.5 7.5z"/><path d="m271.049 407.632c4.143 0 7.5-3.357 7.5-7.5s-3.357-7.5-7.5-7.5h-30.097c-4.143 0-7.5 3.357-7.5 7.5s3.357 7.5 7.5 7.5z"/><path d="m158.842 98.033-13.355-3.807c-2.73-.779-5.655.047-7.573 2.131-1.919 2.084-2.501 5.071-1.503 7.723l4.204 11.171-10.59-5.85c-2.715-1.5-6.077-1.174-8.452.823-2.376 1.997-3.276 5.25-2.266 8.185l31.145 90.418c1.128 3.276 4.347 5.346 7.789 5.025l29.19-2.729c.508.864 1.198 1.638 2.054 2.26l62.106 45.123c1.314.955 2.861 1.432 4.408 1.432s3.094-.478 4.408-1.432l62.106-45.123c.857-.622 1.546-1.396 2.054-2.26l29.19 2.729c3.442.321 6.661-1.752 7.789-5.025l31.145-90.419c1.011-2.934.11-6.188-2.266-8.184-2.377-1.997-5.736-2.324-8.452-.823l-10.589 5.849 4.204-11.17c.998-2.651.416-5.639-1.503-7.723-1.918-2.083-4.845-2.91-7.573-2.131l-13.355 3.807 2.061-5.015c1.229-2.993.401-6.438-2.056-8.544-2.456-2.107-5.987-2.4-8.757-.728l-73.055 44.092c-2.249 1.357-3.624 3.793-3.624 6.421v22.88h-23.457v-22.88c0-2.627-1.375-5.063-3.624-6.421l-73.053-44.092c-2.772-1.673-6.302-1.38-8.758.728-2.457 2.106-3.285 5.551-2.056 8.543zm97.158 145.134-52.323-38.015 18.352-33.014h67.943l18.352 33.014zm26.729-104.675 49.984-30.168-12.157 29.587c-1.574 3.832.256 8.213 4.087 9.788 3.832 1.575 8.213-.256 9.788-4.086l11.469-27.913 10.406-2.967-21.742 57.771c-1.459 3.876.501 8.202 4.378 9.661 3.902 1.467 8.211-.525 9.661-4.378l14.641-38.902 8.917-4.926-22.874 66.409-29.083-2.718-19.264-34.655c-1.323-2.38-3.833-3.856-6.556-3.856h-11.655zm-91.285-.581-12.157-29.588 49.984 30.168v18.646h-11.655c-2.723 0-5.232 1.476-6.556 3.856l-19.264 34.655-29.083 2.718-22.874-66.409 8.917 4.926 14.64 38.902c1.452 3.858 5.765 5.843 9.661 4.378 3.877-1.459 5.837-5.785 4.378-9.661l-21.741-57.771 10.406 2.966 11.468 27.912c1.575 3.831 5.957 5.661 9.788 4.087 3.832-1.571 5.663-5.954 4.088-9.785z"/><path d="m274.201 178.188h-36.401c-4.143 0-7.5 3.358-7.5 7.5s3.357 7.5 7.5 7.5h36.401c4.143 0 7.5-3.358 7.5-7.5s-3.357-7.5-7.5-7.5z"/><path d="m262.82 199.227h-13.64c-4.143 0-7.5 3.358-7.5 7.5s3.357 7.5 7.5 7.5h13.64c4.143 0 7.5-3.358 7.5-7.5s-3.357-7.5-7.5-7.5z"/><path d="m224.177 62.839c-4.143 0-7.5 3.358-7.5 7.5s3.357 7.5 7.5 7.5h63.647c4.143 0 7.5-3.358 7.5-7.5s-3.357-7.5-7.5-7.5z"/></g></svg>