<svg id="Capa_1" enable-background="new 0 0 512.312 512.312" height="512" viewBox="0 0 512.312 512.312" width="512" xmlns="http://www.w3.org/2000/svg"><g><path d="m312.379 399.837c-3.715 0-7.207 1.447-9.833 4.073l-21.188 21.188c-2.627 2.627-4.074 6.119-4.074 9.834s1.447 7.207 4.073 9.833l21.189 21.189c2.627 2.626 6.118 4.073 9.833 4.073s7.207-1.447 9.833-4.073l21.188-21.188c2.627-2.627 4.074-6.119 4.074-9.834s-1.447-7.207-4.073-9.833l-21.188-21.188c-2.627-2.627-6.119-4.074-9.834-4.074zm0 54.737-19.642-19.642 19.642-19.642 19.642 19.642z"/><path d="m246.185 137.901h15.853c4.143 0 7.5-3.357 7.5-7.5s-3.357-7.5-7.5-7.5h-15.853c-4.143 0-7.5 3.357-7.5 7.5s3.357 7.5 7.5 7.5z"/><path d="m124.921 337.161-12.551 8.587c-3.418 2.339-4.294 7.006-1.954 10.425 1.452 2.123 3.804 3.266 6.196 3.266 1.459 0 2.934-.425 4.229-1.312l12.551-8.587c3.418-2.339 4.294-7.006 1.954-10.425-2.337-3.418-7.007-4.295-10.425-1.954z"/><path d="m135.346 306.617c-2.337-3.418-7.007-4.296-10.425-1.954l-12.551 8.587c-3.418 2.339-4.294 7.006-1.954 10.425 1.452 2.123 3.804 3.266 6.196 3.266 1.459 0 2.934-.425 4.229-1.312l12.551-8.587c3.418-2.339 4.294-7.006 1.954-10.425z"/><path d="m124.921 272.164-12.551 8.588c-3.418 2.339-4.293 7.006-1.954 10.425 1.453 2.123 3.804 3.266 6.196 3.266 1.459 0 2.934-.425 4.229-1.312l12.551-8.588c3.418-2.339 4.293-7.006 1.954-10.425-2.339-3.418-7.007-4.295-10.425-1.954z"/><path d="m388.569 294.442c1.459 0 2.934-.425 4.229-1.312l12.551-8.588c3.418-2.339 4.293-7.006 1.954-10.425-2.339-3.418-7.006-4.295-10.425-1.954l-12.551 8.588c-3.418 2.339-4.293 7.006-1.954 10.425 1.453 2.124 3.804 3.266 6.196 3.266z"/><path d="m382.373 323.675c1.452 2.123 3.804 3.266 6.196 3.266 1.459 0 2.934-.425 4.229-1.312l12.551-8.587c3.418-2.339 4.294-7.006 1.954-10.425-2.338-3.418-7.006-4.296-10.425-1.954l-12.551 8.587c-3.418 2.339-4.294 7.006-1.954 10.425z"/><path d="m382.373 356.173c1.452 2.123 3.804 3.266 6.196 3.266 1.459 0 2.934-.425 4.229-1.312l12.551-8.587c3.418-2.339 4.294-7.006 1.954-10.425-2.338-3.418-7.006-4.295-10.425-1.954l-12.551 8.587c-3.418 2.339-4.294 7.006-1.954 10.425z"/><path d="m193.212 372.425c-4.143 0-7.5 3.357-7.5 7.5s3.357 7.5 7.5 7.5h121.541c4.143 0 7.5-3.357 7.5-7.5s-3.357-7.5-7.5-7.5z"/><path d="m395 465.752c-3.734-1.787-8.214-.212-10.004 3.525l-13.426 28.035h-210.23l-14.663-41.896c-.649-1.853-1.643-3.534-2.951-4.999l-50.207-56.14v-146.61l29.259-15.781c4.825-2.603 7.822-7.624 7.822-13.106v-34.153c0-4.143-3.357-7.5-7.5-7.5s-7.5 3.357-7.5 7.5v34.089l-29.259 15.781c-4.825 2.603-7.822 7.624-7.822 13.106v146.675c0 3.664 1.345 7.188 3.788 9.924l50.214 56.175 14.688 41.967c2.089 5.963 7.737 9.97 14.056 9.97h210.375c5.697 0 10.969-3.32 13.432-8.46l13.455-28.097c1.787-3.736.209-8.216-3.527-10.005z"/><path d="m428.084 235.065-32.604-25.475v-100.884c0-6.58-4.226-12.3-10.516-14.234l-82.791-25.454c-4.563-1.401-9.383-.581-13.226 2.256-3.841 2.837-6.044 7.203-6.044 11.979v17.768h-5.66v-20.766c0-5.592-4.55-10.142-10.143-10.142h-6.151v-5.496h2.188c4.143 0 7.5-3.357 7.5-7.5s-3.357-7.5-7.5-7.5h-2.188v-4.596h2.188c4.143 0 7.5-3.357 7.5-7.5s-3.357-7.5-7.5-7.5h-2.188v-4.597h2.188c4.143 0 7.5-3.357 7.5-7.5s-3.357-7.5-7.5-7.5h-2.188v-2.924c0-4.143-3.357-7.5-7.5-7.5s-7.5 3.357-7.5 7.5v2.925h-2.188c-4.143 0-7.5 3.357-7.5 7.5s3.357 7.5 7.5 7.5h2.188v4.597h-2.188c-4.143 0-7.5 3.357-7.5 7.5s3.357 7.5 7.5 7.5h2.188v4.596h-2.188c-4.143 0-7.5 3.357-7.5 7.5s3.357 7.5 7.5 7.5h2.188v5.496h-4.83c-5.593 0-10.143 4.55-10.143 10.142v20.765h-5.917v-.382c0-8.211-6.681-14.892-14.893-14.892h-42.573c-3.114 0-6.102.955-8.638 2.761l-37.103 26.418c-3.916 2.788-6.255 7.323-6.255 12.132v28.569c0 4.143 3.357 7.5 7.5 7.5s7.5-3.357 7.5-7.5v-28.514l36.995-26.366h42.466v152.029c0 6.65 4.479 12.525 10.894 14.288l16.011 4.396c3.992 1.102 8.122-1.253 9.218-5.247 1.097-3.994-1.253-8.121-5.247-9.218l-15.875-4.358v-24.881h57.844v40.763l-12.968-3.562c-3.996-1.097-8.122 1.253-9.219 5.246-1.097 3.994 1.252 8.122 5.246 9.219l13.201 3.625c1.312.36 2.643.537 3.961.537 3.196 0 6.321-1.042 8.945-3.043 3.707-2.827 5.833-7.121 5.833-11.783v-185.36l82.576 25.388v100.805c0 4.61 2.082 8.884 5.71 11.725l32.604 25.476.011 151.886-21.202 44.274c-1.789 3.735-.211 8.215 3.525 10.004 1.045.5 2.147.737 3.234.737 2.796 0 5.48-1.572 6.77-4.263l21.202-44.274c.955-1.994 1.46-4.219 1.46-6.433v-151.932c.002-4.609-2.079-8.883-5.708-11.726zm-203.023-23.183v-23.1h57.844v23.1zm20.917-126.769h16.267v15.906h-16.267zm36.926 30.907v57.763h-57.844v-57.763z"/><path d="m184.533 129.342h-23.78c-4.143 0-7.5 3.357-7.5 7.5s3.357 7.5 7.5 7.5h23.78c4.143 0 7.5-3.357 7.5-7.5s-3.357-7.5-7.5-7.5z"/><path d="m357.541 136.842c0-4.143-3.357-7.5-7.5-7.5h-23.779c-4.143 0-7.5 3.357-7.5 7.5s3.357 7.5 7.5 7.5h23.779c4.143 0 7.5-3.358 7.5-7.5z"/></g></svg>