<svg id="Capa_1" enable-background="new 0 0 512.313 512.313" height="512" viewBox="0 0 512.313 512.313" width="512" xmlns="http://www.w3.org/2000/svg"><g><path d="m178.637 199.704 71.155 32.775c2.022.933 4.193 1.399 6.365 1.399 2.17-.001 4.34-.467 6.361-1.397l71.155-32.777c5.374-2.474 8.847-7.895 8.847-13.812v-125.674c0-8.385-6.821-15.206-15.206-15.206h-20.39v-33.381c0-3.991-2.23-7.555-5.821-9.299-3.587-1.741-7.768-1.293-10.907 1.173l-16.136 12.691-9.822-12.305c-1.972-2.473-4.916-3.891-8.078-3.892h-.003c-3.161 0-6.106 1.418-8.079 3.89l-9.823 12.307-16.14-12.692c-3.137-2.467-7.316-2.917-10.907-1.171-3.59 1.744-5.819 5.307-5.819 9.298v33.381h-20.39c-8.385 0-15.206 6.821-15.206 15.206v33.96c0 4.143 3.357 7.5 7.5 7.5s7.5-3.357 7.5-7.5v-33.96c0-.113.093-.206.206-.206h20.399c.323 10.427 8.905 18.811 19.408 18.811h62.699c10.504 0 19.087-8.383 19.409-18.811h20.399c.113 0 .206.093.206.206v125.675c0 .08-.047.153-.12.187l-71.159 32.778c-.053.025-.114.026-.171-.001l-71.159-32.777c-.071-.033-.118-.106-.118-.187v-62.715c0-4.143-3.357-7.5-7.5-7.5s-7.5 3.357-7.5 7.5v62.715c.001 5.916 3.473 11.336 8.845 13.811zm113.288-140.301c0 2.437-1.982 4.419-4.419 4.419h-62.699c-2.437 0-4.418-1.982-4.418-4.419v-38.174l12.231 9.62c4.449 3.497 10.939 2.746 14.47-1.678l9.066-11.358 9.067 11.358c3.53 4.424 10.023 5.175 14.47 1.678l12.231-9.62v38.174z"/><path d="m303.51 108.678c0-4.143-3.357-7.5-7.5-7.5h-79.706c-4.143 0-7.5 3.357-7.5 7.5s3.357 7.5 7.5 7.5h79.706c4.142 0 7.5-3.358 7.5-7.5z"/><path d="m232.778 131.944c-4.143 0-7.5 3.357-7.5 7.5s3.357 7.5 7.5 7.5h46.757c4.143 0 7.5-3.357 7.5-7.5s-3.357-7.5-7.5-7.5z"/><path d="m117.823 57.753 24.439 13.739c3.642 2.046 8.201.717 10.214-2.862 2.029-3.611.748-8.184-2.862-10.214l-24.439-13.739c-3.613-2.03-8.184-.749-10.214 2.862-2.029 3.611-.748 8.184 2.862 10.214z"/><path d="m108.444 100.794 27.244 6.622c4.023.976 8.08-1.487 9.06-5.517.979-4.025-1.492-8.081-5.517-9.06l-27.244-6.622c-4.032-.98-8.081 1.492-9.06 5.517-.978 4.026 1.493 8.081 5.517 9.06z"/><path d="m370.049 71.492 24.44-13.739c3.611-2.03 4.893-6.603 2.863-10.213-2.03-3.611-6.602-4.894-10.213-2.863l-24.44 13.739c-3.611 2.03-4.893 6.603-2.863 10.213 2.033 3.617 6.61 4.889 10.213 2.863z"/><path d="m367.565 101.899c.976 4.014 5.024 6.497 9.06 5.517l27.243-6.622c4.025-.979 6.495-5.034 5.517-9.06-.979-4.024-5.037-6.497-9.06-5.517l-27.243 6.622c-4.025.979-6.495 5.035-5.517 9.06z"/><path d="m309.039 292.406h-105.766c-4.143 0-7.5 3.357-7.5 7.5s3.357 7.5 7.5 7.5h105.766c4.143 0 7.5-3.357 7.5-7.5s-3.357-7.5-7.5-7.5z"/><path d="m104.269 444.312c4.143 0 7.5-3.357 7.5-7.5s-3.357-7.5-7.5-7.5h-44.042c-4.143 0-7.5 3.357-7.5 7.5s3.357 7.5 7.5 7.5z"/><path d="m390.344 372.005c0 4.143 3.357 7.5 7.5 7.5h64.443c4.143 0 7.5-3.357 7.5-7.5s-3.357-7.5-7.5-7.5h-64.443c-4.143 0-7.5 3.357-7.5 7.5z"/><path d="m504.656 331.223h-60.091c-4.143 0-7.5 3.357-7.5 7.5s3.357 7.5 7.5 7.5h52.591v151.09h-134.182v-151.09h52.592c4.143 0 7.5-3.357 7.5-7.5s-3.357-7.5-7.5-7.5h-52.592v-69.646c0-4.143-3.357-7.5-7.5-7.5h-198.635c-4.143 0-7.5 3.357-7.5 7.5v135.688h-141.683c-4.143 0-7.5 3.357-7.5 7.5v43.107c0 4.143 3.357 7.5 7.5 7.5s7.5-3.357 7.5-7.5v-35.607h134.183v85.049h-134.183v-20.441c0-4.143-3.357-7.5-7.5-7.5s-7.5 3.357-7.5 7.5v27.941c0 4.143 3.357 7.5 7.5 7.5h497c4.143 0 7.5-3.357 7.5-7.5v-166.09c0-4.144-3.357-7.501-7.5-7.501zm-340.317-62.147h183.635v228.237h-183.635z"/></g></svg>