<svg id="Capa_1" enable-background="new 0 0 512 512" height="512" viewBox="0 0 512 512" width="512" xmlns="http://www.w3.org/2000/svg"><g><path d="m476.165 0h-20.389c-6.224 0-11.287 5.062-11.287 11.286v1.709h-318.865c-4.143 0-7.5 3.357-7.5 7.5s3.357 7.5 7.5 7.5h318.865v16.641h-376.979v-16.641h29.113c4.143 0 7.5-3.357 7.5-7.5s-3.357-7.5-7.5-7.5h-29.113v-1.709c0-6.224-5.062-11.286-11.286-11.286h-20.39c-6.224 0-11.286 5.062-11.286 11.286v50.059c0 6.224 5.062 11.287 11.286 11.287h20.39c6.224 0 11.286-5.063 11.286-11.287v-1.709h21.613v444.864c0 2.485 1.231 4.811 3.289 6.206 1.26.855 2.73 1.294 4.212 1.294.936 0 1.875-.175 2.77-.53l34.588-13.75c3.85-1.53 5.729-5.892 4.199-9.74s-5.894-5.729-9.74-4.199l-24.317 9.667v-433.812h303.753v77.835c0 4.143 3.357 7.5 7.5 7.5s7.5-3.357 7.5-7.5v-77.835h21.612v1.709c0 6.224 5.063 11.287 11.287 11.287h20.389c6.224 0 11.287-5.063 11.287-11.287v-50.059c0-6.224-5.064-11.286-11.287-11.286zm-423.655 57.632h-12.962v-42.632h12.962zm419.942 0h-12.963v-42.632h12.963z"/><path d="m131.469 160.721c-2.275 2.01-3.115 5.193-2.126 8.063 5.483 15.923 23.223 63.162 29.562 81.563 1.107 3.213 4.274 5.346 7.789 5.025l26.29-2.458c.481.722 1.095 1.371 1.833 1.908l56.773 41.249c1.314.955 2.861 1.433 4.408 1.433s3.094-.478 4.408-1.433l56.774-41.249c.739-.537 1.353-1.186 1.833-1.908l26.29 2.458c3.451.315 6.599-1.74 7.749-4.912l29.562-81.563c1.042-2.875.234-6.094-2.041-8.137-2.274-2.042-5.561-2.498-8.309-1.154l-10.082 4.938 3.738-9.932c.998-2.651.416-5.639-1.503-7.723-1.918-2.083-4.847-2.91-7.573-2.132l-10.931 3.116 1.379-3.356c1.229-2.993.401-6.438-2.056-8.544-2.457-2.107-5.986-2.4-8.758-.728l-66.78 40.306c-2.249 1.357-3.624 3.793-3.624 6.421v20.271h-20.155v-20.271c0-2.628-1.375-5.063-3.625-6.421l-66.781-40.306c-2.77-1.674-6.301-1.381-8.757.728-2.457 2.106-3.285 5.551-2.056 8.544l1.379 3.356-10.931-3.116c-2.731-.779-5.656.049-7.573 2.132-1.919 2.084-2.501 5.071-1.503 7.723l3.738 9.931-10.081-4.937c-2.724-1.335-5.986-.894-8.26 1.115zm124.531 120.013-46.99-34.142 16.314-29.349h61.353l16.314 29.349zm25.078-94.528 43.711-26.382-10.372 25.242c-1.574 3.831.256 8.214 4.087 9.788 3.834 1.574 8.214-.256 9.788-4.087l10.365-25.226 7.982-2.276-19.424 51.613c-1.459 3.877.501 8.202 4.378 9.661 3.902 1.467 8.211-.525 9.661-4.378l13.225-35.142 7.708-3.774-21.259 58.652-25.84-2.416-17.444-31.382c-1.323-2.381-3.833-3.856-6.556-3.856h-10.011v-16.037zm-123.558-1.186 13.226 35.142c1.452 3.858 5.765 5.843 9.661 4.378 3.877-1.459 5.837-5.784 4.378-9.661-.038-.101-19.518-51.861-19.425-51.613l7.982 2.276 10.365 25.226c1.575 3.83 5.955 5.66 9.788 4.087 3.831-1.574 5.661-5.957 4.087-9.788l-10.372-25.242 43.712 26.382v16.038h-10.011c-2.723 0-5.232 1.476-6.556 3.856l-17.444 31.382-25.775 2.41c-5.327-15.017-14.757-40.43-21.412-58.69z"/><path d="m262.234 231.981h-12.469c-4.143 0-7.5 3.357-7.5 7.5s3.357 7.5 7.5 7.5h12.469c4.143 0 7.5-3.357 7.5-7.5s-3.358-7.5-7.5-7.5z"/><path d="m315.037 126.591c7.399 0 13.419-6.02 13.419-13.419v-16.913c0-7.399-6.02-13.42-13.419-13.42h-118.074c-7.399 0-13.419 6.021-13.419 13.42v16.913c0 7.399 6.02 13.419 13.419 13.419zm-116.493-28.752h114.911v13.752h-114.911z"/><path d="m159.964 440.197c4.04 0 7.838-1.573 10.695-4.431l25.218-25.219c2.856-2.855 4.431-6.654 4.431-10.694s-1.573-7.838-4.43-10.695l-25.219-25.219c-2.857-2.856-6.655-4.43-10.695-4.43s-7.839 1.574-10.693 4.43l-25.221 25.219c-2.856 2.857-4.43 6.655-4.43 10.695s1.574 7.839 4.43 10.694l25.22 25.219v.001c2.856 2.857 6.654 4.43 10.694 4.43zm-25.307-40.257c-.041-.042-.041-.134 0-.175l25.221-25.22c.021-.021.054-.03.087-.03s.067.01.088.031l25.219 25.219c.042.041.042.133 0 .176l-25.219 25.219c-.041.043-.134.042-.175.001 0 0 0 0 0-.001z"/><path d="m352.036 440.189c3.872 0 7.745-1.474 10.694-4.422l25.22-25.22c5.896-5.896 5.896-15.491-.001-21.39l-25.219-25.219c-5.898-5.897-15.491-5.896-21.39 0l-25.219 25.219c-2.856 2.857-4.43 6.655-4.43 10.695s1.574 7.839 4.43 10.693l25.219 25.22v.001c2.95 2.95 6.823 4.423 10.696 4.423zm-25.308-40.249c-.041-.042-.041-.134.001-.175l25.219-25.219c.049-.049.129-.047.176 0l25.219 25.218c.048.048.048.129 0 .176l-25.22 25.22c-.047.051-.128.049-.175 0v.001z"/><path d="m320.274 332.91c0-4.143-3.357-7.5-7.5-7.5h-113.029c-4.143 0-7.5 3.357-7.5 7.5s3.357 7.5 7.5 7.5h113.029c4.143 0 7.5-3.357 7.5-7.5z"/><path d="m229.617 353.288c-4.143 0-7.5 3.357-7.5 7.5s3.357 7.5 7.5 7.5h53.284c4.143 0 7.5-3.357 7.5-7.5s-3.357-7.5-7.5-7.5z"/><path d="m415.376 158.971c-4.143 0-7.5 3.357-7.5 7.5v326.977l-149.105-59.275c-1.779-.707-3.762-.707-5.541 0l-97.744 38.856c-3.85 1.53-5.729 5.892-4.199 9.74 1.53 3.85 5.895 5.731 9.74 4.199l94.973-37.755 156.605 62.257c.895.355 1.834.53 2.77.53 1.481 0 2.952-.438 4.212-1.294 2.058-1.396 3.289-3.72 3.289-6.206v-338.029c0-4.143-3.357-7.5-7.5-7.5z"/></g></svg>