<svg id="Capa_1" enable-background="new 0 0 512 512" height="512" viewBox="0 0 512 512" width="512" xmlns="http://www.w3.org/2000/svg"><g><path d="m242.298 261.26-66.781-40.306c-2.77-1.673-6.301-1.38-8.757.728-2.457 2.106-3.285 5.551-2.056 8.544l1.379 3.357-10.931-3.117c-2.725-.778-5.655.049-7.573 2.132-1.919 2.084-2.501 5.071-1.503 7.723l3.738 9.933-10.081-4.938c-2.728-1.336-5.989-.895-8.264 1.114-2.275 2.01-3.115 5.193-2.126 8.063 5.483 15.923 23.223 63.162 29.562 81.563 1.107 3.213 4.274 5.346 7.789 5.025l26.289-2.458c.481.722 1.095 1.371 1.834 1.908l56.773 41.248c1.314.955 2.861 1.433 4.408 1.433s3.094-.478 4.408-1.433l56.774-41.248c.739-.537 1.352-1.186 1.834-1.908l26.289 2.458c3.451.315 6.599-1.74 7.749-4.912l29.562-81.563c1.042-2.875.234-6.094-2.041-8.137-2.274-2.042-5.561-2.498-8.309-1.154l-10.082 4.938 3.738-9.933c.998-2.651.416-5.639-1.503-7.723-1.918-2.083-4.847-2.91-7.573-2.132l-10.931 3.117 1.379-3.357c1.229-2.993.401-6.438-2.056-8.544-2.456-2.106-5.986-2.399-8.758-.728l-66.78 40.306c-2.249 1.357-3.624 3.793-3.624 6.421v20.272h-20.155v-20.272c.004-2.627-1.371-5.062-3.621-6.42zm-92.573 5.652 7.796 3.818 13.226 35.142c1.452 3.858 5.765 5.843 9.661 4.378 3.877-1.459 5.837-5.784 4.378-9.661-2.139-5.683-17.58-46.711-19.425-51.613l7.983 2.276 10.365 25.226c1.574 3.83 5.955 5.66 9.788 4.087 3.831-1.574 5.661-5.957 4.087-9.788l-10.373-25.244 43.713 26.383v16.039h-10.011c-2.723 0-5.232 1.476-6.556 3.856l-17.444 31.382-25.775 2.41c-5.328-15.018-14.758-40.431-21.413-58.691zm106.275 99.531-46.99-34.141 16.314-29.349h61.353l16.314 29.349zm25.078-94.528 43.712-26.382-10.373 25.243c-1.574 3.831.256 8.214 4.087 9.788 3.833 1.573 8.214-.256 9.788-4.087l10.365-25.226 7.983-2.276-19.424 51.613c-1.459 3.877.501 8.202 4.378 9.661 3.902 1.467 8.211-.525 9.661-4.378l13.225-35.142 7.708-3.774-21.259 58.652-25.84-2.416-17.444-31.382c-1.323-2.381-3.833-3.856-6.556-3.856h-10.011z"/><path d="m262.234 317.691h-12.469c-4.143 0-7.5 3.357-7.5 7.5s3.357 7.5 7.5 7.5h12.469c4.143 0 7.5-3.357 7.5-7.5s-3.357-7.5-7.5-7.5z"/><path d="m174.713 148.09h-77.351c-8.03 0-14.563 6.533-14.563 14.563v34.197c0 8.029 6.533 14.562 14.563 14.562h77.351c8.029 0 14.562-6.533 14.562-14.562v-34.197c0-8.029-6.533-14.563-14.562-14.563zm-.438 48.324h-76.476v-33.324h76.477v33.324z"/><path d="m387.904 196.414c-4.143 0-7.5 3.357-7.5 7.5s3.357 7.5 7.5 7.5h26.734c8.03 0 14.563-6.533 14.563-14.562v-34.197c0-8.03-6.533-14.563-14.563-14.563h-77.351c-8.03 0-14.563 6.533-14.563 14.563v34.197c0 8.029 6.533 14.562 14.563 14.562h21.616c4.143 0 7.5-3.357 7.5-7.5s-3.357-7.5-7.5-7.5h-21.18v-33.324h76.478v33.323h-26.297z"/><path d="m491.586 115.039h-78.302c.087-7.24-2.624-14.32-7.576-19.65-5.345-5.754-12.915-9.054-20.769-9.054h-161.837c-4.113 0-7.933-1.852-10.479-5.081l-10.93-13.854c-5.411-6.856-13.523-10.789-22.257-10.789h-22.55c-15.632 0-28.349 12.717-28.349 28.349v8.109c0 .682.025 1.38.077 2.083l1.465 19.888h-46.019c-4.143 0-7.5 3.357-7.5 7.5s3.357 7.5 7.5 7.5h407.526c2.985 0 5.414 2.429 5.414 5.414v251.369c0 2.985-2.429 5.414-5.414 5.414h-332.838c-.092-.002-.184-.002-.277 0h-138.057c-2.985 0-5.414-2.429-5.414-5.414v-60.847l27.435-13.931c5.774-2.932 9.361-8.776 9.361-15.252v-71.31c0-6.477-3.587-12.321-9.361-15.253l-27.435-13.93v-60.848c0-2.985 2.429-5.414 5.414-5.414h34.646c4.143 0 7.5-3.357 7.5-7.5s-3.357-7.5-7.5-7.5h-34.646c-11.256.001-20.414 9.159-20.414 20.415v251.369c0 11.256 9.158 20.414 20.414 20.414h131.199l.695 9.433c.728 9.874 6.671 18.776 15.512 23.231l24.714 12.457c3.939 1.984 8.351 3.033 12.759 3.033h53.786c4.143 0 7.5-3.357 7.5-7.5s-3.357-7.5-7.5-7.5h-53.786c-2.075 0-4.153-.494-6.008-1.429l-24.714-12.456c-4.162-2.098-6.961-6.289-7.304-10.938l-.614-8.331h210.113l-.614 8.331c-.343 4.648-3.142 8.84-7.305 10.938l-24.714 12.456c-1.854.935-3.932 1.429-6.008 1.429h-50.048c-4.143 0-7.5 3.357-7.5 7.5s3.357 7.5 7.5 7.5h50.048c4.409 0 8.821-1.049 12.76-3.034l24.715-12.456c8.841-4.456 14.784-13.357 15.512-23.231l.695-9.433h99.78c11.256 0 20.414-9.158 20.414-20.414v-251.369c-.001-11.256-9.159-20.414-20.415-20.414zm-348.012-20.984c-.024-.328-.037-.658-.037-.987v-8.109c0-7.36 5.988-13.349 13.349-13.349h22.55c4.112 0 7.933 1.853 10.48 5.081l10.929 13.853c5.409 6.858 13.521 10.791 22.257 10.791h161.838c3.752 0 7.226 1.514 9.779 4.263 2.411 2.596 3.664 5.927 3.565 9.441h-253.164zm-107.93 129.55c.711.36 1.152 1.08 1.152 1.878v71.31c0 .797-.441 1.517-1.152 1.877l-20.644 10.482v-96.028z"/><path d="m174.406 83.362h-10.832c-4.143 0-7.5 3.357-7.5 7.5s3.357 7.5 7.5 7.5h10.832c4.143 0 7.5-3.357 7.5-7.5s-3.357-7.5-7.5-7.5z"/></g></svg>