<svg id="Capa_1" enable-background="new 0 0 512 512" height="512" viewBox="0 0 512 512" width="512" xmlns="http://www.w3.org/2000/svg"><g><path d="m323.187 336.547h-10.442v-188.217c0-3.364-2.24-6.316-5.479-7.223l-27.622-7.728 30.798-29.592c1.472-1.414 2.304-3.367 2.304-5.408v-50.603c0-2.25-1.01-4.381-2.752-5.806l-49.246-40.275c-2.762-2.26-6.734-2.26-9.496 0l-49.244 40.274c-1.742 1.425-2.752 3.556-2.752 5.806v28.102c0 4.143 3.357 7.5 7.5 7.5s7.5-3.357 7.5-7.5v-24.547l41.744-34.141 41.745 34.142v43.854l-9.554 9.18v-45.078c0-2.113-.892-4.128-2.455-5.55l-24.691-22.447c-2.859-2.6-7.23-2.6-10.09 0l-24.691 22.447c-1.563 1.422-2.455 3.437-2.455 5.55v277.261h-9.553v-231.723c0-4.143-3.357-7.5-7.5-7.5s-7.5 3.357-7.5 7.5v231.723h-10.442c-11.612 0-21.06 9.447-21.06 21.06v19.189c0 3.74 1.887 7.168 5.046 9.169 3.156 1.997 7.057 2.236 10.433.64 5.299-2.507 10.979-3.777 16.883-3.777 10.172 0 19.839 3.854 27.222 10.853.091.086.183.172.275.256v14.044c-3.571-.033-6.755 2.496-7.431 6.127-.759 4.072 1.927 7.988 5.999 8.747l1.432.267v12.162c-3.571-.032-6.755 2.496-7.431 6.127-.759 4.072 1.927 7.988 5.999 8.747l1.432.267v19.427h-2.908c-8.366 0-15.172 6.806-15.172 15.172v11.805c0 8.366 6.807 15.173 15.173 15.173h16.822c4.143 0 7.5-3.357 7.5-7.5s-3.357-7.5-7.5-7.5h-16.822c-.096 0-.173-.077-.173-.173v-11.805c0-.095.077-.172.172-.172h62.594c.096 0 .173.077.173.172v11.805c0 .096-.077.173-.173.173h-16.822c-4.143 0-7.5 3.357-7.5 7.5s3.357 7.5 7.5 7.5h16.822c8.366 0 15.173-6.807 15.173-15.173v-11.805c0-8.366-6.807-15.172-15.173-15.172h-2.908v-8.965c.022 0 .045.001.067.001 3.541 0 6.692-2.52 7.364-6.127.759-4.072-1.927-7.988-5.999-8.747l-1.433-.267v-12.161c.022 0 .045.001.067.001 3.541 0 6.692-2.52 7.364-6.127.759-4.072-1.927-7.988-5.999-8.747l-1.433-.267v-24.508c.092-.085.184-.17.275-.256 7.382-6.998 17.05-10.853 27.221-10.853 5.904 0 11.585 1.271 16.883 3.777 3.377 1.597 7.276 1.357 10.434-.64 3.159-2.001 5.046-5.429 5.046-9.169v-19.189c-.001-11.614-9.448-21.062-21.061-21.062zm-84.379-273.943 17.192-15.629 17.191 15.629v56.173l-13.405 12.88c-1.941 1.865-2.733 4.627-2.077 7.237s2.661 4.668 5.253 5.394l10.229 2.862v127.922c0 4.143 3.357 7.5 7.5 7.5s7.5-3.357 7.5-7.5v-123.726l9.554 2.673v182.528h-9.554v-32.528c0-4.143-3.357-7.5-7.5-7.5s-7.5 3.357-7.5 7.5v32.528h-9.691v-116.977c0-4.143-3.357-7.5-7.5-7.5s-7.5 3.357-7.5 7.5v116.978h-9.691v-273.944zm3.803 407.247v-16.631l26.777 4.99v11.642h-26.777zm.001-31.89v-12.044l26.777 4.99v12.044zm26.776-22.312-26.777-4.99v-10.45c1.075.058 25.712.057 26.776 0v15.44zm59.859-44.999c-5.567-1.875-11.384-2.822-17.362-2.822-14.027 0-27.359 5.315-37.541 14.967-1.667 1.581-3.904 2.451-6.298 2.451h-24.091c-2.394 0-4.631-.871-6.299-2.451-10.181-9.651-23.513-14.967-37.541-14.967-5.979 0-11.794.947-17.361 2.822v-13.043c0-3.341 2.719-6.06 6.06-6.06h134.374c3.341 0 6.06 2.719 6.06 6.06v13.043z"/><path d="m256 356.336c-4.143 0-7.5 3.357-7.5 7.5v9.528c0 4.143 3.357 7.5 7.5 7.5s7.5-3.357 7.5-7.5v-9.528c0-4.142-3.358-7.5-7.5-7.5z"/><path d="m154.045 85.248c-4.143 0-7.5 3.357-7.5 7.5v40.001c0 4.143 3.357 7.5 7.5 7.5s7.5-3.357 7.5-7.5v-40.001c0-4.143-3.358-7.5-7.5-7.5z"/><path d="m409.688 175.434v35.01c0 4.143 3.357 7.5 7.5 7.5s7.5-3.357 7.5-7.5v-35.01c0-4.143-3.357-7.5-7.5-7.5s-7.5 3.358-7.5 7.5z"/><path d="m154.045 153.85c-4.143 0-7.5 3.357-7.5 7.5v10.868c0 4.143 3.357 7.5 7.5 7.5s7.5-3.357 7.5-7.5v-10.868c0-4.142-3.358-7.5-7.5-7.5z"/><path d="m184.206 423.131c-4.143 0-7.5 3.357-7.5 7.5v15.293c0 4.143 3.357 7.5 7.5 7.5s7.5-3.357 7.5-7.5v-15.293c0-4.142-3.358-7.5-7.5-7.5z"/><path d="m370.144 372.323c-4.143 0-7.5 3.357-7.5 7.5v15.293c0 4.143 3.357 7.5 7.5 7.5s7.5-3.357 7.5-7.5v-15.293c0-4.143-3.357-7.5-7.5-7.5z"/><path d="m335.972 228.897c4.143 0 7.5-3.357 7.5-7.5v-10.868c0-4.143-3.357-7.5-7.5-7.5s-7.5 3.357-7.5 7.5v10.868c0 4.143 3.358 7.5 7.5 7.5z"/><path d="m139.979 311.669c-4.143 0-7.5 3.357-7.5 7.5v17.491c0 4.143 3.357 7.5 7.5 7.5s7.5-3.357 7.5-7.5v-17.491c0-4.142-3.357-7.5-7.5-7.5z"/><path d="m142.992 286.983v-10.225c0-8.361-6.802-15.163-15.163-15.163h-65.116c-8.36 0-15.162 6.802-15.162 15.163v10.225c0 8.361 6.802 15.163 15.162 15.163h65.116c8.361 0 15.163-6.802 15.163-15.163zm-15 0c0 .09-.073.163-.163.163h-65.116c-.09 0-.162-.073-.162-.163v-10.225c0-.09.072-.163.162-.163h65.116c.09 0 .163.073.163.163z"/><path d="m424.688 119.421v-10.225c0-8.361-6.802-15.163-15.163-15.163h-65.116c-8.36 0-15.162 6.802-15.162 15.163v10.225c0 8.36 6.802 15.162 15.162 15.162h65.116c8.361 0 15.163-6.801 15.163-15.162zm-80.441 0v-10.225c0-.09.072-.163.162-.163h65.116c.09 0 .163.073.163.163v10.225c0 .09-.073.162-.163.162h-65.116c-.09 0-.162-.072-.162-.162z"/><path d="m449.288 286.034h-65.117c-8.36 0-15.162 6.802-15.162 15.162v10.226c0 8.36 6.802 15.162 15.162 15.162h65.117c8.36 0 15.162-6.802 15.162-15.162v-10.226c0-8.361-6.802-15.162-15.162-15.162zm.162 25.387c0 .09-.072.162-.162.162h-65.117c-.09 0-.162-.072-.162-.162v-10.226c0-.09.072-.162.162-.162h65.117c.09 0 .162.072.162.162z"/></g></svg>