<svg id="Capa_1" enable-background="new 0 0 512 512" height="512" viewBox="0 0 512 512" width="512" xmlns="http://www.w3.org/2000/svg"><g><path d="m509.99 246.467-3.302-16.709c-.042-.209-.074-.34-.122-.521l-31.885-116.831c-2.377-8.711-6.247-16.848-11.505-24.186-2.413-3.367-7.099-4.142-10.465-1.729-3.367 2.412-4.141 7.098-1.729 10.465 4.217 5.885 7.321 12.411 9.228 19.398l29.299 107.356h-64.799l-24.92-56.373c-1.434-3.243-4.937-5.037-8.409-4.306-3.468.732-5.95 3.793-5.95 7.338v122.364l-129.432 72.946-129.431-72.946v-122.362c0-3.545-2.482-6.605-5.95-7.338-3.472-.738-6.977 1.063-8.409 4.306l-24.921 56.373h-64.797l29.298-107.356c5.122-18.769 19.053-34.059 37.265-40.9l81.595-30.655 60.539 54.771c7.072 6.399 15.942 9.599 24.812 9.599s17.74-3.199 24.812-9.599l60.541-54.77 81.593 30.654c2.925 1.1 5.803 2.445 8.552 4.001 1.167.66 2.435.973 3.686.973 2.615 0 5.155-1.37 6.535-3.809 2.039-3.605.77-8.181-2.836-10.221-3.423-1.936-7.009-3.613-10.66-4.985l-75.533-28.377c1.391-2.79 1.975-5.961 1.607-9.132-.604-5.205-3.701-9.825-8.288-12.359-.101-.056-19.521-10.777-19.421-10.725-1.025-.525-2.19-.822-3.411-.822h-134.354c-1.185 0-2.354.281-3.41.821-.207.106 1.51-.839-19.422 10.725-4.586 2.534-7.684 7.155-8.287 12.36-.367 3.171.217 6.342 1.607 9.131l-75.533 28.377c-22.705 8.53-40.073 27.593-46.46 50.992l-31.884 116.831c-.044.168-.077.297-.122.521l-3.302 16.708c-.897 4.542.273 9.198 3.212 12.775 2.938 3.576 7.279 5.627 11.908 5.627h8.59c4.143 0 7.5-3.357 7.5-7.5s-3.357-7.5-7.5-7.5h-8.59c-.063 0-.195 0-.318-.15-.125-.151-.099-.281-.087-.344l2.107-10.662h64.214l-2.139 10.821c-.038.194-.209.335-.406.335h-25.781c-4.143 0-7.5 3.357-7.5 7.5s3.357 7.5 7.5 7.5h25.781c7.338 0 13.697-5.225 15.121-12.425l3.747-18.961 12.199-27.596v287.239c0 10.407 8.467 18.874 18.873 18.874h251.115c10.407 0 18.874-8.467 18.874-18.874 0-4.593 0-283.052 0-287.238l12.198 27.595 3.748 18.961c1.422 7.199 7.781 12.425 15.12 12.425h63.372c4.629 0 8.97-2.051 11.908-5.628 2.941-3.576 4.111-8.232 3.214-12.773zm-205.448-231.467-41.917 40.262s0 0-.001.001c-3.715 3.568-9.535 3.569-13.25-.001l-41.917-40.262zm-131.938 10.632c.05-.427.266-.749.642-.957l14.367-7.938 51.37 49.342c4.771 4.584 10.895 6.875 17.017 6.875 6.123 0 12.246-2.291 17.018-6.875l-.001.001 51.371-49.343 14.367 7.938c.376.208.592.53.642.957.05.428-.087.791-.405 1.079l-68.241 61.737c-8.409 7.606-21.091 7.606-29.5 0l-68.241-61.737c-.318-.289-.455-.651-.406-1.079zm79.713 355.193c2.287 1.287 5.078 1.287 7.365 0l125.749-70.871v22.957l-70.196 39.561c-3.608 2.034-4.885 6.608-2.852 10.217 2.034 3.608 6.608 4.883 10.217 2.852l62.831-35.411v28.729l-124.522 70.18c-2.991 1.685-6.829 1.686-9.818-.001l-124.521-70.179v-28.729l117.155 66.028c3.737 2.107 7.982 3.222 12.275 3.222 4.292 0 8.536-1.114 12.274-3.221l29.019-16.354c3.608-2.034 4.885-6.608 2.852-10.217-2.034-3.608-6.608-4.883-10.217-2.852l-29.019 16.355c-2.991 1.686-6.829 1.686-9.818-.001l-124.521-70.179v-22.957zm129.24 116.175h-251.115c-2.136 0-3.873-1.738-3.873-3.874v-97.048l117.155 66.027c3.737 2.107 7.982 3.222 12.275 3.222 4.292 0 8.536-1.114 12.274-3.221l117.157-66.028v97.048c.001 2.136-1.737 3.874-3.873 3.874zm113.632-247.282c-.124.15-.256.15-.319.15h-63.372c-.196 0-.367-.14-.405-.333l-2.139-10.823h64.214l2.107 10.663c.012.063.038.191-.086.343z"/><path d="m160.44 70.606c-1.578-3.829-5.96-5.652-9.793-4.074l-42.495 17.524c-3.829 1.579-5.653 5.964-4.074 9.793 1.193 2.895 3.989 4.643 6.937 4.643.952 0 1.921-.183 2.856-.568l42.495-17.524c3.829-1.58 5.653-5.964 4.074-9.794z"/><path d="m400.986 98.492c2.947 0 5.743-1.749 6.937-4.643 1.579-3.829-.245-8.214-4.074-9.793l-42.495-17.524c-3.833-1.581-8.214.246-9.793 4.074-1.579 3.829.245 8.214 4.074 9.793l42.495 17.524c.935.387 1.904.569 2.856.569z"/><path d="m152.152 245.828c5.589 15.22 11.369 30.957 14.348 39.604 1.105 3.207 4.267 5.346 7.789 5.024l23.706-2.216c.444.597.983 1.137 1.613 1.594l51.983 37.769c1.314.955 2.861 1.433 4.408 1.433s3.094-.478 4.408-1.433l51.984-37.769c.63-.458 1.17-.997 1.613-1.594l23.706 2.216c3.451.315 6.599-1.74 7.749-4.912l27.068-74.682c1.042-2.875.234-6.094-2.041-8.137-2.275-2.042-5.561-2.499-8.309-1.154l-7.798 3.819 2.861-7.602c.998-2.651.416-5.639-1.503-7.723-1.918-2.083-4.846-2.908-7.573-2.132l-8.754 2.496.767-1.866c1.229-2.993.401-6.438-2.056-8.544-2.456-2.107-5.988-2.4-8.757-.728l-61.146 36.904c-2.25 1.357-3.625 3.793-3.625 6.421v17.929h-17.189v-17.929c0-2.628-1.375-5.063-3.625-6.421l-61.146-36.904c-2.77-1.673-6.3-1.38-8.757.728-2.457 2.106-3.285 5.551-2.056 8.544l.767 1.865-8.753-2.495c-2.729-.777-5.655.048-7.573 2.132-1.919 2.084-2.501 5.071-1.503 7.723l2.861 7.602-7.798-3.819c-2.728-1.336-5.989-.894-8.264 1.114-2.275 2.01-3.115 5.193-2.126 8.063 2.446 7.104 7.437 20.693 12.721 35.08zm103.847 66.438-42.2-30.661 14.484-26.058h55.432l14.485 26.058zm23.595-85.414 38.077-22.981-8.769 21.341c-1.574 3.831.256 8.214 4.087 9.788 3.834 1.574 8.214-.257 9.788-4.087l9.374-22.814 5.806-1.656-17.343 46.084c-1.459 3.877.501 8.202 4.378 9.661 3.902 1.467 8.211-.525 9.661-4.378l12.021-31.943 5.423-2.656-18.764 51.771-22.84-2.135-15.811-28.443c-1.323-2.381-3.833-3.856-6.556-3.856h-8.533v-13.696zm-102.248 30.958c1.452 3.858 5.765 5.843 9.661 4.378 3.877-1.459 5.837-5.784 4.378-9.661l-17.343-46.084 5.805 1.656 9.375 22.814c1.574 3.83 5.956 5.66 9.788 4.087 3.831-1.574 5.661-5.957 4.087-9.788l-8.77-21.34 38.077 22.98v13.695h-8.533c-2.724 0-5.232 1.476-6.556 3.856l-15.81 28.443-22.778 2.129c-3.223-9.069-7.923-21.866-12.496-34.318-2.249-6.124-4.444-12.103-6.409-17.484l5.502 2.694z"/><path d="m261.708 267.775h-11.417c-4.143 0-7.5 3.357-7.5 7.5s3.357 7.5 7.5 7.5h11.417c4.143 0 7.5-3.357 7.5-7.5s-3.357-7.5-7.5-7.5z"/><path d="m302.914 153.176c4.143 0 7.5-3.357 7.5-7.5s-3.357-7.5-7.5-7.5h-93.83c-4.143 0-7.5 3.357-7.5 7.5s3.357 7.5 7.5 7.5z"/></g></svg>