<svg id="Capa_1" enable-background="new 0 0 512.156 512.156" height="512" viewBox="0 0 512.156 512.156" width="512" xmlns="http://www.w3.org/2000/svg"><g><path d="m322.788 474.076c4.143 0 7.5-3.357 7.5-7.5v-8.22h8.22c4.143 0 7.5-3.357 7.5-7.5s-3.357-7.5-7.5-7.5h-8.22v-8.221c0-4.143-3.357-7.5-7.5-7.5s-7.5 3.357-7.5 7.5v8.221h-8.221c-4.143 0-7.5 3.357-7.5 7.5s3.357 7.5 7.5 7.5h8.221v8.22c0 4.143 3.358 7.5 7.5 7.5z"/><path d="m415.009 444.391c4.143 0 7.5-3.357 7.5-7.5v-1.825c0-4.143-3.357-7.5-7.5-7.5s-7.5 3.357-7.5 7.5v1.825c0 4.142 3.357 7.5 7.5 7.5z"/><path d="m415.009 474.146c4.143 0 7.5-3.357 7.5-7.5v-1.824c0-4.143-3.357-7.5-7.5-7.5s-7.5 3.357-7.5 7.5v1.824c0 4.143 3.357 7.5 7.5 7.5z"/><path d="m428.975 458.356h1.825c4.143 0 7.5-3.357 7.5-7.5s-3.357-7.5-7.5-7.5h-1.825c-4.143 0-7.5 3.357-7.5 7.5s3.357 7.5 7.5 7.5z"/><path d="m399.219 458.356h1.825c4.143 0 7.5-3.357 7.5-7.5s-3.357-7.5-7.5-7.5h-1.825c-4.143 0-7.5 3.357-7.5 7.5s3.357 7.5 7.5 7.5z"/><path d="m388.717 430.236c4.143 0 7.5-3.357 7.5-7.5s-3.357-7.5-7.5-7.5h-39.565c-4.143 0-7.5 3.357-7.5 7.5s3.357 7.5 7.5 7.5z"/><path d="m410.123 389.556h-4.46v-5.562c0-10.703-8.707-19.41-19.41-19.41h-13.308v-240.355c16.096-2.102 28.564-15.903 28.564-32.561s-12.469-30.459-28.564-32.561v-37.137c0-12.115-9.855-21.97-21.968-21.97h-328.929c-12.114 0-21.97 9.855-21.97 21.97v370.712c0 4.143 3.357 7.5 7.5 7.5s7.5-3.357 7.5-7.5v-370.712c0-3.843 3.127-6.97 6.97-6.97h328.929c3.843 0 6.969 3.127 6.969 6.97v38.658c-12.857 4.455-22.114 16.687-22.114 31.04s9.257 26.585 22.114 31.04v241.875h-6.331c-10.703 0-19.41 8.707-19.41 19.41v5.562h-4.459c-33.802 0-61.301 27.499-61.301 61.301 0 6.448 1.001 12.666 2.855 18.508h-247.252c-3.843 0-6.97-3.126-6.97-6.969v-40.714c0-4.143-3.357-7.5-7.5-7.5s-7.5 3.357-7.5 7.5v40.714c0 12.113 9.855 21.969 21.97 21.969h254.386c10.958 16.724 29.866 27.792 51.311 27.792h82.378c13.195 0 25.771-4.136 36.371-11.96 3.333-2.46 4.04-7.156 1.58-10.488s-7.156-4.04-10.488-1.58c-8.001 5.906-17.498 9.028-27.463 9.028h-82.378c-25.53 0-46.301-20.77-46.301-46.3s20.771-46.301 46.301-46.301h82.378c25.53 0 46.3 20.771 46.3 46.301 0 6.054-1.159 11.952-3.445 17.533-1.57 3.833.265 8.213 4.098 9.783 3.834 1.569 8.213-.265 9.783-4.098 3.028-7.394 4.564-15.205 4.564-23.219 0-33.8-27.499-61.299-61.3-61.299zm-59.292-297.888c0-9.836 8.003-17.839 17.839-17.839 9.837 0 17.84 8.003 17.84 17.839s-8.003 17.839-17.84 17.839c-9.836 0-17.839-8.003-17.839-17.839zm-3.627 297.888v-5.562c0-2.432 1.979-4.41 4.41-4.41h34.639c2.432 0 4.41 1.979 4.41 4.41v5.562z"/><path d="m295.158 220.794v-63.162c0-4.143-3.357-7.5-7.5-7.5h-21.399v-7.133c0-4.143-3.357-7.5-7.5-7.5h-28.899c-4.143 0-7.5 3.357-7.5 7.5v36.153h-13.898v-52.792c0-4.143-3.357-7.5-7.5-7.5h-28.899c-4.143 0-7.5 3.357-7.5 7.5v33.958h-13.898v-9.083c0-4.143-3.357-7.5-7.5-7.5h-28.899c-4.143 0-7.5 3.357-7.5 7.5v20.545h-21.4c-4.143 0-7.5 3.357-7.5 7.5v41.514c0 4.143 3.357 7.5 7.5 7.5h202.292c4.143 0 7.5-3.357 7.5-7.5zm-202.292-34.014h13.898v26.514h-13.898zm28.899-28.045h13.899v54.559h-13.899zm28.899 16.583h13.898v37.976h-13.898zm28.898-41.458h13.899v79.434h-13.899zm28.9 60.292h13.898v19.142h-13.898zm28.898-43.653h13.898v62.795h-13.898zm42.798 62.795h-13.899v-48.162h13.899z"/><path d="m280.243 253.366h-187.463c-4.143 0-7.5 3.357-7.5 7.5s3.357 7.5 7.5 7.5h187.463c4.143 0 7.5-3.357 7.5-7.5s-3.357-7.5-7.5-7.5z"/><path d="m280.243 286.104h-187.463c-4.143 0-7.5 3.357-7.5 7.5s3.357 7.5 7.5 7.5h187.463c4.143 0 7.5-3.357 7.5-7.5s-3.357-7.5-7.5-7.5z"/><path d="m280.243 318.841h-187.463c-4.143 0-7.5 3.357-7.5 7.5s3.357 7.5 7.5 7.5h187.463c4.143 0 7.5-3.357 7.5-7.5s-3.357-7.5-7.5-7.5z"/><path d="m280.243 351.578h-187.463c-4.143 0-7.5 3.357-7.5 7.5s3.357 7.5 7.5 7.5h187.463c4.143 0 7.5-3.357 7.5-7.5s-3.357-7.5-7.5-7.5z"/><path d="m280.243 384.314h-187.463c-4.143 0-7.5 3.357-7.5 7.5s3.357 7.5 7.5 7.5h187.463c4.143 0 7.5-3.357 7.5-7.5s-3.357-7.5-7.5-7.5z"/><path d="m415.592 65.585 28.801-28.802h60.186c4.143 0 7.5-3.357 7.5-7.5s-3.357-7.5-7.5-7.5h-63.292c-1.989 0-3.896.79-5.304 2.196l-30.998 30.998c-2.929 2.93-2.929 7.678 0 10.607 2.93 2.93 7.677 2.929 10.607.001z"/><path d="m504.578 49.675h-48.848c-4.143 0-7.5 3.357-7.5 7.5s3.357 7.5 7.5 7.5h48.848c4.143 0 7.5-3.357 7.5-7.5s-3.357-7.5-7.5-7.5z"/><path d="m504.578 75.466h-48.848c-4.143 0-7.5 3.357-7.5 7.5s3.357 7.5 7.5 7.5h48.848c4.143 0 7.5-3.357 7.5-7.5s-3.357-7.5-7.5-7.5z"/><path d="m504.578 101.256h-48.848c-4.143 0-7.5 3.357-7.5 7.5s3.357 7.5 7.5 7.5h48.848c4.143 0 7.5-3.357 7.5-7.5s-3.357-7.5-7.5-7.5z"/><path d="m194.09 45.966c4.143 0 7.5-3.357 7.5-7.5s-3.357-7.5-7.5-7.5h-122.447c-7.402 0-13.424 6.022-13.424 13.425v22.83c0 7.402 6.021 13.424 13.424 13.424h229.738c7.402 0 13.425-6.021 13.425-13.424v-22.83c0-7.402-6.022-13.425-13.425-13.425h-78.291c-4.143 0-7.5 3.357-7.5 7.5s3.357 7.5 7.5 7.5h76.716v19.679h-226.587v-19.679z"/></g></svg>