<svg id="Capa_1" enable-background="new 0 0 512 512" height="512" viewBox="0 0 512 512" width="512" xmlns="http://www.w3.org/2000/svg"><g><path d="m504.5 382.534c4.143 0 7.5-3.357 7.5-7.5v-216.116c0-6.573-5.348-11.921-11.921-11.921h-131.443l24.056-69.839c1.011-2.934.11-6.188-2.266-8.184-2.377-1.997-5.736-2.324-8.452-.823l-10.589 5.849 4.204-11.17c.998-2.651.416-5.639-1.503-7.722-1.918-2.083-4.849-2.91-7.572-2.132l-13.356 3.807 2.061-5.015c1.229-2.993.401-6.438-2.056-8.544-2.456-2.106-5.986-2.399-8.758-.728l-73.053 44.092c-2.249 1.357-3.624 3.793-3.624 6.421v22.88h-23.458v-22.88c0-2.627-1.375-5.063-3.624-6.421l-73.053-44.092c-2.772-1.672-6.302-1.38-8.758.728-2.457 2.106-3.285 5.551-2.056 8.543l2.061 5.016-13.356-3.807c-2.728-.778-5.655.049-7.572 2.132-1.919 2.084-2.501 5.071-1.503 7.723l4.206 11.169-10.59-5.85c-2.715-1.5-6.076-1.174-8.452.823s-3.276 5.25-2.266 8.184l13.097 38.022c1.07 3.107 3.979 5.06 7.091 5.06.81 0 1.634-.132 2.442-.411 3.916-1.349 5.998-5.618 4.648-9.534l-6.746-19.586 8.917 4.926 14.641 38.902c1.452 3.858 5.765 5.843 9.661 4.378 3.877-1.459 5.837-5.785 4.378-9.661l-21.741-57.771 10.406 2.967 11.468 27.912c1.575 3.831 5.956 5.663 9.788 4.087 3.831-1.574 5.661-5.956 4.087-9.787l-12.157-29.588 49.984 30.168v18.646h-11.655c-2.723 0-5.232 1.476-6.556 3.856l-19.264 34.655-29.083 2.718-8.235-23.909c-1.349-3.916-5.616-5.996-9.533-4.649-3.916 1.349-5.998 5.618-4.648 9.534l3.067 8.903h-131.443c-6.573.002-11.921 5.349-11.921 11.923v299.745c0 6.573 5.348 11.921 11.921 11.921h488.158c6.573 0 11.921-5.348 11.921-11.921v-54.629c0-4.143-3.357-7.5-7.5-7.5s-7.5 3.357-7.5 7.5v51.55h-482v-293.587h133.53l1.922 5.58c1.12 3.251 4.321 5.349 7.789 5.025l29.19-2.729c.509.864 1.198 1.637 2.054 2.259l62.106 45.124c1.314.955 2.861 1.432 4.408 1.432s3.094-.478 4.408-1.432l62.106-45.123c.857-.622 1.546-1.396 2.054-2.26l29.19 2.729c3.442.321 6.661-1.752 7.789-5.025l1.922-5.58h133.532v213.037c0 4.142 3.357 7.5 7.5 7.5zm-248.5-180.617-52.323-38.015 18.352-33.014h67.943l18.352 33.014zm64.203-47.518-19.264-34.655c-1.323-2.38-3.833-3.856-6.556-3.856h-11.654v-18.646l49.983-30.168-12.157 29.587c-1.574 3.832.256 8.213 4.087 9.788 3.832 1.576 8.214-.256 9.788-4.086l11.47-27.913 10.406-2.967-21.742 57.771c-1.459 3.876.501 8.202 4.378 9.661 3.902 1.467 8.211-.525 9.661-4.378l14.641-38.902 8.917-4.926-22.874 66.409z"/><path d="m274.201 136.938h-36.401c-4.143 0-7.5 3.358-7.5 7.5s3.357 7.5 7.5 7.5h36.401c4.143 0 7.5-3.358 7.5-7.5s-3.357-7.5-7.5-7.5z"/><path d="m262.82 157.977h-13.64c-4.143 0-7.5 3.358-7.5 7.5s3.357 7.5 7.5 7.5h13.64c4.143 0 7.5-3.358 7.5-7.5s-3.357-7.5-7.5-7.5z"/><path d="m140.837 373.155c4.143 0 7.5-3.357 7.5-7.5v-58.362c0-4.143-3.357-7.5-7.5-7.5h-12.475c-4.143 0-7.5 3.357-7.5 7.5s3.357 7.5 7.5 7.5h4.975v50.862c0 4.143 3.357 7.5 7.5 7.5z"/><path d="m95.021 378.106c4.143 0 7.5-3.357 7.5-7.5v-1.58c7.398-2.669 13.038-9.14 14.405-17.276 1.695-10.08-3.761-19.184-13.576-22.653-4.796-1.695-10.081-3.729-12.92-5.955-.218-.171-.539-1.06-.298-2.341.118-.625.658-2.712 2.672-3.317 6.126-1.848 11.87.662 12.097.764 3.721 1.758 8.165.187 9.955-3.521 1.801-3.73.236-8.214-3.493-10.015-.614-.297-3.975-1.836-8.844-2.55-.096-4.059-3.416-7.319-7.498-7.319-4.143 0-7.5 3.357-7.5 7.5v1.096c-6.237 2.26-10.843 7.761-12.129 14.585-1.255 6.657.96 13.141 5.78 16.922 4.534 3.556 10.937 6.088 17.179 8.295 3.741 1.322 4.122 4.006 3.783 6.023-.378 2.246-2.311 6.055-7.163 6.087-5.02.032-6.208-.152-9.879-2.554-3.468-2.267-8.113-1.296-10.382 2.171-2.268 3.466-1.296 8.114 2.171 10.382 4.003 2.618 7.17 3.915 10.64 4.521v.737c0 4.141 3.357 7.498 7.5 7.498z"/><path d="m179.288 374.345c13.441 0 24.377-10.935 24.377-24.376v-26.99c0-13.441-10.936-24.377-24.377-24.377s-24.376 10.936-24.376 24.377v26.99c0 13.442 10.935 24.376 24.376 24.376zm-9.376-51.366c0-5.171 4.206-9.377 9.376-9.377 5.171 0 9.377 4.206 9.377 9.377v26.99c0 5.17-4.206 9.376-9.377 9.376-5.17 0-9.376-4.206-9.376-9.376z"/><path d="m208.671 322.979v26.99c0 13.441 10.936 24.376 24.377 24.376s24.377-10.935 24.377-24.376v-26.99c0-13.441-10.936-24.377-24.377-24.377s-24.377 10.936-24.377 24.377zm33.754 0v26.99c0 5.17-4.206 9.376-9.377 9.376s-9.377-4.206-9.377-9.376v-26.99c0-5.171 4.206-9.377 9.377-9.377s9.377 4.206 9.377 9.377z"/><path d="m282.242 322.979v26.99c0 13.441 10.936 24.376 24.377 24.376s24.377-10.935 24.377-24.376v-26.99c0-13.441-10.936-24.377-24.377-24.377s-24.377 10.936-24.377 24.377zm33.754 0v26.99c0 5.17-4.206 9.376-9.377 9.376s-9.377-4.206-9.377-9.376v-26.99c0-5.171 4.206-9.377 9.377-9.377s9.377 4.206 9.377 9.377z"/><path d="m384.755 349.969v-26.99c0-13.441-10.936-24.377-24.377-24.377s-24.377 10.936-24.377 24.377v26.99c0 13.441 10.936 24.376 24.377 24.376s24.377-10.934 24.377-24.376zm-33.754 0v-26.99c0-5.171 4.206-9.377 9.377-9.377s9.377 4.206 9.377 9.377v26.99c0 5.17-4.206 9.376-9.377 9.376s-9.377-4.206-9.377-9.376z"/><path d="m389.761 322.979v26.99c0 13.441 10.936 24.376 24.377 24.376s24.376-10.935 24.376-24.376v-26.99c0-13.441-10.935-24.377-24.376-24.377s-24.377 10.936-24.377 24.377zm33.753 0v26.99c0 5.17-4.206 9.376-9.376 9.376-5.171 0-9.377-4.206-9.377-9.376v-26.99c0-5.171 4.206-9.377 9.377-9.377 5.17 0 9.376 4.206 9.376 9.377z"/><path d="m262.093 353.891v3.901c0 4.143 3.357 7.5 7.5 7.5s7.5-3.357 7.5-7.5v-3.901c0-4.143-3.357-7.5-7.5-7.5s-7.5 3.358-7.5 7.5z"/><path d="m127.196 211.188c0-4.142-3.357-7.5-7.5-7.5h-64.073c-4.143 0-7.5 3.358-7.5 7.5s3.357 7.5 7.5 7.5h64.073c4.143 0 7.5-3.358 7.5-7.5z"/><path d="m463.878 211.188c0-4.142-3.357-7.5-7.5-7.5h-64.073c-4.143 0-7.5 3.358-7.5 7.5s3.357 7.5 7.5 7.5h64.073c4.143 0 7.5-3.358 7.5-7.5z"/><path d="m163.065 425.752h185.87c4.143 0 7.5-3.357 7.5-7.5s-3.357-7.5-7.5-7.5h-185.87c-4.143 0-7.5 3.357-7.5 7.5s3.358 7.5 7.5 7.5z"/><path d="m171.91 282.008c4.143 0 7.5-3.357 7.5-7.5s-3.357-7.5-7.5-7.5h-16.704v-19.917h201.588v19.917h-155.884c-4.143 0-7.5 3.357-7.5 7.5s3.357 7.5 7.5 7.5h157.605c7.321 0 13.278-5.957 13.278-13.278v-23.36c0-7.322-5.957-13.279-13.278-13.279h-205.03c-7.322 0-13.279 5.957-13.279 13.279v23.36c0 7.321 5.957 13.278 13.279 13.278z"/></g></svg>