<svg id="Capa_1" enable-background="new 0 0 512 512" height="512" viewBox="0 0 512 512" width="512" xmlns="http://www.w3.org/2000/svg"><g><path d="m241.767 424.982c0-18.341-14.921-33.262-33.262-33.262s-33.262 14.921-33.262 33.262 14.921 33.262 33.262 33.262 33.262-14.921 33.262-33.262zm-51.523 0c0-10.069 8.192-18.262 18.262-18.262s18.262 8.192 18.262 18.262-8.192 18.262-18.262 18.262-18.262-8.193-18.262-18.262z"/><path d="m308.978 452.174c4.143 0 7.5-3.357 7.5-7.5v-8.22h8.221c4.143 0 7.5-3.357 7.5-7.5s-3.357-7.5-7.5-7.5h-8.221v-8.221c0-4.143-3.357-7.5-7.5-7.5s-7.5 3.357-7.5 7.5v8.221h-8.22c-4.143 0-7.5 3.357-7.5 7.5s3.357 7.5 7.5 7.5h8.22v8.22c0 4.143 3.358 7.5 7.5 7.5z"/><path d="m401.2 422.489c4.143 0 7.5-3.357 7.5-7.5v-1.825c0-4.143-3.357-7.5-7.5-7.5s-7.5 3.357-7.5 7.5v1.825c0 4.142 3.357 7.5 7.5 7.5z"/><path d="m401.2 452.245c4.143 0 7.5-3.357 7.5-7.5v-1.824c0-4.143-3.357-7.5-7.5-7.5s-7.5 3.357-7.5 7.5v1.824c0 4.142 3.357 7.5 7.5 7.5z"/><path d="m415.166 436.455h1.824c4.143 0 7.5-3.357 7.5-7.5s-3.357-7.5-7.5-7.5h-1.824c-4.143 0-7.5 3.357-7.5 7.5s3.357 7.5 7.5 7.5z"/><path d="m385.41 436.455h1.824c4.143 0 7.5-3.357 7.5-7.5s-3.357-7.5-7.5-7.5h-1.824c-4.143 0-7.5 3.357-7.5 7.5s3.357 7.5 7.5 7.5z"/><path d="m374.907 408.334c4.143 0 7.5-3.357 7.5-7.5s-3.357-7.5-7.5-7.5h-39.565c-4.143 0-7.5 3.357-7.5 7.5s3.357 7.5 7.5 7.5z"/><path d="m396.313 367.654h-4.46v-5.562c0-10.703-8.707-19.41-19.41-19.41h-9.819v-7.346c0-10.978-8.932-19.909-19.909-19.909-2.707 0-4.909-2.202-4.909-4.909v-18.654c0-4.143-3.357-7.5-7.5-7.5s-7.5 3.357-7.5 7.5v18.654c0 10.978 8.932 19.909 19.909 19.909 2.707 0 4.909 2.202 4.909 4.909v7.346h-9.818c-10.703 0-19.41 8.707-19.41 19.41v5.562h-4.46c-2.142 0-4.258.112-6.344.328-13.925-28.972-40.061-50.596-71.109-58.755v-4.533c20.639-6.873 37.931-21.133 48.727-39.631 2.566 3.301 6.564 5.438 11.06 5.438h12.185c7.729 0 14.016-6.288 14.016-14.016v-1.386l20.315-4.823c11.682-2.773 19.84-13.096 19.84-25.103v-26.07c0-11.085-6.962-20.72-17.222-24.318v-37.888c-.002-75.485-61.413-136.897-136.898-136.897-41.645 0-80.527 18.63-106.679 51.112-2.598 3.227-2.088 7.948 1.139 10.545 3.228 2.599 7.949 2.087 10.545-1.138 23.29-28.928 57.914-45.519 94.995-45.519 67.214 0 121.896 54.683 121.896 121.896v34.164l-7.934-1.884v-1.386c0-3.847-1.56-7.336-4.078-9.871v-18.388c0-60.591-49.294-109.885-109.885-109.885s-109.885 49.295-109.885 109.886v18.389c-2.518 2.535-4.077 6.023-4.077 9.87v1.386l-7.934 1.884v-34.164c0-18.692 4.122-36.63 12.251-53.315 1.814-3.724.267-8.213-3.457-10.027-3.725-1.815-8.213-.266-10.027 3.457-9.135 18.75-13.767 38.897-13.767 59.885v37.888c-10.26 3.598-17.223 13.233-17.223 24.318v26.07c0 12.006 8.159 22.329 19.841 25.103l20.315 4.823v1.386c0 7.728 6.287 14.016 14.016 14.016h12.184c4.496 0 8.493-2.137 11.06-5.438 10.796 18.497 28.087 32.757 48.726 39.631v4.551c-22.529 5.929-42.888 19.088-57.609 37.345-15.669 19.435-24.299 43.912-24.299 68.925v6.72c0 4.143 3.357 7.5 7.5 7.5s7.5-3.357 7.5-7.5v-6.72c0-42.188 27.188-78.54 66.908-90.684v4.875c0 15.427 12.551 27.977 27.978 27.977s27.977-12.55 27.977-27.977v-4.874c24.07 7.429 44.363 24.317 56.094 46.669-23.3 8.69-39.942 31.163-39.942 57.455 0 29.974 21.632 54.976 50.101 60.256-1.581 4.527-5.882 7.79-10.941 7.79h-166.577c-6.395 0-11.598-5.203-11.598-11.598v-34.169c0-4.143-3.357-7.5-7.5-7.5s-7.5 3.357-7.5 7.5v34.169c0 14.666 11.932 26.598 26.598 26.598h166.576c13.008 0 23.857-9.39 26.145-21.746h78.374c13.195 0 25.772-4.136 36.372-11.96 3.333-2.46 4.04-7.156 1.58-10.488-2.461-3.332-7.157-4.04-10.488-1.58-8.001 5.906-17.498 9.028-27.464 9.028h-82.378c-25.53 0-46.301-20.77-46.301-46.3s20.771-46.301 46.301-46.301h82.378c25.53 0 46.301 20.771 46.301 46.301 0 6.052-1.159 11.951-3.446 17.533-1.57 3.833.265 8.213 4.098 9.783 3.835 1.569 8.213-.264 9.783-4.098 3.029-7.395 4.565-15.207 4.565-23.219 0-33.802-27.499-61.301-61.301-61.301zm-88.844-112.154h-10.216c0-30.104 0-62.825 0-86.725h10.216zm31.85-66.905c4.89 1.161 8.305 5.481 8.305 10.507v26.07c0 5.026-3.415 9.347-8.305 10.508l-16.851 4v-55.086zm-130.813-143.948c52.319 0 94.885 42.565 94.885 94.885v14.243h-6.138v-.949c0-5.603-3.422-10.384-8.718-12.181-5.328-1.807-10.985-.083-14.416 4.392-9.035 11.785-19.439 17.544-31.74 17.544-.061 0-.119 0-.18 0l2.801-17.596c.884-5.544-1.883-10.97-6.884-13.502-5.023-2.542-11.061-1.556-15.025 2.455-9.266 9.373-17.978 15.625-26.529 19.024l1.351-13.649c.505-5.107-1.943-9.869-6.389-12.427-4.447-2.56-9.797-2.283-13.961.721-13.444 9.699-28.729 15.664-46.728 18.237-4.636.662-8.427 3.796-10.119 7.932h-7.096v-14.243c0-52.321 42.565-94.886 94.886-94.886zm-130.814 191.034c-4.891-1.161-8.306-5.482-8.306-10.508v-26.07c0-5.026 3.415-9.347 8.306-10.507l16.851-4v55.086zm42.066 19.819h-10.215c0-25.335 0-61.459 0-86.725h10.215v51.693zm15-35.032c0-15.948 0-45.312 0-60.044 17.802-2.782 33.842-8.836 47.775-18.026l-1.229 12.411c-.429 4.328 1.334 8.544 4.715 11.278 3.391 2.742 7.896 3.586 12.056 2.257 10.394-3.321 20.615-9.698 31.11-19.428l-2.177 13.675c-.571 3.585.401 7.268 2.669 10.104 2.242 2.804 5.573 4.543 9.139 4.771 16.774 1.075 31.362-5.229 43.437-18.742v61.744c0 40.664-33.083 73.747-73.747 73.747-40.665 0-73.748-33.083-73.748-73.747zm73.748 122.213c-7.156 0-12.978-5.821-12.978-12.977v-21.441c4.237.624 8.57.951 12.978.951s8.74-.328 12.977-.951v21.441c-.001 7.156-5.822 12.977-12.977 12.977zm124.889 24.973v-5.562c0-2.432 1.979-4.41 4.41-4.41h34.638c2.432 0 4.41 1.979 4.41 4.41v5.562z"/></g></svg>