<svg id="Capa_1" enable-background="new 0 0 512 512" height="512" viewBox="0 0 512 512" width="512" xmlns="http://www.w3.org/2000/svg"><g><path d="m410.218 87.728c-4.323-.667-8.679-1.312-12.976-1.919-5.63-10.017-16.363-16.8-28.65-16.8-9.597 0-18.245 4.138-24.255 10.724-59.497-5.255-119.815-5.174-179.324.247-4.125.375-7.164 4.023-6.788 8.149.354 3.894 3.625 6.82 7.46 6.819.228 0 .458-.01.689-.031 56.505-5.146 113.748-5.406 170.294-.783-.598 2.475-.915 5.058-.915 7.714 0 2.259.229 4.466.666 6.597-26.858-2.222-53.856-3.347-80.419-3.347-49.678 0-100.062 3.889-149.751 11.56-7.797 1.203-13.29 8.543-12.246 16.361l19.534 146.45c.503 3.77 3.724 6.51 7.425 6.51.33 0 .665-.021 1.001-.066 4.106-.548 6.99-4.32 6.443-8.426l-19.483-146.064c48.811-7.515 98.292-11.324 147.077-11.324 29.249 0 59.037 1.386 88.571 4.12 5.999 6.438 14.548 10.469 24.021 10.469 6.877 0 13.267-2.125 18.548-5.753 3.206.466 6.905 1.055 10.504 1.629 1.919.306 3.77.601 5.435.858l-29.15 218.545-117.927 85.678-80.03-58.357c-2.099-16.098-15.901-28.569-32.563-28.569-1.854 0-3.672.155-5.443.451l-5.692-42.681c-.548-4.106-4.318-6.995-8.426-6.443-4.106.548-6.99 4.32-6.443 8.426l5.823 43.652c.137 1.025.384 2.027.73 2.99-4.137 3.051-7.535 7.048-9.873 11.669-2.644-3.768-4.387-8.153-5.003-12.774l-29.225-219.103c-2.062-15.461 8.8-29.976 24.215-32.354 10.918-1.686 22.194-3.23 33.517-4.592 4.112-.494 7.046-4.229 6.551-8.342s-4.234-7.043-8.342-6.551c-11.487 1.382-22.932 2.949-34.015 4.66-23.422 3.615-39.928 25.669-36.795 49.161l29.225 219.101c1.514 11.354 7.505 21.768 16.515 28.798 1.629 16.596 15.663 29.607 32.681 29.607 2.399 0 4.74-.259 6.994-.75l79.814 57.988c7.712 5.604 16.746 8.404 25.784 8.404 9.035 0 18.074-2.802 25.784-8.404l61.236-44.49c3.352-2.435 4.094-7.125 1.659-10.476-2.435-3.352-7.124-4.095-10.476-1.659l-61.236 44.49c-10.148 7.373-23.787 7.373-33.936 0l-73.68-53.532c3.591-3.231 6.468-7.242 8.362-11.762l73.706 53.746c2.511 1.825 5.478 2.789 8.58 2.789s6.069-.964 8.58-2.788l118.304-85.952c3.219-2.338 5.365-5.94 5.89-9.88l29.224-219.099c1.045-7.818-4.448-15.159-12.246-16.364-1.742-.269-3.705-.582-5.747-.907-.514-.082-1.031-.164-1.548-.247 1.91-4.16 2.976-8.785 2.976-13.655 0-.093-.001-.185-.002-.278 2.167.32 4.337.648 6.5.982 15.414 2.379 26.276 16.894 24.214 32.354l-29.225 219.101c-1.039 7.794-5.283 14.915-11.646 19.537l-33.569 24.391c-3.352 2.435-4.094 7.125-1.659 10.476 1.468 2.021 3.754 3.093 6.073 3.093 1.528 0 3.071-.467 4.402-1.434l33.569-24.39c9.668-7.024 16.119-17.846 17.698-29.69l29.225-219.101c3.133-23.491-13.373-45.544-36.795-49.159zm-284.649 293.828c0-9.836 8.003-17.839 17.839-17.839 9.837 0 17.84 8.003 17.84 17.839s-8.003 17.839-17.84 17.839c-9.836 0-17.839-8.003-17.839-17.839zm225.184-279.708c0-9.836 8.003-17.839 17.839-17.839 9.837 0 17.84 8.003 17.84 17.839s-8.003 17.839-17.84 17.839c-9.836 0-17.839-8.003-17.839-17.839z"/><path d="m269.866 251.669c-7.646-7.645-20.086-7.645-27.732 0l-32.126 32.127c-3.703 3.704-5.743 8.629-5.743 13.867 0 5.237 2.04 10.162 5.743 13.866l32.126 32.126c3.704 3.703 8.629 5.743 13.866 5.743 5.238 0 10.163-2.04 13.867-5.743l32.126-32.126c3.703-3.704 5.743-8.629 5.743-13.866 0-5.238-2.04-10.163-5.743-13.866zm21.52 49.253-32.126 32.126c-1.798 1.8-4.723 1.798-6.519 0l-32.126-32.126c-1.798-1.797-1.798-4.722 0-6.52l32.125-32.126c.899-.898 2.08-1.348 3.261-1.348s2.36.449 3.259 1.347l32.126 32.128c1.798 1.797 1.798 4.722 0 6.519z"/><path d="m313.562 176.485c0-4.143-3.357-7.5-7.5-7.5h-100.123c-4.143 0-7.5 3.357-7.5 7.5s3.357 7.5 7.5 7.5h100.122c4.143 0 7.501-3.357 7.501-7.5z"/><path d="m410.21 77.961c1.919 0 3.839-.732 5.304-2.196l28.801-28.802h60.185c4.143 0 7.5-3.357 7.5-7.5s-3.357-7.5-7.5-7.5h-63.292c-1.989 0-3.896.79-5.304 2.196l-30.998 30.998c-2.929 2.93-2.929 7.678 0 10.607 1.465 1.465 3.385 2.197 5.304 2.197z"/><path d="m504.5 59.855h-38.848c-4.143 0-7.5 3.357-7.5 7.5s3.357 7.5 7.5 7.5h38.848c4.143 0 7.5-3.357 7.5-7.5s-3.357-7.5-7.5-7.5z"/><path d="m504.5 85.646h-38.848c-4.143 0-7.5 3.357-7.5 7.5s3.357 7.5 7.5 7.5h38.848c4.143 0 7.5-3.357 7.5-7.5s-3.357-7.5-7.5-7.5z"/><path d="m504.5 111.436h-38.848c-4.143 0-7.5 3.357-7.5 7.5s3.357 7.5 7.5 7.5h38.848c4.143 0 7.5-3.357 7.5-7.5s-3.357-7.5-7.5-7.5z"/><path d="m96.486 407.639-28.8 28.802h-60.186c-4.143 0-7.5 3.357-7.5 7.5s3.357 7.5 7.5 7.5h63.293c1.989 0 3.896-.79 5.304-2.196l30.997-30.999c2.929-2.929 2.929-7.677-.001-10.606-2.928-2.929-7.677-2.929-10.607-.001z"/><path d="m7.5 423.548 38.848.001c4.142 0 7.5-3.358 7.5-7.5s-3.357-7.5-7.5-7.5l-38.848-.001c-4.142 0-7.5 3.358-7.5 7.5s3.357 7.5 7.5 7.5z"/><path d="m7.5 397.758h38.848c4.143 0 7.5-3.357 7.5-7.5s-3.357-7.5-7.5-7.5h-38.848c-4.143 0-7.5 3.357-7.5 7.5s3.357 7.5 7.5 7.5z"/><path d="m7.5 371.968h38.848c4.143 0 7.5-3.357 7.5-7.5s-3.357-7.5-7.5-7.5h-38.848c-4.143 0-7.5 3.357-7.5 7.5s3.357 7.5 7.5 7.5z"/></g></svg>