<svg id="Capa_1" enable-background="new 0 0 512 512" height="512" viewBox="0 0 512 512" width="512" xmlns="http://www.w3.org/2000/svg"><g><path d="m404.759 265.562-20.524-13.448c-1.664-1.09-3.691-1.477-5.64-1.069-1.947.406-3.654 1.568-4.744 3.232l-49.297 75.24c-11.898-9.456-25.687-16.419-40.407-20.293v-4.547c17.049-5.674 32.204-16.462 43.188-31.178h11.826c14.829 0 26.894-12.064 26.894-26.894v-51.584h5.745c4.143 0 7.5-3.357 7.5-7.5s-3.357-7.5-7.5-7.5h-5.745v-20.226c0-13.828-10.49-25.251-23.931-26.731-3.715-40.446-37.83-72.227-79.228-72.227h-13.455c-41.398 0-75.513 31.781-79.228 72.227-13.44 1.48-23.93 12.903-23.93 26.731v20.226h-5.746c-4.142 0-7.5 3.357-7.5 7.5s3.358 7.5 7.5 7.5h5.746v51.577c-14.049 5.372-26.566 14.751-35.668 26.822-10.59 14.044-16.187 30.787-16.187 48.42 0 33.996 21.679 64.435 53.329 75.79-.975 5.888-1.474 11.869-1.474 17.883v16.631c0 4.143 3.358 7.5 7.5 7.5s7.5-3.357 7.5-7.5v-16.631c0-41.551 27.733-78.574 66.908-90.692v4.882c0 15.427 12.55 27.977 27.977 27.977s27.978-12.55 27.978-27.977v-4.896c39.737 12.135 66.908 48.474 66.908 90.705v69.889c0 6.395-5.203 11.598-11.598 11.598h-166.574c-6.395 0-11.598-5.203-11.598-11.598v-24.258c0-4.143-3.358-7.5-7.5-7.5s-7.5 3.357-7.5 7.5v24.258c0 14.666 11.932 26.598 26.598 26.598h166.576c14.666 0 26.598-11.932 26.598-26.598v-69.889c0-6.946-.666-13.85-1.962-20.616l27.97-42.688c7.245-11.057 4.162-25.873-6.9-33.12l-4.553-2.982 26.312-40.16c2.269-3.465 1.301-8.113-2.164-10.384zm-148.59 28.653c-19.277 0-37.61-7.56-51.241-20.715h102.481c-13.634 13.153-31.974 20.715-51.24 20.715zm-6.727-218.376h13.455c33.064 0 60.403 24.982 64.131 57.064h-141.716c3.726-32.082 31.065-57.064 64.13-57.064zm-88.158 83.958c0-6.559 5.335-11.894 11.894-11.894h165.984c6.559 0 11.894 5.335 11.894 11.894v86.81c0 6.559-5.335 11.894-11.894 11.894h-165.984c-6.558 0-11.894-5.335-11.894-11.894zm9.459 186.595c-8.797 10.859-15.389 23.297-19.499 36.531-24.892-9.667-41.814-33.985-41.814-61.082 0-26.705 16.627-50.924 41.074-60.787 4.782 7.478 13.159 12.446 22.674 12.446h11.826c10.987 14.721 26.137 25.509 43.188 31.182v4.543c-22.451 5.908-42.735 19.002-57.449 37.167zm85.426-3.711c-7.156 0-12.977-5.821-12.977-12.977v-21.445c4.265.632 8.601.956 12.977.956s8.712-.325 12.978-.957v21.446c0 7.155-5.821 12.977-12.978 12.977zm120.774-11.045c4.122 2.701 5.277 8.228 2.573 12.353l-20.88 31.868c-2.02-5.226-4.438-10.3-7.236-15.167l20.99-32.036zm-34.665 15.605c-1.993-2.509-4.135-4.987-6.506-7.474l46.516-70.996 7.978 5.228z"/><path d="m256.169 392.333c4.143 0 7.5-3.357 7.5-7.5v-9.248c0-4.143-3.357-7.5-7.5-7.5-4.142 0-7.5 3.357-7.5 7.5v9.248c0 4.143 3.358 7.5 7.5 7.5z"/><path d="m248.669 427.769c0 4.143 3.358 7.5 7.5 7.5 4.143 0 7.5-3.357 7.5-7.5v-9.247c0-4.143-3.357-7.5-7.5-7.5-4.142 0-7.5 3.357-7.5 7.5z"/><path d="m248.669 470.705c0 4.143 3.358 7.5 7.5 7.5 4.143 0 7.5-3.357 7.5-7.5v-9.248c0-4.143-3.357-7.5-7.5-7.5-4.142 0-7.5 3.357-7.5 7.5z"/><path d="m205.551 60.619c4.142 0 7.5-3.357 7.5-7.5v-45.619c0-4.143-3.358-7.5-7.5-7.5h-197.882c-4.142 0-7.5 3.357-7.5 7.5v45.619c0 4.143 3.358 7.5 7.5 7.5zm-119.474-15-20.847-30.619h53.964l20.847 30.619zm111.974 0h-39.865l-20.846-30.619h60.711zm-182.882-30.619h31.913l20.848 30.619h-52.761z"/><path d="m108.109 71.38c-4.142 0-7.5 3.357-7.5 7.5v29.726c0 1.989.79 3.896 2.197 5.304l18.335 18.335c1.464 1.464 3.384 2.196 5.303 2.196s3.839-.732 5.303-2.196c2.929-2.93 2.929-7.678 0-10.607l-16.139-16.138v-26.62c.001-4.143-3.357-7.5-7.499-7.5z"/><path d="m404.23 71.38c-4.143 0-7.5 3.357-7.5 7.5v26.619l-16.139 16.138c-2.93 2.929-2.93 7.678-.001 10.606 1.465 1.465 3.384 2.197 5.304 2.197 1.919 0 3.839-.732 5.303-2.196l18.336-18.335c1.407-1.407 2.197-3.314 2.197-5.304v-29.725c0-4.143-3.357-7.5-7.5-7.5z"/><path d="m504.331 0h-22.332c-4.143 0-7.5 3.357-7.5 7.5s3.357 7.5 7.5 7.5h14.832v30.619h-39.865l-20.847-30.619h16.88c4.143 0 7.5-3.357 7.5-7.5s-3.357-7.5-7.5-7.5h-146.551c-4.143 0-7.5 3.357-7.5 7.5v45.619c0 4.143 3.357 7.5 7.5 7.5h197.883c4.143 0 7.5-3.357 7.5-7.5v-45.619c0-4.143-3.358-7.5-7.5-7.5zm-190.383 45.619v-30.619h31.914l20.847 30.619zm70.907 0-20.847-30.619h53.964l20.847 30.619z"/><path d="m194.914 229.903h122.512c8.429 0 15.286-6.857 15.286-15.286v-38.594c0-8.429-6.857-15.285-15.286-15.285h-32.256c-4.143 0-7.5 3.357-7.5 7.5s3.357 7.5 7.5 7.5h32.256c.158 0 .286.128.286.285v38.594c0 .158-.128.286-.286.286h-122.512c-.158 0-.286-.128-.286-.286v-38.594c0-.157.128-.285.286-.285h61.256c4.143 0 7.5-3.357 7.5-7.5s-3.357-7.5-7.5-7.5h-61.256c-8.429 0-15.286 6.856-15.286 15.285v38.594c0 8.429 6.857 15.286 15.286 15.286z"/></g></svg>