<svg id="Capa_1" enable-background="new 0 0 512 512" height="512" viewBox="0 0 512 512" width="512" xmlns="http://www.w3.org/2000/svg"><g><path d="m171.818 463.175h-.043c-7.443.042-15.503.065-21.042.068v-74.13c0-4.143-3.357-7.5-7.5-7.5s-7.5 3.357-7.5 7.5v81.562c0 3.654 2.633 6.776 6.234 7.393.536.092 1.052.18 9.949.18 4.335 0 10.658-.021 19.942-.072 4.142-.023 7.481-3.399 7.458-7.542-.022-4.129-3.376-7.459-7.498-7.459z"/><path d="m216.965 470.743v-81.63c0-4.143-3.357-7.5-7.5-7.5s-7.5 3.357-7.5 7.5v81.63c0 4.143 3.357 7.5 7.5 7.5s7.5-3.357 7.5-7.5z"/><path d="m368.768 396.986c4.143 0 7.5-3.357 7.5-7.5s-3.357-7.5-7.5-7.5h-34.081c-4.143 0-7.5 3.357-7.5 7.5v80.885c0 4.143 3.357 7.5 7.5 7.5h34.081c4.143 0 7.5-3.357 7.5-7.5s-3.357-7.5-7.5-7.5h-26.581v-25.442h24.068c4.143 0 7.5-3.357 7.5-7.5s-3.357-7.5-7.5-7.5h-24.068v-25.442h26.581z"/><path d="m277.246 478.243h.063c3.973-.026 7.502-2.572 8.799-6.385l26.653-80.23c1.307-3.931-.822-8.176-4.753-9.481-3.927-1.306-8.176.821-9.481 4.753l-21.397 64.41-22.443-64.655c-1.358-3.914-5.634-5.99-9.544-4.626-3.913 1.358-5.984 5.631-4.626 9.544l27.927 80.456c1.323 3.724 4.855 6.214 8.802 6.214z"/><path d="m79.349 304.172c-14.018-10.593-22.058-26.725-22.058-44.259s8.04-33.665 22.058-44.258c3.305-2.497 3.96-7.2 1.462-10.505-2.496-3.303-7.198-3.962-10.505-1.462-17.804 13.452-28.015 33.945-28.015 56.225s10.211 42.773 28.015 56.226c1.354 1.023 2.94 1.517 4.516 1.517 2.271 0 4.516-1.027 5.989-2.979 2.498-3.305 1.842-8.008-1.462-10.505z"/><path d="m99.222 297.911c2.335-3.421 1.453-8.088-1.969-10.422-9.135-6.232-14.588-16.541-14.588-27.576 0-11.034 5.453-21.343 14.588-27.575 3.422-2.334 4.304-7 1.969-10.422-2.334-3.423-7-4.306-10.422-1.969-13.234 9.028-21.135 23.969-21.135 39.966s7.9 30.938 21.135 39.967c1.293.883 2.764 1.306 4.22 1.306 2.395 0 4.75-1.146 6.202-3.275z"/><path d="m91.397 259.913c0 10.712 5.974 20.31 15.589 25.049 1.066.525 2.196.774 3.31.774 2.767 0 5.428-1.537 6.733-4.187 1.831-3.715.304-8.212-3.412-10.043-4.453-2.194-7.22-6.637-7.22-11.594 0-4.956 2.767-9.399 7.22-11.595 3.715-1.831 5.242-6.328 3.41-10.043-1.831-3.714-6.326-5.243-10.043-3.41-9.614 4.74-15.587 14.338-15.587 25.049z"/><path d="m441.695 203.688c-3.305-2.499-8.009-1.844-10.505 1.462-2.498 3.305-1.843 8.008 1.462 10.505 14.018 10.592 22.057 26.724 22.057 44.258 0 17.535-8.04 33.667-22.058 44.258-3.305 2.497-3.96 7.201-1.463 10.506 1.476 1.951 3.719 2.979 5.99 2.979 1.574 0 3.162-.494 4.516-1.516 17.804-13.452 28.015-33.946 28.015-56.227 0-22.279-10.211-42.772-28.014-56.225z"/><path d="m444.336 259.913c0-15.997-7.9-30.938-21.135-39.966-3.421-2.336-8.088-1.455-10.422 1.969-2.335 3.422-1.453 8.088 1.969 10.422 9.135 6.232 14.588 16.541 14.588 27.575 0 11.035-5.454 21.344-14.589 27.576-3.422 2.334-4.304 7-1.969 10.422 1.452 2.129 3.806 3.274 6.202 3.274 1.455 0 2.927-.423 4.22-1.306 13.235-9.027 21.136-23.968 21.136-39.966z"/><path d="m398.383 271.507c-3.715 1.831-5.243 6.327-3.412 10.043 1.306 2.649 3.967 4.187 6.733 4.187 1.113 0 2.243-.249 3.31-.774 9.616-4.738 15.59-14.337 15.59-25.049 0-10.71-5.973-20.309-15.588-25.048-3.717-1.833-8.212-.304-10.043 3.41-1.832 3.715-.305 8.212 3.41 10.043 4.454 2.196 7.221 6.639 7.221 11.595s-2.767 9.398-7.221 11.593z"/><path d="m400.906 347.857h-50.217c-.788-8.724-2.77-17.258-5.911-25.434-1.485-3.866-5.821-5.798-9.69-4.312-3.866 1.485-5.797 5.824-4.312 9.69 2.48 6.456 4.101 13.18 4.839 20.055h-159.23c3.37-31.226 24.877-57.7 54.599-67.451v2.698c0 13.794 11.222 25.016 25.016 25.016s25.016-11.222 25.016-25.016v-2.688c14.012 4.627 26.702 13.178 36.279 24.555 1.483 1.762 3.604 2.67 5.741 2.67 1.705 0 3.42-.578 4.826-1.762 3.169-2.668 3.575-7.399.908-10.568-12.422-14.755-29.266-25.508-47.755-30.555v-2.263c17.095-5.889 31.485-17.638 40.76-32.835 2.372 2.4 5.663 3.89 9.296 3.89h10.422c7.209 0 13.073-5.864 13.073-13.073v-.329l16.543-3.928c10.483-2.488 17.805-11.751 17.805-22.526v-22.3c0-9.687-5.918-18.153-14.731-21.572v-31.637c0-65.165-53.017-118.182-118.183-118.182-33.783 0-66.025 14.514-88.459 39.82-2.748 3.1-2.463 7.84.637 10.588s7.84 2.462 10.588-.637c19.588-22.097 47.74-34.771 77.235-34.771 56.895 0 103.182 46.287 103.182 103.183v27.851l-4.616-1.096v-.329c0-3.426-1.324-6.548-3.488-8.882v-15.29c0-52.426-42.652-95.078-95.078-95.078s-95.077 42.652-95.077 95.078v15.29c-2.164 2.334-3.488 5.456-3.488 8.882v.329l-4.617 1.096v-27.851c0-16.056 3.592-31.446 10.676-45.742 1.839-3.712.32-8.211-3.391-10.051-3.713-1.839-8.21-.319-10.051 3.391-8.118 16.386-12.234 34.016-12.234 52.402v31.637c-8.813 3.419-14.731 11.885-14.731 21.572v22.3c0 10.774 7.322 20.038 17.806 22.526l16.543 3.928v.329c0 7.209 5.864 13.073 13.073 13.073h10.422c3.633 0 6.924-1.489 9.295-3.889 9.274 15.197 23.665 26.946 40.76 32.834v2.26c-38.223 10.391-66.099 43.706-69.672 83.104h-50.217c-10.271 0-18.627 8.356-18.627 18.627v126.889c0 10.271 8.356 18.627 18.627 18.627h50.124c4.143 0 7.5-3.357 7.5-7.5s-3.357-7.5-7.5-7.5h-50.124c-2 0-3.627-1.627-3.627-3.627v-126.889c0-2 1.627-3.627 3.627-3.627h289.812c1.999 0 3.626 1.627 3.626 3.627v126.889c0 2-1.627 3.627-3.626 3.627h-210.691c-4.143 0-7.5 3.357-7.5 7.5s3.357 7.5 7.5 7.5h210.688c10.271 0 18.626-8.356 18.626-18.627v-126.889c-.001-10.27-8.356-18.627-18.627-18.627zm-144.906-54.737c-5.522 0-10.016-4.493-10.016-10.016v-17.089c3.279.428 6.622.649 10.016.649s6.737-.221 10.016-.649v17.089c0 5.523-4.494 10.016-10.016 10.016zm83.566-74.572h-6.569v-72.013h6.569zm28.078-55.09c3.692.877 6.271 4.14 6.271 7.934v22.3c0 3.794-2.578 7.056-6.27 7.933l-13.078 3.104v-44.375zm-111.644-123.1c44.155 0 80.078 35.923 80.078 80.078v11.099h-3.084c-.109-5.147-3.299-9.515-8.19-11.174-4.925-1.669-10.367-.013-13.54 4.124-7.228 9.428-15.487 14.216-25.169 14.562l2.194-13.777c.828-5.209-1.771-10.308-6.471-12.687-4.72-2.39-10.391-1.463-14.114 2.305-7.217 7.301-14.017 12.35-20.662 15.326l.977-9.857c.475-4.799-1.825-9.273-6.003-11.678-4.18-2.405-9.207-2.146-13.118.678-11.354 8.19-24.271 13.229-39.49 15.405-4.098.586-7.5 3.226-9.211 6.773h-4.273v-11.099c-.001-44.155 35.922-80.078 80.076-80.078zm-111.644 161.266c-3.692-.877-6.271-4.139-6.271-7.933v-22.3c0-3.794 2.579-7.057 6.271-7.934l13.078-3.104v44.375zm34.647 16.924h-6.568v-72.013h6.568zm15-28.881v-50.437c14.219-2.335 27.124-7.105 38.48-14.219l-.83 8.385c-.402 4.066 1.254 8.028 4.431 10.598 3.187 2.577 7.418 3.368 11.325 2.119 8.284-2.647 16.428-7.511 24.727-14.788l-1.38 8.664c-.537 3.368.377 6.827 2.508 9.492 2.108 2.637 5.241 4.271 8.595 4.485 13.829.882 25.96-3.941 36.139-14.361v50.062c0 34.186-27.812 61.997-61.997 61.997s-61.998-27.811-61.998-61.997z"/></g></svg>