<svg id="Capa_1" enable-background="new 0 0 512 512" height="512" viewBox="0 0 512 512" width="512" xmlns="http://www.w3.org/2000/svg"><g><path d="m452.545 216.18-21.963-22.167c-.551-.556-.854-1.293-.854-2.076v-89.148c0-5.577-2.523-10.739-6.923-14.164l-17.351-13.508c-3.137-2.442-7.053-3.787-11.027-3.787h-38.283v-6.187c0-9.583-7.797-17.379-17.38-17.379h-3.062v-3.66h2.824c4.143 0 7.5-3.357 7.5-7.5s-3.357-7.5-7.5-7.5h-2.824v-2.979h2.824c4.143 0 7.5-3.357 7.5-7.5s-3.357-7.5-7.5-7.5h-2.824v-3.625c0-4.143-3.357-7.5-7.5-7.5s-7.5 3.357-7.5 7.5v3.625h-2.825c-4.143 0-7.5 3.357-7.5 7.5s3.357 7.5 7.5 7.5h2.825v2.979h-2.825c-4.143 0-7.5 3.357-7.5 7.5s3.357 7.5 7.5 7.5h2.825v3.66h-3.062c-9.583 0-17.379 7.796-17.379 17.379v6.187h-41.093c-.471 0-.941-.114-1.357-.33l-42.794-22.163c-2.54-1.316-5.395-2.012-8.256-2.012h-58.836c-4.142 0-7.5 3.357-7.5 7.5s3.358 7.5 7.5 7.5h58.836c.47 0 .939.114 1.357.331l42.797 22.165c2.54 1.314 5.394 2.009 8.253 2.009h135.259c.652 0 1.297.222 1.812.623l17.352 13.508c.723.562 1.137 1.411 1.137 2.328v89.148c0 4.764 1.847 9.251 5.199 12.634l21.963 22.167c.551.556.854 1.293.854 2.076v97.878c0 .977-.481 1.888-1.291 2.438l-84.784 57.731c-4.914 3.346-7.848 8.893-7.848 14.837v11.234c0 1.417-1.011 2.637-2.402 2.9l-90.237 17.056-27.285-88.747c-2.198-7.149-8.7-11.952-16.178-11.952h-115.356c-3.684 0-7.327 1.229-10.259 3.463l-5.919 4.51-11.305-42.188c-.163-.607-.129-1.239.097-1.826l19.866-51.558c.798-2.067 1.202-4.239 1.202-6.457v-107.612c0-7.164-4.249-13.631-10.825-16.477l-9.185-3.973c-1.082-.468-1.78-1.53-1.78-2.708v-15.32c0-.485.122-.969.352-1.396l14.648-27.269c.515-.958 1.511-1.554 2.6-1.554h32.069c4.142 0 7.5-3.357 7.5-7.5s-3.358-7.5-7.5-7.5h-32.069c-6.621 0-12.681 3.623-15.813 9.455l-14.649 27.268c-1.398 2.604-2.138 5.541-2.138 8.496v15.321c0 7.163 4.249 13.63 10.825 16.476l9.185 3.973c1.082.468 1.78 1.531 1.78 2.709v107.612c0 .363-.066.719-.198 1.061l-19.867 51.562c-1.374 3.568-1.577 7.406-.588 11.1l12.898 48.133-6.69 5.098c-4.176 3.181-6.668 8.214-6.668 13.464v126.522c0 4.633 1.931 9.116 5.297 12.299 3.139 2.969 7.337 4.627 11.64 4.627.311 0 .623-.009.935-.026l65.78-3.682c4.136-.231 7.301-3.771 7.069-7.907-.231-4.135-3.765-7.291-7.907-7.069l-65.781 3.682c-.68.035-1.155-.263-1.43-.523s-.603-.714-.603-1.399v-126.524c0-.598.283-1.17.759-1.531l25.506-19.437c.334-.254.749-.395 1.168-.395h115.355c.851 0 1.59.547 1.84 1.36l33.388 108.597c.174.567.074 1.194-.268 1.679l-20.338 28.747c-.341.482-.875.777-1.465.811l-59.133 3.31c-4.136.231-7.301 3.771-7.069 7.907s3.772 7.312 7.907 7.069l59.132-3.31c5.183-.289 9.875-2.886 12.873-7.123l20.337-28.748c3.01-4.254 3.893-9.768 2.361-14.75l-1.667-5.423 88.587-16.744c8.47-1.602 14.616-9.02 14.616-17.639v-11.234c0-.977.482-1.889 1.29-2.438l84.783-57.73c4.915-3.345 7.85-8.892 7.85-14.838v-97.878c.001-4.764-1.846-9.252-5.199-12.634zm-137.284-144.851v-6.187c0-1.312 1.067-2.379 2.379-2.379h21.124c1.312 0 2.38 1.067 2.38 2.379v6.187z"/><path d="m155.424 128.525c0-6.47-5.264-11.733-11.734-11.733h-28.324c-6.47 0-11.734 5.264-11.734 11.733v28.324c0 6.471 5.264 11.734 11.734 11.734h28.324c6.47 0 11.734-5.264 11.734-11.734zm-15 25.059h-21.792v-21.792h21.792z"/><path d="m216.854 128.525c0-6.47-5.264-11.733-11.734-11.733h-28.324c-6.47 0-11.734 5.264-11.734 11.733v28.324c0 6.471 5.264 11.734 11.734 11.734h28.324c6.47 0 11.734-5.264 11.734-11.734zm-15 25.059h-21.792v-21.792h21.792z"/><path d="m266.551 116.792h-28.324c-6.47 0-11.734 5.264-11.734 11.733v28.324c0 6.471 5.264 11.734 11.734 11.734h28.324c6.47 0 11.733-5.264 11.733-11.734v-28.324c.001-6.469-5.263-11.733-11.733-11.733zm-3.266 36.792h-21.792v-21.792h21.792z"/><path d="m299.657 168.584h28.324c6.471 0 11.734-5.264 11.734-11.734v-28.324c0-6.47-5.264-11.733-11.734-11.733h-28.324c-6.47 0-11.733 5.264-11.733 11.733v28.324c-.001 6.47 5.263 11.734 11.733 11.734zm3.266-36.792h21.792v21.792h-21.792z"/><path d="m361.087 168.584h28.324c6.47 0 11.733-5.264 11.733-11.734v-28.324c0-6.47-5.264-11.733-11.733-11.733h-28.324c-6.471 0-11.734 5.264-11.734 11.733v28.324c0 6.47 5.264 11.734 11.734 11.734zm3.266-36.792h21.792v21.792h-21.792z"/><path d="m155.424 191.378c0-6.471-5.264-11.734-11.734-11.734h-28.324c-6.47 0-11.734 5.264-11.734 11.734v28.323c0 6.471 5.264 11.734 11.734 11.734h28.324c6.47 0 11.734-5.264 11.734-11.734zm-15 25.058h-21.792v-21.792h21.792z"/><path d="m216.854 191.378c0-6.471-5.264-11.734-11.734-11.734h-28.324c-6.47 0-11.734 5.264-11.734 11.734v28.323c0 6.471 5.264 11.734 11.734 11.734h28.324c6.47 0 11.734-5.264 11.734-11.734zm-15 25.058h-21.792v-21.792h21.792z"/><path d="m226.493 219.701c0 6.471 5.264 11.734 11.734 11.734h28.324c6.47 0 11.733-5.264 11.733-11.734v-28.323c0-6.471-5.264-11.734-11.733-11.734h-28.324c-6.47 0-11.734 5.264-11.734 11.734zm15-25.057h21.792v21.792h-21.792z"/><path d="m287.923 219.701c0 6.471 5.264 11.734 11.733 11.734h28.324c6.471 0 11.734-5.264 11.734-11.734v-28.323c0-6.471-5.264-11.734-11.734-11.734h-28.324c-6.47 0-11.733 5.264-11.733 11.734zm15-25.057h21.792v21.792h-21.792z"/><path d="m349.353 219.701c0 6.471 5.264 11.734 11.734 11.734h28.324c6.47 0 11.733-5.264 11.733-11.734v-28.323c0-6.471-5.264-11.734-11.733-11.734h-28.324c-6.471 0-11.734 5.264-11.734 11.734zm15-25.057h21.792v21.792h-21.792z"/><path d="m115.367 294.287h28.324c6.47 0 11.734-5.264 11.734-11.734v-28.323c0-6.471-5.264-11.734-11.734-11.734h-28.324c-6.47 0-11.734 5.264-11.734 11.734v28.323c-.001 6.47 5.263 11.734 11.734 11.734zm3.265-36.792h21.792v21.792h-21.792z"/><path d="m205.121 242.495h-28.324c-6.47 0-11.734 5.264-11.734 11.734v28.323c0 6.471 5.264 11.734 11.734 11.734h28.324c6.47 0 11.734-5.264 11.734-11.734v-28.323c-.001-6.47-5.264-11.734-11.734-11.734zm-3.267 36.792h-21.792v-21.792h21.792z"/><path d="m226.493 282.553c0 6.471 5.264 11.734 11.734 11.734h28.324c6.47 0 11.733-5.264 11.733-11.734v-28.323c0-6.471-5.264-11.734-11.733-11.734h-28.324c-6.47 0-11.734 5.264-11.734 11.734zm15-25.058h21.792v21.792h-21.792z"/><path d="m115.433 100.417c1.458 0 2.934-.425 4.229-1.312 3.418-2.339 4.293-7.006 1.955-10.425l-8.587-12.551c-2.34-3.418-7.006-4.296-10.425-1.954-3.418 2.339-4.293 7.006-1.955 10.425l8.587 12.551c1.452 2.123 3.804 3.266 6.196 3.266z"/><path d="m141.734 97.151c1.453 2.123 3.804 3.266 6.197 3.266 1.459 0 2.933-.425 4.228-1.312 3.418-2.339 4.294-7.006 1.955-10.425l-8.587-12.551c-2.339-3.418-7.006-4.295-10.425-1.954-3.418 2.339-4.294 7.006-1.955 10.425z"/><path d="m178.025 76.13c-2.34-3.418-7.006-4.296-10.425-1.954-3.418 2.339-4.293 7.006-1.955 10.425l8.587 12.551c1.453 2.123 3.804 3.266 6.197 3.266 1.458 0 2.934-.425 4.229-1.312 3.418-2.339 4.293-7.006 1.955-10.425z"/><path d="m417.031 255.963c1.459 0 2.934-.425 4.229-1.312l12.55-8.587c3.418-2.339 4.293-7.006 1.954-10.425-2.34-3.418-7.006-4.295-10.425-1.954l-12.55 8.587c-3.418 2.339-4.293 7.006-1.954 10.425 1.453 2.123 3.803 3.266 6.196 3.266z"/><path d="m410.834 285.195c1.453 2.123 3.804 3.266 6.196 3.266 1.459 0 2.934-.425 4.229-1.312l12.55-8.587c3.418-2.339 4.293-7.006 1.954-10.425-2.34-3.417-7.006-4.295-10.425-1.954l-12.55 8.587c-3.417 2.339-4.292 7.006-1.954 10.425z"/><path d="m410.834 317.693c1.453 2.123 3.804 3.266 6.196 3.266 1.459 0 2.934-.425 4.229-1.312l12.55-8.587c3.418-2.339 4.293-7.006 1.954-10.425-2.34-3.418-7.006-4.295-10.425-1.954l-12.55 8.587c-3.417 2.339-4.292 7.006-1.954 10.425z"/><path d="m264.402 349.796c-2.627 2.627-4.074 6.119-4.074 9.834s1.447 7.207 4.073 9.833l21.189 21.189c2.627 2.626 6.118 4.073 9.833 4.073s7.207-1.447 9.833-4.073l21.188-21.188c2.627-2.627 4.074-6.119 4.074-9.834s-1.447-7.207-4.073-9.833l-21.188-21.188c-2.627-2.627-6.119-4.074-9.834-4.074s-7.207 1.447-9.833 4.073zm50.663 9.834-19.642 19.642-19.642-19.642 19.642-19.642z"/><path d="m195.058 466.946c0-4.143-3.358-7.5-7.5-7.5h-79.266c-4.142 0-7.5 3.357-7.5 7.5s3.358 7.5 7.5 7.5h79.266c4.142 0 7.5-3.357 7.5-7.5z"/><path d="m287.923 282.554c0 6.47 5.264 11.733 11.733 11.733h34.487c4.143 0 7.5-3.357 7.5-7.5s-3.357-7.5-7.5-7.5h-31.221v-21.792h83.222v21.792h-23.001c-4.143 0-7.5 3.357-7.5 7.5s3.357 7.5 7.5 7.5h26.268c6.47 0 11.733-5.264 11.733-11.733v-28.324c0-6.471-5.264-11.734-11.733-11.734h-89.755c-6.47 0-11.733 5.264-11.733 11.734z"/></g></svg>