<svg id="Capa_1" enable-background="new 0 0 512 512" height="512" viewBox="0 0 512 512" width="512" xmlns="http://www.w3.org/2000/svg"><g><path d="m131.47 64.934c-2.275 2.01-3.115 5.193-2.126 8.063 2.667 7.745 8.111 22.568 13.875 38.263 6.111 16.639 12.43 33.845 15.688 43.301 1.107 3.213 4.274 5.346 7.789 5.025l26.29-2.458c.481.722 1.095 1.371 1.833 1.908l56.773 41.249c1.314.955 2.861 1.433 4.408 1.433s3.095-.478 4.408-1.433l56.774-41.249c.739-.536 1.352-1.186 1.833-1.908l26.29 2.458c3.451.315 6.599-1.74 7.749-4.912l29.562-81.563c1.042-2.875.234-6.094-2.041-8.137-2.274-2.042-5.562-2.498-8.309-1.154l-10.082 4.938 3.738-9.933c.998-2.651.416-5.639-1.503-7.723-1.918-2.083-4.847-2.909-7.573-2.132l-10.931 3.116 1.379-3.356c1.229-2.993.401-6.438-2.056-8.544-2.456-2.107-5.986-2.399-8.758-.728l-66.78 40.306c-2.249 1.357-3.624 3.793-3.624 6.421v20.271h-20.155v-20.27c0-2.628-1.375-5.063-3.625-6.421l-66.781-40.306c-2.77-1.673-6.301-1.38-8.757.728-2.457 2.106-3.285 5.551-2.056 8.544l1.379 3.356-10.931-3.116c-2.726-.776-5.654.048-7.573 2.132s-2.501 5.071-1.503 7.723l3.738 9.932-10.081-4.937c-2.725-1.338-5.987-.896-8.261 1.113zm124.53 120.013-46.99-34.142 16.314-29.349h61.353l16.314 29.349zm25.078-94.528 43.711-26.382-10.372 25.242c-1.574 3.831.256 8.214 4.087 9.788 3.834 1.574 8.214-.256 9.788-4.087l10.365-25.226 7.982-2.276-19.424 51.613c-1.459 3.877.501 8.202 4.378 9.661 3.902 1.467 8.211-.525 9.661-4.378l13.225-35.142 7.708-3.774-21.259 58.652-25.84-2.416-17.444-31.382c-1.323-2.381-3.833-3.856-6.556-3.856h-10.011v-16.037zm-123.557-1.186 13.226 35.142c1.452 3.858 5.765 5.843 9.661 4.378 3.877-1.459 5.837-5.784 4.378-9.661l-14.256-37.878c-.004-.01-.007-.019-.011-.029l-5.158-13.707 7.982 2.276 10.365 25.226c1.574 3.831 5.955 5.66 9.788 4.087 3.831-1.574 5.661-5.957 4.087-9.788l-10.372-25.242 43.712 26.382v16.038h-10.011c-2.723 0-5.232 1.476-6.556 3.856l-17.444 31.382-25.775 2.41c-3.524-9.936-8.753-24.172-13.838-38.018-2.678-7.293-5.287-14.397-7.574-20.673z"/><path d="m262.234 136.194h-12.469c-4.143 0-7.5 3.357-7.5 7.5s3.357 7.5 7.5 7.5h12.469c4.143 0 7.5-3.357 7.5-7.5s-3.357-7.5-7.5-7.5z"/><path d="m82.799 208.28v34.197c0 8.03 6.533 14.563 14.563 14.563h77.351c8.029 0 14.562-6.533 14.562-14.563v-34.197c0-8.029-6.533-14.562-14.562-14.562h-77.351c-8.03 0-14.563 6.533-14.563 14.562zm15 .438h76.477v33.323h-76.477z"/><path d="m322.725 208.28v34.197c0 8.03 6.533 14.563 14.563 14.563h77.351c8.03 0 14.563-6.533 14.563-14.563v-34.197c0-8.029-6.533-14.562-14.563-14.562h-77.351c-8.03 0-14.563 6.533-14.563 14.562zm15 .438h76.478v33.323h-76.478z"/><path d="m475.319 418.446c2.498 3.304 7.199 3.958 10.506 1.463 3.305-2.498 3.96-7.201 1.463-10.506-16.035-21.222-40.463-33.393-67.021-33.393s-50.985 12.172-67.021 33.394c-2.497 3.305-1.842 8.009 1.463 10.506 3.319 2.507 8.02 1.826 10.506-1.463 13.174-17.437 33.239-27.437 55.052-27.437s41.879 10.001 55.052 27.436z"/><path d="m455.1 440.262c2.333 3.419 6.997 4.302 10.423 1.968 3.421-2.335 4.303-7.001 1.968-10.423-10.669-15.636-28.322-24.971-47.223-24.971s-36.554 9.335-47.223 24.973c-2.335 3.421-1.453 8.087 1.968 10.422 3.422 2.335 8.088 1.454 10.423-1.968 7.872-11.538 20.894-18.427 34.832-18.427s26.96 6.888 34.832 18.426z"/><path d="m420.268 435.667c-12.395 0-23.501 6.912-28.985 18.04-1.831 3.715-.304 8.212 3.412 10.043 3.715 1.83 8.211.305 10.043-3.412 2.939-5.965 8.891-9.671 15.53-9.671s12.591 3.705 15.53 9.671c1.833 3.714 6.326 5.243 10.044 3.411 3.715-1.832 5.242-6.328 3.411-10.044-5.485-11.126-16.591-18.038-28.985-18.038z"/><path d="m484.258 365.016c-3.361 2.421-4.123 7.108-1.701 10.469 9.449 13.117 14.443 28.602 14.443 44.782 0 42.31-34.422 76.733-76.732 76.733s-76.732-34.423-76.732-76.733 34.422-76.732 76.732-76.732c15.452 0 30.351 4.576 43.084 13.233 3.424 2.329 8.09 1.441 10.419-1.985s1.44-8.09-1.985-10.419c-15.23-10.355-33.045-15.829-51.518-15.829-50.581 0-91.732 41.151-91.732 91.732 0 50.582 41.151 91.733 91.732 91.733s91.732-41.151 91.732-91.733c0-19.347-5.973-37.864-17.273-53.55-2.421-3.362-7.109-4.122-10.469-1.701z"/><path d="m91.733 328.534c-50.582 0-91.733 41.152-91.733 91.733 0 22.018 7.94 43.32 22.357 59.981 2.71 3.134 7.447 3.472 10.579.765 3.133-2.711 3.475-7.447.765-10.579-5.955-6.881-10.588-14.709-13.754-23.087 8.624 4.846 19.464 8.577 31.344 11.143 2.721 13.012 6.829 24.258 11.985 33.036-3.085-1.232-6.093-2.665-9-4.294-3.612-2.024-8.185-.738-10.21 2.874-2.025 3.613-.738 8.185 2.874 10.21 13.636 7.644 29.125 11.684 44.793 11.684 50.581 0 91.732-41.151 91.732-91.733.001-50.581-41.151-91.733-91.732-91.733zm71.803 64.663c-8.626-4.851-19.474-8.585-31.361-11.153-2.722-13.014-6.831-24.263-11.988-33.042 19.921 7.983 35.743 24.087 43.349 44.195zm-28.842 49.41c.794-7.106 1.212-14.582 1.212-22.341s-.418-15.234-1.212-22.34c21.533 5.635 33.772 14.934 33.772 22.34s-12.239 16.705-33.772 22.341zm-72.134-22.34c0-9.024.65-17.579 1.803-25.477 8.251-1.213 17.408-1.914 27.371-1.914 9.962 0 19.119.701 27.37 1.913 1.153 7.898 1.803 16.453 1.803 25.477s-.65 17.58-1.803 25.478c-8.251 1.213-17.407 1.914-27.37 1.914s-19.119-.701-27.371-1.914c-1.153-7.898-1.803-16.453-1.803-25.477zm29.173-76.733c8.975 0 18.644 13.94 24.289 35.809-7.987-.974-16.184-1.467-24.289-1.467s-16.302.494-24.29 1.468c5.646-21.869 15.314-35.81 24.29-35.81zm-28.454 5.469c-5.157 8.779-9.266 20.027-11.988 33.042-11.887 2.567-22.735 6.302-31.361 11.153 7.606-20.108 23.428-36.213 43.349-44.195zm-48.279 71.264c0-7.406 12.239-16.704 33.772-22.34-.794 7.106-1.212 14.581-1.212 22.34s.418 15.235 1.212 22.34c-21.533-5.636-33.772-14.935-33.772-22.34zm52.443 40.924c7.987.974 16.185 1.468 24.29 1.468s16.302-.494 24.289-1.467c-5.645 21.868-15.313 35.808-24.289 35.808-8.975 0-18.644-13.94-24.29-35.809zm52.744 30.34c5.157-8.779 9.266-20.027 11.988-33.042 11.887-2.567 22.734-6.302 31.361-11.153-7.606 20.108-23.428 36.213-43.349 44.195z"/><path d="m491.586 0h-407.526c-4.143 0-7.5 3.357-7.5 7.5s3.357 7.5 7.5 7.5h407.526c2.985 0 5.414 2.429 5.414 5.414v251.368c0 2.985-2.429 5.414-5.414 5.414h-198.939v-23.75c0-4.143-3.357-7.5-7.5-7.5s-7.5 3.357-7.5 7.5v23.75h-43.294v-23.75c0-4.143-3.357-7.5-7.5-7.5s-7.5 3.357-7.5 7.5v23.75h-198.939c-2.985 0-5.414-2.429-5.414-5.414v-60.847l27.433-13.929c5.775-2.931 9.363-8.775 9.363-15.253v-71.31c0-6.477-3.587-12.321-9.361-15.253l-27.435-13.929v-60.847c0-2.985 2.429-5.414 5.414-5.414h34.646c4.143 0 7.5-3.357 7.5-7.5s-3.358-7.5-7.5-7.5h-34.646c-11.256 0-20.414 9.158-20.414 20.414v251.368c0 11.256 9.158 20.414 20.414 20.414h198.939v19.161l-43.341 35.902c-3.19 2.642-3.634 7.37-.991 10.56 1.482 1.791 3.623 2.716 5.779 2.716 1.686 0 3.381-.565 4.78-1.725l46.057-38.151c1.721-1.425 2.716-3.542 2.716-5.775v-22.688h43.294v22.688c0 2.233.995 4.351 2.716 5.775l46.057 38.151c1.399 1.159 3.095 1.725 4.78 1.725 2.156 0 4.297-.925 5.779-2.716 2.643-3.189 2.199-7.918-.991-10.56l-43.341-35.902v-19.161h198.938c11.256 0 20.414-9.158 20.414-20.414v-251.368c.001-11.256-9.157-20.414-20.413-20.414zm-455.942 108.565c.711.36 1.152 1.08 1.152 1.878v71.31c0 .797-.44 1.516-1.15 1.876-.001.001-.001.001-.002.001l-20.644 10.482v-96.028z"/></g></svg>