<svg id="Capa_1" enable-background="new 0 0 512 512" height="512" viewBox="0 0 512 512" width="512" xmlns="http://www.w3.org/2000/svg"><g><path d="m83.844 157.151 2.822 7.498-7.696-3.769c-2.727-1.336-5.989-.895-8.264 1.114-2.275 2.01-3.114 5.193-2.126 8.063 2.434 7.066 7.398 20.583 12.654 34.894 5.572 15.173 11.334 30.861 14.303 39.479 1.108 3.218 4.279 5.346 7.79 5.025l23.59-2.205c.442.592.978 1.127 1.604 1.581l51.769 37.612c1.314.955 2.861 1.433 4.408 1.433s3.094-.478 4.408-1.433l51.769-37.612c.625-.454 1.162-.989 1.604-1.581l23.59 2.205c3.451.315 6.599-1.74 7.749-4.912l26.957-74.373c1.042-2.875.234-6.094-2.04-8.137-2.276-2.042-5.562-2.499-8.31-1.154l-7.697 3.77 2.822-7.498c.998-2.651.416-5.639-1.503-7.723-1.919-2.082-4.846-2.909-7.573-2.132l-8.656 2.468.739-1.799c1.229-2.993.401-6.438-2.056-8.544-2.456-2.107-5.987-2.4-8.758-.728l-60.893 36.753c-2.25 1.357-3.625 3.793-3.625 6.421v17.823h-17.056v-17.823c0-2.628-1.375-5.063-3.625-6.421l-60.894-36.753c-2.771-1.673-6.301-1.38-8.757.728-2.457 2.106-3.285 5.551-2.055 8.544l.739 1.799-8.657-2.468c-2.725-.775-5.654.048-7.573 2.132s-2.5 5.071-1.503 7.723zm100.853 113.955-41.986-30.505 14.402-25.91h55.167l14.402 25.91zm23.528-85.005 37.825-22.829-8.696 21.165c-1.574 3.831.255 8.214 4.086 9.788 3.832 1.574 8.213-.255 9.788-4.087l9.33-22.706 5.708-1.627-17.25 45.835c-1.459 3.877.501 8.202 4.378 9.661 3.902 1.467 8.212-.526 9.661-4.378l11.967-31.799 5.323-2.606-18.653 51.463-22.707-2.123-15.737-28.311c-1.323-2.381-3.832-3.856-6.555-3.856h-8.467v-13.59zm-90.058 4.037c1.574 3.831 5.956 5.66 9.788 4.087 3.831-1.574 5.661-5.957 4.086-9.788l-8.697-21.165 37.825 22.829v13.59h-8.467c-2.723 0-5.232 1.476-6.555 3.856l-15.737 28.311-22.645 2.117c-3.212-9.04-7.895-21.79-12.451-34.195-2.224-6.057-4.396-11.97-6.341-17.3l5.399 2.644 11.967 31.799c1.452 3.858 5.765 5.843 9.661 4.378 3.877-1.459 5.837-5.784 4.378-9.661l-17.25-45.835 5.709 1.628z"/><path d="m190.382 226.807h-11.37c-4.142 0-7.5 3.357-7.5 7.5s3.358 7.5 7.5 7.5h11.37c4.142 0 7.5-3.357 7.5-7.5s-3.358-7.5-7.5-7.5z"/><path d="m178.649 344.87h12.095c4.142 0 7.5-3.357 7.5-7.5s-3.358-7.5-7.5-7.5h-12.095c-4.142 0-7.5 3.357-7.5 7.5s3.358 7.5 7.5 7.5z"/><path d="m504.5 428.38h-10.378c2.769-4.618 4.363-10.019 4.363-15.784v-145.096c0-4.143-3.357-7.5-7.5-7.5s-7.5 3.357-7.5 7.5v145.096c0 8.652-6.997 15.701-15.63 15.784h-140.98c-8.632-.083-15.629-7.132-15.629-15.784v-35.979h8.212c9.413 0 18.003-3.589 24.475-9.471 13.658 14.822 33.106 23.477 53.433 23.477 40.011 0 72.562-32.551 72.562-72.562 0-40.01-32.551-72.561-72.562-72.561-14.932 0-29.411 4.636-41.485 13.04v-32.529c12.086 8.401 26.602 13.048 41.485 13.048 40.011 0 72.562-32.551 72.562-72.562s-32.551-72.562-72.562-72.562c-21.692 0-41.959 9.594-55.676 26.02-6.155-4.756-13.868-7.59-22.231-7.59h-8.212v-12.96c0-8.704 7.081-15.785 15.784-15.785h140.669c8.704 0 15.785 7.081 15.785 15.785v139.095c0 4.143 3.357 7.5 7.5 7.5s7.5-3.357 7.5-7.5v-139.095c0-16.975-13.811-30.785-30.785-30.785h-140.67c-16.975 0-30.784 13.811-30.784 30.785v12.961h-190.882c-4.142 0-7.5 3.357-7.5 7.5s3.358 7.5 7.5 7.5h214.094c11.812 0 21.422 9.609 21.422 21.421v149.339h-312.365v-149.34c0-11.812 9.609-21.421 21.421-21.421h26.428c4.142 0 7.5-3.357 7.5-7.5s-3.358-7.5-7.5-7.5h-26.428c-20.083 0-36.421 16.338-36.421 36.421v191.409c0 20.083 16.338 36.421 36.421 36.421h88.196l-11.706 51.764h-118.926c-4.142 0-7.5 3.357-7.5 7.5s3.358 7.5 7.5 7.5h497c4.143 0 7.5-3.357 7.5-7.5s-3.358-7.5-7.5-7.5zm-107.135-167.88c31.739 0 57.562 25.821 57.562 57.561s-25.822 57.562-57.562 57.562c-17.183 0-33.575-7.798-44.463-21.006 1.915-4.424 2.978-9.301 2.978-14.421v-12.946c6.667 3.351 13.454 5.027 20.241 5.027 2.162 0 4.324-.17 6.482-.511-4.09 4.459-9.669 7.407-16.909 9.018-4.043.899-6.593 4.906-5.693 8.949.905 4.071 4.934 6.588 8.949 5.693 11.995-2.667 21.328-8.522 27.668-17.235.26 6.044-1.6 12.075-5.581 18.333-2.224 3.494-1.192 8.13 2.302 10.354 1.249.794 2.642 1.173 4.02 1.173 2.479 0 4.905-1.229 6.335-3.475 6.596-10.368 9.055-21.107 7.378-31.751 4.458 4.09 7.406 9.669 9.016 16.909.777 3.495 3.876 5.874 7.314 5.874.539 0 1.087-.059 1.635-.181 4.043-.899 6.593-4.906 5.693-8.949-2.667-11.995-8.522-21.327-17.234-27.668 6.044-.261 12.073 1.599 18.332 5.58 3.493 2.222 8.129 1.194 10.354-2.303 2.224-3.495 1.192-8.13-2.303-10.354-10.367-6.596-21.106-9.054-31.751-7.377 4.09-4.458 9.669-7.407 16.909-9.018 4.044-.899 6.593-4.906 5.693-8.949-.898-4.044-4.904-6.596-8.949-5.693-11.995 2.668-21.328 8.523-27.669 17.236-.261-6.045 1.599-12.075 5.581-18.334 2.224-3.495 1.192-8.13-2.303-10.354-3.493-2.222-8.129-1.194-10.354 2.303-6.595 10.368-9.054 21.107-7.377 31.751-4.458-4.09-7.406-9.669-9.016-16.91-.899-4.042-4.906-6.596-8.949-5.693-4.043.899-6.593 4.905-5.693 8.949 2.667 11.995 8.521 21.327 17.233 27.668-6.044.26-12.073-1.6-18.332-5.58-.947-.603-1.978-.966-3.022-1.106v-32.469c10.825-11.243 25.842-17.657 41.485-17.657zm0-151.564c31.739 0 57.562 25.822 57.562 57.562s-25.822 57.562-57.562 57.562c-15.825 0-30.532-6.266-41.485-17.658v-30.714c6.667 3.351 13.454 5.027 20.241 5.027 2.162 0 4.324-.17 6.482-.511-4.09 4.459-9.669 7.407-16.909 9.018-4.043.899-6.593 4.906-5.693 8.949.777 3.495 3.876 5.874 7.314 5.874.539 0 1.087-.059 1.635-.181 11.995-2.667 21.328-8.522 27.668-17.235.26 6.044-1.6 12.075-5.581 18.333-2.224 3.494-1.192 8.13 2.302 10.354 1.249.794 2.642 1.173 4.02 1.173 2.479 0 4.905-1.229 6.335-3.475 6.596-10.368 9.055-21.107 7.378-31.751 4.458 4.09 7.406 9.669 9.016 16.909.777 3.495 3.876 5.874 7.314 5.874.539 0 1.087-.059 1.635-.181 4.043-.899 6.593-4.906 5.693-8.949-2.667-11.995-8.522-21.327-17.234-27.668 6.044-.261 12.073 1.6 18.332 5.58 3.493 2.223 8.129 1.192 10.354-2.303 2.224-3.495 1.192-8.13-2.303-10.354-10.368-6.596-21.107-9.054-31.752-7.377 4.09-4.459 9.669-7.408 16.91-9.018 4.043-.899 6.593-4.906 5.693-8.949-.898-4.043-4.904-6.59-8.949-5.693-11.995 2.667-21.328 8.522-27.669 17.235-.261-6.044 1.6-12.074 5.581-18.333 2.224-3.495 1.192-8.13-2.303-10.354-3.493-2.221-8.129-1.193-10.354 2.303-6.595 10.368-9.054 21.106-7.377 31.75-4.458-4.09-7.406-9.669-9.016-16.909-.899-4.043-4.906-6.59-8.949-5.693-4.043.899-6.593 4.906-5.693 8.949 2.667 11.994 8.522 21.327 17.234 27.668-6.044.261-12.074-1.599-18.333-5.58-.947-.603-1.978-.966-3.022-1.106v-10.277c0-6.206-1.56-12.053-4.309-17.172 10.872-14.272 27.709-22.679 45.794-22.679zm-368.85 231.26v-27.07h312.365v27.07c0 11.812-9.609 21.421-21.422 21.421h-38.881c-4.143 0-7.5 3.357-7.5 7.5s3.357 7.5 7.5 7.5h15.669v35.979c0 5.766 1.594 11.166 4.363 15.784h-57.64l-11.706-51.764h20.314c4.142 0 7.5-3.357 7.5-7.5s-3.358-7.5-7.5-7.5h-201.641c-11.812 0-21.421-9.609-21.421-21.42zm113.29 88.184 11.706-51.764h62.373l11.706 51.764z"/><path d="m389.231 401.784c-4.143 0-7.5 3.357-7.5 7.5s3.357 7.5 7.5 7.5h16.269c4.143 0 7.5-3.357 7.5-7.5s-3.357-7.5-7.5-7.5z"/></g></svg>