<svg id="Capa_1" enable-background="new 0 0 512 512" height="512" viewBox="0 0 512 512" width="512" xmlns="http://www.w3.org/2000/svg"><g><path d="m228.77 392.334c4.142 0 7.5-3.357 7.5-7.5v-9.248c0-4.143-3.358-7.5-7.5-7.5s-7.5 3.357-7.5 7.5v9.248c0 4.143 3.357 7.5 7.5 7.5z"/><path d="m221.27 427.77c0 4.143 3.358 7.5 7.5 7.5s7.5-3.357 7.5-7.5v-9.248c0-4.143-3.358-7.5-7.5-7.5s-7.5 3.357-7.5 7.5z"/><path d="m221.27 470.705c0 4.143 3.358 7.5 7.5 7.5s7.5-3.357 7.5-7.5v-9.248c0-4.143-3.358-7.5-7.5-7.5s-7.5 3.357-7.5 7.5z"/><path d="m197.844 411.489c4.142 0 7.5-3.357 7.5-7.5s-3.358-7.5-7.5-7.5h-36.954c-4.142 0-7.5 3.357-7.5 7.5s3.358 7.5 7.5 7.5z"/><path d="m382.276 349.618c4.143 0 7.5-3.357 7.5-7.5s-3.357-7.5-7.5-7.5h-56.03c-4.143 0-7.5 3.357-7.5 7.5s3.357 7.5 7.5 7.5z"/><path d="m396.065 367.066h-83.608c-4.143 0-7.5 3.357-7.5 7.5s3.357 7.5 7.5 7.5h83.608c4.143 0 7.5-3.357 7.5-7.5s-3.357-7.5-7.5-7.5z"/><path d="m396.065 399.516h-83.608c-4.143 0-7.5 3.357-7.5 7.5s3.357 7.5 7.5 7.5h83.608c4.143 0 7.5-3.357 7.5-7.5s-3.357-7.5-7.5-7.5z"/><path d="m396.065 431.964h-83.608c-4.143 0-7.5 3.357-7.5 7.5s3.357 7.5 7.5 7.5h83.608c4.143 0 7.5-3.357 7.5-7.5s-3.357-7.5-7.5-7.5z"/><path d="m396.065 464.413h-83.608c-4.143 0-7.5 3.357-7.5 7.5s3.357 7.5 7.5 7.5h83.608c4.143 0 7.5-3.357 7.5-7.5s-3.357-7.5-7.5-7.5z"/><path d="m429.849 361.601c4.143 0 7.5-3.357 7.5-7.5v-31.315c0-11.443-9.311-20.754-20.754-20.754h-124.669c-8.614 0-16.018 5.275-19.154 12.764-5.189-2.27-10.547-4.133-16.026-5.571v-4.526c20.635-6.871 37.926-21.128 48.722-39.619 2.567 3.297 6.572 5.421 11.064 5.421h12.185c7.729 0 14.016-6.287 14.016-14.016v-1.387l20.313-4.823c11.683-2.772 19.842-13.095 19.842-25.102v-26.07c0-11.088-6.958-20.738-17.222-24.334v-37.872c.001-75.486-61.412-136.897-136.896-136.897-41.644 0-80.527 18.63-106.679 51.112-2.598 3.227-2.088 7.947 1.138 10.545 3.228 2.6 7.95 2.089 10.545-1.139 23.291-28.927 57.915-45.518 94.996-45.518 67.214 0 121.897 54.683 121.897 121.896v34.165l-7.934-1.884v-1.387c0-3.848-1.559-7.339-4.078-9.874v-18.385c0-60.591-49.294-109.886-109.885-109.886s-109.885 49.295-109.885 109.886v18.385c-2.519 2.535-4.078 6.026-4.078 9.873v1.387l-7.934 1.884v-34.165c0-18.692 4.122-36.63 12.251-53.315 1.814-3.724.267-8.213-3.457-10.027-3.723-1.813-8.213-.267-10.027 3.457-9.135 18.749-13.767 38.897-13.767 59.886v37.871c-10.265 3.596-17.222 13.247-17.222 24.335v26.07c0 12.007 8.159 22.329 19.84 25.102l20.315 4.823v1.387c0 7.729 6.288 14.016 14.016 14.016h12.184c4.492 0 8.497-2.124 11.064-5.421 10.797 18.491 28.088 32.748 48.722 39.619v4.527c-22.532 5.928-42.887 19.105-57.609 37.365-15.67 19.435-24.299 43.912-24.299 68.924v6.721c0 4.143 3.358 7.5 7.5 7.5s7.5-3.357 7.5-7.5v-6.721c0-42.191 27.184-78.562 66.908-90.704v4.894c0 15.427 12.55 27.978 27.977 27.978s27.977-12.551 27.977-27.978v-4.884c4.955 1.526 9.78 3.461 14.426 5.786v160.641c0 1.996.284 3.926.812 5.754h-126.502c-6.395 0-11.598-5.203-11.598-11.598v-34.168c0-4.143-3.358-7.5-7.5-7.5s-7.5 3.357-7.5 7.5v34.168c0 14.666 11.932 26.598 26.598 26.598h271.113c11.443 0 20.754-9.311 20.754-20.754v-108.146c0-4.143-3.357-7.5-7.5-7.5s-7.5 3.357-7.5 7.5v108.146c0 3.173-2.581 5.754-5.754 5.754h-124.669c-3.173 0-5.754-2.581-5.754-5.754v-168.462c0-3.173 2.581-5.754 5.754-5.754h124.669c3.173 0 5.754 2.581 5.754 5.754v31.315c0 4.143 3.358 7.501 7.5 7.501zm-276.623-200.669c-2.405-4.268-6.981-7.156-12.219-7.156h-7.122v-11.673c1.163-.861 2.468-1.497 3.887-1.896 60.382-16.957 121.616-16.957 181.997 0 1.417.398 2.723 1.036 3.887 1.896v11.672h-7.122c-5.238 0-9.814 2.888-12.219 7.156-50.163-12.564-100.927-12.563-151.089.001zm174.507 94.568h-10.216v-86.725h10.216zm31.85-66.905c4.89 1.161 8.305 5.481 8.305 10.508v26.07c0 5.026-3.415 9.347-8.305 10.508-.001 0-.001 0-.001 0l-16.85 4v-55.086zm-130.813-143.949c47.528 0 87.006 35.126 93.839 80.781-62.274-17.261-125.404-17.261-187.678 0 6.832-45.655 46.311-80.781 93.839-80.781zm-130.814 191.035c-4.89-1.161-8.305-5.481-8.305-10.508v-26.07c0-5.026 3.415-9.347 8.305-10.508l16.851-4v55.086zm42.066 19.819h-10.215v-86.725h10.215zm15-35.032v-44.516c48.959-12.581 98.536-12.581 147.495-.001v44.517c0 40.665-33.083 73.748-73.748 73.748s-73.747-33.083-73.747-73.748zm73.748 122.214c-7.156 0-12.977-5.821-12.977-12.978v-21.435c4.237.623 8.57.946 12.977.946s8.74-.323 12.977-.946v21.435c0 7.156-5.822 12.978-12.977 12.978z"/></g></svg>