<svg id="Capa_1" enable-background="new 0 0 512 512" height="512" viewBox="0 0 512 512" width="512" xmlns="http://www.w3.org/2000/svg"><g><path d="m310.828 253.256v-12.717l23.211-16.083c2.022-1.401 3.229-3.705 3.229-6.165v-16.143h34.289c4.143 0 7.5-3.357 7.5-7.5v-34.542c0-4.143-3.357-7.5-7.5-7.5h-8.99v-108.972c0-2.854-1.619-5.46-4.178-6.724-2.557-1.264-5.613-.968-7.879.767l-22.914 17.528c-12.703-10.732-30.57-18.241-50.922-21.325l-13.885-29.568c-1.237-2.631-3.882-4.312-6.789-4.312s-5.553 1.681-6.789 4.312l-13.884 29.567c-20.415 3.088-38.211 10.563-50.924 21.323l-22.912-17.526c-2.269-1.735-5.322-2.031-7.879-.767-2.559 1.264-4.178 3.87-4.178 6.724v44.441c0 4.143 3.357 7.5 7.5 7.5s7.5-3.357 7.5-7.5v-29.261l48.345 36.98c1.802 1.378 4.132 1.867 6.335 1.329 2.204-.538 4.046-2.045 5.011-4.099l31.875-67.878 31.876 67.88c.965 2.054 2.807 3.561 5.011 4.099 2.202.538 4.532.049 6.335-1.329l48.345-36.98v93.792h-183.133v-35.559c0-4.143-3.357-7.5-7.5-7.5s-7.5 3.357-7.5 7.5v35.56h-8.99c-4.143 0-7.5 3.357-7.5 7.5v34.542c0 4.143 3.357 7.5 7.5 7.5h34.288v16.143c0 2.46 1.206 4.764 3.229 6.165l23.212 16.083v12.717c0 2.46 1.206 4.764 3.229 6.165l5.552 3.847c-5.924 54.23-15.277 94.046-29.275 124.534h-29.488c-9.269 0-16.809 7.54-16.809 16.809v90.581c0 9.269 7.54 16.809 16.809 16.809h42.998c4.143 0 7.5-3.357 7.5-7.5s-3.357-7.5-7.5-7.5h-42.998c-.997 0-1.809-.812-1.809-1.809v-90.584c0-.997.812-1.809 1.809-1.809h209.622c.997 0 1.809.812 1.809 1.809v90.581c0 .997-.812 1.809-1.809 1.809h-137.655c-4.143 0-7.5 3.357-7.5 7.5s3.357 7.5 7.5 7.5h137.653c9.269 0 16.809-7.54 16.809-16.809v-90.581c0-9.269-7.54-16.809-16.809-16.809h-29.489c-7.462-16.247-13.541-34.993-18.533-57.129-.911-4.04-4.92-6.578-8.967-5.666-4.04.911-6.577 4.926-5.666 8.967 4.602 20.402 10.121 38.134 16.771 53.828h-117.858c12.478-29.466 21.141-66.519 26.875-114.839l3.668 2.541v8.089c0 2.355 1.106 4.574 2.987 5.991l20.888 15.732c1.336 1.006 2.925 1.509 4.513 1.509s3.177-.503 4.513-1.509l20.888-15.732c1.881-1.417 2.987-3.636 2.987-5.991v-8.088l3.666-2.541c1.328 11.236 2.788 21.66 4.425 31.633.604 3.677 3.785 6.286 7.393 6.286.403 0 .812-.032 1.224-.1 4.088-.672 6.857-4.529 6.187-8.616-1.979-12.05-3.693-24.796-5.232-38.9l5.55-3.846c2.021-1.4 3.227-3.704 3.227-6.164zm-96.327-175.029-17.816-13.628c8.155-6.121 18.777-10.91 30.728-13.869zm82.998 0-12.911-27.493c11.923 2.961 22.576 7.765 30.724 13.868zm24.768 136.136-11.439 7.926v-20.141h11.439zm-174.323-46.757h216.112v19.542h-216.112zm41.788 46.757v-12.215h11.44v20.141zm26.44 34.965v-47.18h11.439v55.106zm53.215 30.525-13.387 10.083-13.388-10.083c0-9.437 0-61.582 0-77.704h26.775zm15-77.705h11.44v47.18l-11.44 7.927z"/><path d="m335.16 470.299v-40.796c0-7.146-5.813-12.959-12.959-12.959h-132.402c-7.146 0-12.959 5.813-12.959 12.959v40.796c0 7.146 5.813 12.959 12.959 12.959h132.401c7.146 0 12.96-5.814 12.96-12.959zm-15-2.041h-128.32v-36.714h128.32z"/><path d="m230.099 457.4h51.802c4.143 0 7.5-3.357 7.5-7.5s-3.357-7.5-7.5-7.5h-51.802c-4.143 0-7.5 3.357-7.5 7.5s3.358 7.5 7.5 7.5z"/><path d="m248.5 326.38v25.076c0 4.143 3.357 7.5 7.5 7.5s7.5-3.357 7.5-7.5v-25.076c0-4.143-3.357-7.5-7.5-7.5s-7.5 3.357-7.5 7.5z"/><path d="m256 142.311c3.199 0 6.19-1.575 8-4.215l14.291-20.841c2.248-3.279 2.249-7.687 0-10.971l-14.293-20.845c-1.81-2.637-4.8-4.211-7.998-4.211-3.197 0-6.188 1.574-7.999 4.214l-14.293 20.845c-2.247 3.281-2.246 7.688.002 10.967l14.29 20.842v.001c1.81 2.638 4.801 4.214 8 4.214zm0-42.01 7.863 11.469-7.863 11.467-7.864-11.469z"/><path d="m183.491 105.862c1.744 0 3.497-.605 4.917-1.839 3.126-2.717 3.458-7.454.741-10.581l-4.619-5.315c-2.718-3.126-7.455-3.458-10.581-.741s-3.458 7.454-.741 10.581l4.619 5.315c1.483 1.706 3.567 2.58 5.664 2.58z"/><path d="m328.509 105.862c2.096 0 4.181-.874 5.664-2.58l4.619-5.315c2.717-3.127 2.385-7.864-.741-10.581-3.125-2.716-7.862-2.384-10.581.741l-4.619 5.315c-2.717 3.127-2.385 7.864.741 10.581 1.42 1.235 3.173 1.839 4.917 1.839z"/></g></svg>