<svg id="Capa_1" enable-background="new 0 0 512 512" height="512" viewBox="0 0 512 512" width="512" xmlns="http://www.w3.org/2000/svg"><g><path d="m382.039 229.955c-2.273-3.462-6.923-4.426-10.387-2.152-3.462 2.274-4.426 6.924-2.152 10.387l6.833 10.406h-56.869l21.223-54.286 12.869 19.598c2.274 3.464 6.924 4.427 10.386 2.153 3.463-2.273 4.427-6.924 2.153-10.386l-20.837-31.732c-1.366-2.097-3.796-3.445-6.44-3.384h-165.528c-2.491-.044-4.984 1.18-6.436 3.448l-51.2 77.973c-1.842 2.805-1.597 6.491.601 9.027l34.552 39.88h-26.948c-4.142 0-7.5 3.357-7.5 7.5v165.328c0 21.11 17.174 38.285 38.284 38.285h202.87c21.11 0 38.284-17.175 38.284-38.285v-165.328c0-4.143-3.357-7.5-7.5-7.5h-26.948l34.552-39.88c2.197-2.536 2.443-6.223.602-9.028zm-96.636 70.932h-58.653l-12.62-37.291h83.893zm-113.937-106.577 21.224 54.286h-56.87zm135.248 45.704-36.567-54.455h57.857zm-12.305 8.582h-76.664l38.332-57.083zm-88.969-8.582-21.29-54.455h57.857zm-67.097 23.582h59.952l12.62 37.291h-40.263zm94.141 233.404v-33.184c0-4.143-3.358-7.5-7.5-7.5s-7.5 3.357-7.5 7.5v33.184h-62.842c-12.839 0-23.284-10.445-23.284-23.285v-157.828h86.126v118.93c0 4.143 3.358 7.5 7.5 7.5s7.5-3.357 7.5-7.5v-118.93h47.185v181.113zm148.312-23.285c0 12.84-10.445 23.285-23.284 23.285h-62.843v-181.113h86.127zm-79.557-172.828 12.62-37.291h59.951l-32.308 37.291z"/><path d="m105.04 183.357-22.984-12.046c-3.668-1.923-8.202-.508-10.125 3.161s-.507 8.201 3.162 10.124l22.984 12.046c1.111.583 2.302.859 3.475.859 2.7 0 5.309-1.463 6.649-4.021 1.924-3.668.508-8.2-3.161-10.123z"/><path d="m91.909 218.967-25.917-1.303c-4.144-.231-7.659 2.978-7.867 7.113-.208 4.138 2.978 7.659 7.114 7.867l25.917 1.303c.128.007.256.01.383.01 3.969 0 7.283-3.115 7.484-7.123.208-4.138-2.977-7.659-7.114-7.867z"/><path d="m436.907 184.597c3.669-1.923 5.084-6.455 3.161-10.124-1.922-3.669-6.456-5.085-10.124-3.161l-22.984 12.046c-3.669 1.923-5.084 6.455-3.161 10.124 1.34 2.558 3.948 4.021 6.648 4.021 1.174 0 2.364-.276 3.476-.859z"/><path d="m453.875 224.777c-.208-4.136-3.689-7.34-7.867-7.113l-25.917 1.303c-4.137.208-7.321 3.729-7.113 7.867.201 4.009 3.515 7.123 7.484 7.123.126 0 .254-.003.383-.01l25.917-1.303c4.136-.207 7.321-3.729 7.113-7.867z"/><path d="m99.099 141.749h24.758c4.142 0 7.5-3.357 7.5-7.5s-3.358-7.5-7.5-7.5h-24.231v-44.792h117.858v44.792h-64.626c-4.142 0-7.5 3.357-7.5 7.5s3.358 7.5 7.5 7.5h260.197c7.98 0 14.473-6.493 14.473-14.474v-45.844c0-7.98-6.492-14.474-14.473-14.474h-56.252c5.815-7.076 9.31-16.126 9.31-25.979 0-22.595-18.384-40.978-40.979-40.978h-12.297c-24.562 0-45.949 13.852-56.76 34.152-10.812-20.3-32.199-34.152-56.76-34.152h-12.297c-22.596 0-40.979 18.383-40.979 40.979 0 9.852 3.495 18.903 9.31 25.979h-56.252c-7.981 0-14.474 6.493-14.474 14.474v45.845c.001 7.979 6.493 14.472 14.474 14.472zm133.385-15v-44.792h47.185v44.792zm180.043 0h-117.858v-44.792h117.858zm-148.95-62.489c0-27.162 22.098-49.26 49.26-49.26h12.297c14.325 0 25.979 11.654 25.979 25.979s-11.654 25.979-25.979 25.979h-61.557zm-102.537-23.281c0-14.325 11.655-25.979 25.979-25.979h12.297c27.162 0 49.26 22.098 49.26 49.26v2.697h-61.557c-14.324 0-25.979-11.654-25.979-25.978z"/><path d="m194.084 336.009h-33.312c-4.142 0-7.5 3.357-7.5 7.5s3.358 7.5 7.5 7.5h33.312c4.142 0 7.5-3.357 7.5-7.5s-3.358-7.5-7.5-7.5z"/><path d="m318.069 351.009h33.312c4.143 0 7.5-3.357 7.5-7.5s-3.357-7.5-7.5-7.5h-33.312c-4.143 0-7.5 3.357-7.5 7.5s3.358 7.5 7.5 7.5z"/></g></svg>