<svg id="Capa_1" enable-background="new 0 0 512 512" height="512" viewBox="0 0 512 512" width="512" xmlns="http://www.w3.org/2000/svg"><g><path d="m127.835 469.592c0 6.01 4.89 10.898 10.899 10.898h276.771c6.01 0 10.898-4.889 10.898-10.898v-116.065c0-6.01-4.889-10.899-10.898-10.899h-276.771c-6.01 0-10.899 4.89-10.899 10.899zm15-111.964h268.568v107.862h-268.568z"/><path d="m345.59 190.726c-.001-.006-.001-.012-.002-.018-.057-.584-.117-.815-2.256-13.882 1.664-.166 3.283-.885 4.558-2.159 2.929-2.93 2.929-7.678 0-10.607l-4.354-4.354 8.488-8.488c1.627-1.627 2.417-3.911 2.143-6.195l-1.444-12.057c-.199-1.67-.954-3.223-2.143-4.412l-11.833-11.833c-1.189-1.188-2.742-1.943-4.412-2.143l-12.057-1.444c-2.291-.278-4.568.517-6.195 2.144l-8.487 8.488-4.355-4.355c-2.93-2.928-7.678-2.928-10.607 0-1.275 1.275-1.994 2.895-2.159 4.559l-13.238-2.167c-2.857-.531-5.638.642-7.293 2.777l-68.263 84.66c-1.361 1.688-1.925 3.884-1.546 6.02l6.912 38.924c.551 3.098 2.976 5.522 6.073 6.073l38.923 6.911c2.136.378 4.329-.183 6.02-1.546l84.716-68.307c1.946-1.54 3.057-4.007 2.811-6.589zm-119.941 50.925 2.507-10.258 61.407-67.303 13.646 13.646-67.302 61.407zm73.85-101.005-6.945 3.011-2.552-4.566zm2.918 15.084 11.112-4.817 2.859 2.859-4.818 11.112zm24.237 12.07 1.555 9.499-4.567-2.552zm-2.542-39.34 5.861.702 8.164 8.164.702 5.861-5.911 5.911-14.727-14.727zm-49.373 14.068 5.392 9.647-63.588 69.693-1.043-5.872zm-23.435 109.272-5.871-1.042 69.692-63.587 9.647 5.391z"/><path d="m379.809 90.756c-4.143 0-7.5 3.357-7.5 7.5v5.729h-5.729c-4.143 0-7.5 3.357-7.5 7.5s3.357 7.5 7.5 7.5h5.729v5.729c0 4.143 3.357 7.5 7.5 7.5s7.5-3.357 7.5-7.5v-5.729h5.729c4.143 0 7.5-3.357 7.5-7.5s-3.357-7.5-7.5-7.5h-5.729v-5.729c0-4.143-3.358-7.5-7.5-7.5z"/><path d="m176.8 271.836c4.143 0 7.5-3.357 7.5-7.5v-5.729h5.729c4.143 0 7.5-3.357 7.5-7.5s-3.357-7.5-7.5-7.5h-5.729v-5.729c0-4.143-3.357-7.5-7.5-7.5s-7.5 3.357-7.5 7.5v5.729h-5.729c-4.143 0-7.5 3.357-7.5 7.5s3.357 7.5 7.5 7.5h5.729v5.729c0 4.143 3.357 7.5 7.5 7.5z"/><path d="m338.123 265.39c4.143 0 7.5-3.357 7.5-7.5v-5.729h5.729c4.143 0 7.5-3.357 7.5-7.5s-3.357-7.5-7.5-7.5h-5.729v-5.729c0-4.143-3.357-7.5-7.5-7.5s-7.5 3.357-7.5 7.5v5.729h-5.729c-4.143 0-7.5 3.357-7.5 7.5s3.357 7.5 7.5 7.5h5.729v5.729c0 4.142 3.357 7.5 7.5 7.5z"/><path d="m203.258 178.577c4.143 0 7.5-3.357 7.5-7.5v-5.729h5.729c4.143 0 7.5-3.357 7.5-7.5s-3.357-7.5-7.5-7.5h-5.729v-5.729c0-4.143-3.357-7.5-7.5-7.5s-7.5 3.357-7.5 7.5v5.729h-5.729c-4.143 0-7.5 3.357-7.5 7.5s3.357 7.5 7.5 7.5h5.729v5.729c0 4.143 3.357 7.5 7.5 7.5z"/><path d="m228.473 142.949c4.143 0 7.5-3.357 7.5-7.5v-10.735c0-4.143-3.357-7.5-7.5-7.5s-7.5 3.357-7.5 7.5v10.735c0 4.143 3.357 7.5 7.5 7.5z"/><path d="m188.413 121.601v-10.734c0-4.143-3.357-7.5-7.5-7.5s-7.5 3.357-7.5 7.5v10.734c0 4.143 3.357 7.5 7.5 7.5s7.5-3.358 7.5-7.5z"/><path d="m379.809 184.568c-4.143 0-7.5 3.357-7.5 7.5v10.735c0 4.143 3.357 7.5 7.5 7.5s7.5-3.357 7.5-7.5v-10.735c0-4.142-3.358-7.5-7.5-7.5z"/><path d="m290.437 259.781v10.735c0 4.143 3.357 7.5 7.5 7.5s7.5-3.357 7.5-7.5v-10.735c0-4.143-3.357-7.5-7.5-7.5s-7.5 3.358-7.5 7.5z"/><path d="m169.568 383.06h50.643c4.143 0 7.5-3.357 7.5-7.5s-3.357-7.5-7.5-7.5h-50.643c-4.143 0-7.5 3.357-7.5 7.5s3.358 7.5 7.5 7.5z"/><path d="m384.67 392.06h-215.102c-4.143 0-7.5 3.357-7.5 7.5s3.357 7.5 7.5 7.5h215.102c4.143 0 7.5-3.357 7.5-7.5s-3.358-7.5-7.5-7.5z"/><path d="m384.67 416.06h-215.102c-4.143 0-7.5 3.357-7.5 7.5s3.357 7.5 7.5 7.5h215.102c4.143 0 7.5-3.357 7.5-7.5s-3.358-7.5-7.5-7.5z"/><path d="m330.159 440.06h-160.591c-4.143 0-7.5 3.357-7.5 7.5s3.357 7.5 7.5 7.5h160.591c4.143 0 7.5-3.357 7.5-7.5s-3.357-7.5-7.5-7.5z"/><path d="m441.767 36.244h-28.499v-22.506c0-7.575-6.164-13.738-13.739-13.738h-264.296c-4.143 0-7.5 3.357-7.5 7.5s3.357 7.5 7.5 7.5h263.034v21.244h-285.795c-7.575 0-13.738 6.163-13.738 13.738v410.773h-27.239v-445.755h34.738c4.143 0 7.5-3.357 7.5-7.5s-3.357-7.5-7.5-7.5h-36c-7.575 0-13.738 6.163-13.738 13.738v448.279c0 7.575 6.163 13.738 13.738 13.738h28.5v22.506c0 7.575 6.163 13.738 13.738 13.738h129.029c4.143 0 7.5-3.357 7.5-7.5s-3.357-7.5-7.5-7.5h-127.767v-445.755h326.771v445.756h-170.004c-4.143 0-7.5 3.357-7.5 7.5s3.357 7.5 7.5 7.5h171.267c7.575 0 13.738-6.163 13.738-13.738v-448.28c0-7.575-6.163-13.738-13.738-13.738z"/><path d="m371.293 311.39h44.212c6.01 0 10.898-4.89 10.898-10.899v-220.62c0-6.01-4.889-10.899-10.898-10.899h-276.771c-6.01 0-10.899 4.89-10.899 10.899v220.619c0 6.01 4.89 10.899 10.899 10.899h203.559c4.143 0 7.5-3.357 7.5-7.5s-3.357-7.5-7.5-7.5h-199.458v-212.417h268.568v212.418h-40.11c-4.143 0-7.5 3.357-7.5 7.5s3.357 7.5 7.5 7.5z"/></g></svg>