<svg id="Capa_1" enable-background="new 0 0 512.001 512.001" height="512" viewBox="0 0 512.001 512.001" width="512" xmlns="http://www.w3.org/2000/svg"><g><path d="m438.235 42.876-13.594-37.906c-1.269-3.538-4.964-5.595-8.636-4.8l-39.37 8.465c-2.114.454-3.929 1.799-4.979 3.688l-74.447 133.927c-3.665-1.045-7.395-1.925-11.182-2.634v-4.858c0-6.465-3.175-12.518-8.493-16.191l-10.346-7.148c-6.688-4.623-15.683-4.624-22.375-.001l-10.348 7.149c-5.317 3.675-8.492 9.728-8.492 16.191v4.858c-3.774.708-7.503 1.592-11.175 2.644l-74.452-133.937c-1.051-1.89-2.865-3.234-4.979-3.688l-39.371-8.465c-3.679-.794-7.367 1.262-8.636 4.801l-13.594 37.906c-.73 2.034-.546 4.285.504 6.175l16.896 30.394c2.013 3.62 6.58 4.921 10.199 2.912 3.621-2.013 4.924-6.579 2.912-10.199l-15.243-27.422 10.229-28.522 29.626 6.369 71.576 128.763c-4.7 2.002-9.271 4.296-13.688 6.864l-36.369-65.426c-2.013-3.621-6.581-4.924-10.199-2.912-3.621 2.013-4.924 6.579-2.912 10.199l36.955 66.481c-4.14 3.136-8.094 6.541-11.834 10.198l-44.064-79.269c-2.013-3.621-6.582-4.924-10.199-2.912-3.621 2.013-4.924 6.579-2.912 10.199l46.568 83.774c-17.175 21.751-26.571 48.718-26.571 76.579v142.138c0 3.979 1.962 7.693 5.25 9.937l17.508 11.944c5.245 19.627 15.765 37.443 30.506 51.629 1.454 1.399 3.328 2.096 5.199 2.096 1.968 0 3.933-.77 5.405-2.3 2.872-2.984 2.781-7.732-.204-10.604-8.065-7.761-14.67-16.774-19.585-26.641 3.218 1.265 6.864 1.093 10.007-.567 3.953-2.09 6.409-6.165 6.409-10.637v-102.804c0-12.14 9.877-22.017 22.018-22.017s22.018 9.877 22.018 22.017v29.696c0 3.885 1.586 7.677 4.352 10.404l11.616 11.458c5.657 5.584 14.866 5.581 20.525.001l11.619-11.461c2.765-2.729 4.35-6.52 4.35-10.402v-29.696c0-12.14 9.877-22.017 22.017-22.017 12.141 0 22.018 9.877 22.018 22.017v102.805c0 4.472 2.456 8.548 6.41 10.637 1.77.935 3.699 1.397 5.622 1.397 1.508 0 3.012-.285 4.431-.85-16.041 32.414-49.285 53.699-86.729 53.699-15.805 0-31.49-3.897-45.359-11.271-3.655-1.945-8.198-.557-10.143 3.102-1.944 3.657-.557 8.198 3.102 10.143 16.029 8.522 34.148 13.027 52.4 13.027 50.833 0 94.964-33.972 108.005-82.861l17.508-11.943c3.287-2.243 5.249-5.958 5.249-9.937v-142.138c0-7.602-.703-15.243-2.091-22.714-.758-4.073-4.68-6.76-8.744-6.004-4.072.757-6.76 4.671-6.004 8.744 1.221 6.568 1.839 13.288 1.839 19.974v140.568l-30.496 20.804v-97.183c0-20.411-16.606-37.017-37.018-37.017s-37.017 16.605-37.017 37.017v29.535l-11.23 11.077-11.231-11.077v-29.535c0-20.411-16.606-37.017-37.018-37.017s-37.018 16.605-37.018 37.017v97.182l-30.495-20.803v-140.568c0-51.116 36.395-95.585 85.734-106.205v51.324c0 10.852 8.829 19.681 19.681 19.681h20.692c10.852 0 19.681-8.829 19.681-19.681v-51.329c33.099 7.081 61.033 29.219 75.546 60.235 1.759 3.759 6.23 5.368 9.972 3.614 3.752-1.756 5.37-6.22 3.614-9.972-4.093-8.748-9.126-16.874-14.954-24.274l77.525-139.465c1.049-1.889 1.233-4.14.503-6.175zm-167.207 167.366c0 2.581-2.1 4.681-4.681 4.681h-20.692c-2.581 0-4.681-2.1-4.681-4.681v-71.483c0-1.538.755-2.978 2.019-3.851l10.348-7.149c.796-.55 1.729-.825 2.66-.825.933 0 1.865.275 2.661.825l10.347 7.149c1.265.873 2.02 2.313 2.02 3.851v71.483zm78.58-33.534c-3.729-3.654-7.681-7.062-11.83-10.205l36.927-66.431c2.012-3.62.709-8.187-2.912-10.199-3.618-2.014-8.187-.71-10.199 2.912l-36.344 65.381c-4.407-2.558-8.98-4.847-13.696-6.849l71.559-128.734 29.625-6.369 10.229 28.522z"/><path d="m334.327 258.123h-156.652c-4.143 0-7.5 3.357-7.5 7.5s3.357 7.5 7.5 7.5h156.651c4.143 0 7.5-3.357 7.5-7.5s-3.357-7.5-7.499-7.5z"/><path d="m256.001 156.023c-4.143 0-7.5 3.357-7.5 7.5v14.807c0 4.143 3.357 7.5 7.5 7.5s7.5-3.357 7.5-7.5v-14.807c0-4.143-3.358-7.5-7.5-7.5z"/><path d="m163.132 317.961-4.841-4.556c-3.015-2.838-7.762-2.694-10.602.322-2.839 3.016-2.694 7.763.322 10.602l4.841 4.556c1.448 1.363 3.295 2.038 5.139 2.038 1.995 0 3.987-.792 5.463-2.36 2.84-3.016 2.695-7.763-.322-10.602z"/><path d="m163.132 342.944-4.841-4.556c-3.015-2.838-7.762-2.694-10.602.322-2.839 3.016-2.694 7.763.322 10.602l4.841 4.556c1.448 1.363 3.295 2.038 5.139 2.038 1.995 0 3.987-.792 5.463-2.36 2.84-3.017 2.695-7.764-.322-10.602z"/><path d="m163.132 367.926-4.841-4.556c-3.015-2.838-7.762-2.695-10.602.322-2.839 3.016-2.694 7.763.322 10.602l4.841 4.556c1.448 1.363 3.295 2.038 5.139 2.038 1.995 0 3.987-.792 5.463-2.36 2.84-3.016 2.695-7.763-.322-10.602z"/><path d="m364.31 313.727c-2.839-3.015-7.585-3.158-10.602-.32l-4.84 4.556c-3.016 2.839-3.159 7.585-.32 10.602 1.476 1.567 3.467 2.359 5.462 2.359 1.844 0 3.691-.676 5.14-2.039l4.84-4.556c3.015-2.84 3.159-7.586.32-10.602z"/><path d="m364.31 338.709c-2.839-3.016-7.585-3.158-10.602-.32l-4.84 4.556c-3.016 2.839-3.159 7.585-.32 10.602 1.476 1.567 3.467 2.359 5.462 2.359 1.844 0 3.691-.676 5.14-2.039l4.84-4.556c3.015-2.839 3.159-7.585.32-10.602z"/><path d="m353.709 363.371-4.84 4.556c-3.016 2.839-3.159 7.585-.32 10.602 1.476 1.567 3.467 2.359 5.462 2.359 1.844 0 3.691-.676 5.14-2.039l4.84-4.556c3.016-2.839 3.159-7.585.32-10.602-2.84-3.015-7.586-3.158-10.602-.32z"/></g></svg>