<svg id="Capa_1" enable-background="new 0 0 512 512" height="512" viewBox="0 0 512 512" width="512" xmlns="http://www.w3.org/2000/svg"><g><path d="m74.168 343.646h124.184c4.143 0 7.5-3.357 7.5-7.5s-3.357-7.5-7.5-7.5h-9.397c-10.81-25.817-14.819-72.147-12.766-98.099h14.677c4.143 0 7.5-3.357 7.5-7.5v-54.314c0-4.143-3.357-7.5-7.5-7.5h-20.918c-4.143 0-7.5 3.357-7.5 7.5v12.335h-6.798v-12.335c0-4.143-3.357-7.5-7.5-7.5h-25.102c-4.143 0-7.5 3.357-7.5 7.5v12.335h-6.798v-12.335c0-4.143-3.357-7.5-7.5-7.5h-20.917c-4.143 0-7.5 3.357-7.5 7.5v54.314c0 4.143 3.357 7.5 7.5 7.5h14.684c.946 11.7.647 27.168-.884 42.906-.4 4.122 2.616 7.789 6.739 8.19 4.101.403 7.789-2.616 8.19-6.739 1.581-16.262 1.917-31.9 1.001-44.357h51.099c-1.79 25.954 1.655 69.402 11.748 98.099h-74.612c2.433-6.896 4.578-14.919 6.408-23.982.82-4.061-1.807-8.017-5.867-8.836-4.063-.822-8.017 1.807-8.836 5.867-2.147 10.633-4.804 19.837-7.767 26.951h-8.068c-4.143 0-7.5 3.357-7.5 7.5s3.357 7.5 7.5 7.5zm13.665-128.099v-39.314h5.917v12.335c0 4.143 3.357 7.5 7.5 7.5h21.798c4.143 0 7.5-3.357 7.5-7.5v-12.335h10.102v12.335c0 4.143 3.357 7.5 7.5 7.5h21.798c4.143 0 7.5-3.357 7.5-7.5v-12.335h5.918v39.314z"/><path d="m214.205 281.363c.86 0 1.736-.149 2.591-.464l113.615-41.835c2.184-.804 3.87-2.576 4.565-4.798.695-2.221.32-4.639-1.016-6.544l-68.75-98.109 100.394-14.791c4.099-.604 6.931-4.415 6.327-8.513-.604-4.099-4.428-6.931-8.513-6.327l-112.417 16.562c-2.573.379-4.767 2.064-5.796 4.453-1.028 2.39-.746 5.141.747 7.271l70.135 100.085-104.476 38.47c-3.887 1.432-5.878 5.742-4.446 9.63 1.117 3.032 3.986 4.91 7.04 4.91z"/><path d="m452.868 91.241-22.768-22.768c-5.607-5.604-14.731-5.605-20.341.001l-22.769 22.768c-5.605 5.607-5.605 14.732.001 20.341l22.768 22.768c.001 0 .001 0 .001.001 2.804 2.803 6.486 4.203 10.17 4.203 3.683 0 7.366-1.401 10.171-4.204l22.768-22.768c5.607-5.608 5.607-14.733-.001-20.342zm-32.938 32.067-21.896-21.896 21.896-21.896 21.896 21.896z"/><path d="m223.805 134.546c1.465 1.464 3.385 2.196 5.304 2.196s3.839-.732 5.304-2.196c2.929-2.93 2.929-7.678 0-10.607l-9.601-9.601 9.601-9.601c2.929-2.93 2.929-7.678 0-10.607-2.93-2.928-7.678-2.928-10.607 0l-9.601 9.601-9.601-9.601c-2.93-2.928-7.678-2.928-10.607 0-2.929 2.93-2.929 7.678 0 10.607l9.601 9.601-9.601 9.601c-2.929 2.93-2.929 7.678 0 10.607 1.465 1.464 3.385 2.196 5.304 2.196s3.839-.732 5.304-2.196l9.601-9.601z"/><path d="m391.898 215.506c-2.93-2.928-7.678-2.928-10.607 0l-9.601 9.601-9.601-9.601c-2.93-2.928-7.678-2.928-10.607 0-2.929 2.93-2.929 7.678 0 10.607l9.601 9.601-9.601 9.601c-2.929 2.93-2.929 7.678 0 10.607 1.465 1.464 3.385 2.196 5.304 2.196s3.839-.732 5.304-2.196l9.601-9.601 9.601 9.601c1.465 1.464 3.385 2.196 5.304 2.196s3.839-.732 5.304-2.196c2.929-2.93 2.929-7.678 0-10.607l-9.601-9.601 9.601-9.601c2.927-2.929 2.927-7.677-.002-10.607z"/><path d="m275.855 339.93h158.092c6.807 0 12.344-5.537 12.344-12.344v-29.064c0-6.807-5.537-12.344-12.344-12.344h-158.092c-6.807 0-12.344 5.537-12.344 12.344v29.064c.001 6.807 5.538 12.344 12.344 12.344zm2.657-38.752h152.779v23.752h-152.779z"/><path d="m142.595 93.637c4.143 0 7.5-3.357 7.5-7.5s-3.357-7.5-7.5-7.5h-50.23c-4.143 0-7.5 3.357-7.5 7.5s3.357 7.5 7.5 7.5z"/><path d="m66.979 111.412c0 4.143 3.357 7.5 7.5 7.5h86c4.143 0 7.5-3.357 7.5-7.5s-3.357-7.5-7.5-7.5h-86c-4.142 0-7.5 3.358-7.5 7.5z"/><path d="m497.988 0h-419.708c-4.143 0-7.5 3.357-7.5 7.5s3.357 7.5 7.5 7.5h418.72v18.848h-482v-18.848h34.28c4.143 0 7.5-3.357 7.5-7.5s-3.357-7.5-7.5-7.5h-35.268c-7.726 0-14.012 6.286-14.012 14.012v20.823c0 7.727 6.286 14.013 14.012 14.013h11.403v321.014c0 4.143 3.357 7.5 7.5 7.5h62.593v6.278c0 10.356 8.426 18.782 18.782 18.782h118.924v18.053l-100.814 25.643c-3.324.846-5.651 3.839-5.651 7.269v10.501c-9.93 3.18-17.14 12.5-17.14 23.472 0 13.586 11.054 24.64 24.64 24.64 13.587 0 24.641-11.054 24.641-24.64 0-10.972-7.21-20.292-17.141-23.472v-4.67l91.558-23.289c.567 3.581 3.667 6.318 7.407 6.318h7.786v21.642c-9.93 3.18-17.14 12.5-17.14 23.472 0 13.586 11.054 24.64 24.64 24.64s24.64-11.054 24.64-24.64c0-10.972-7.209-20.292-17.14-23.472v-21.642h7.787c3.74 0 6.84-2.737 7.407-6.318l91.557 23.289v4.67c-9.93 3.18-17.14 12.5-17.14 23.472 0 13.586 11.054 24.64 24.64 24.64s24.64-11.054 24.64-24.64c0-10.972-7.209-20.292-17.14-23.472v-10.501c0-3.43-2.327-6.423-5.651-7.269l-100.812-25.644v-18.053h118.922c10.356 0 18.782-8.426 18.782-18.782v-6.278h62.593c4.143 0 7.5-3.357 7.5-7.5v-75.765c0-4.143-3.357-7.5-7.5-7.5s-7.5 3.357-7.5 7.5v68.265h-431.17v-313.513h431.17v216.249c0 4.143 3.357 7.5 7.5 7.5s7.5-3.357 7.5-7.5v-216.249h11.403c7.726 0 14.012-6.286 14.012-14.013v-20.823c0-7.726-6.286-14.012-14.012-14.012zm-363.739 497c-5.315 0-9.64-4.324-9.64-9.64s4.324-9.64 9.64-9.64 9.641 4.324 9.641 9.64-4.326 9.64-9.641 9.64zm121.751 0c-5.315 0-9.64-4.324-9.64-9.64s4.324-9.64 9.64-9.64 9.64 4.324 9.64 9.64-4.325 9.64-9.64 9.64zm121.751 0c-5.315 0-9.64-4.324-9.64-9.64s4.324-9.64 9.64-9.64 9.64 4.324 9.64 9.64-4.325 9.64-9.64 9.64zm-113.964-69.754h-15.573c0-5.903 0-14.274 0-24.824h15.573c0 .12 0 25.752 0 24.824zm137.705-49.885v6.278c0 2.086-1.696 3.782-3.782 3.782h-283.42c-2.086 0-3.782-1.696-3.782-3.782v-6.278z"/></g></svg>