<svg id="Capa_1" enable-background="new 0 0 512 512" height="512" viewBox="0 0 512 512" width="512" xmlns="http://www.w3.org/2000/svg"><g><path d="m163.288 85.404c-4.954-8.563-13.186-13.803-20.512-18.041-.712-.411-1.431-.836-2.159-1.265-6.41-3.78-14.388-8.484-23.734-8.484h-.938c-8.817-.021-19.77-.016-27.889 4.683-7.112 4.115-8.56 12.222-9.722 18.735-.54 3.024-1.098 6.152-2.021 7.748-.927 1.601-2.115 3.189-3.373 4.872-3.435 4.594-7.709 10.31-7.709 18.552 0 2.176-.362 4.812-.746 7.603-.962 7.001-2.053 14.935 1.812 21.616 4.363 7.543 13.006 12.333 19.95 16.182 1.16.643 2.282 1.264 3.333 1.871 6.802 3.938 14.34 3.344 20.989 2.823 5.283-.546 8.809-.461 14.339.896 3.569.759 7.394 1.572 11.203 1.572 3.314 0 6.618-.615 9.734-2.419 7.738-4.477 17.705-12.196 22.471-20.435 4.584-7.92 7.91-20.415 7.91-29.71 0-8.307-5.2-15.624-9.379-21.503-1.369-1.928-2.664-3.75-3.559-5.296zm-7.954 48.998c-3.063 5.296-10.959 11.469-16.999 14.963-1.708.986-6.677-.07-10.306-.842-3.616-.77-7.356-1.564-11.146-1.564-2.573 0-5.07.196-7.486.386-4.906.385-9.538.749-12.304-.853-1.126-.651-2.33-1.318-3.573-2.008-5.326-2.952-11.954-6.625-14.238-10.572-1.287-2.227-.538-7.681.064-12.062.436-3.168.886-6.443.886-9.646 0-3.103 1.706-5.536 4.722-9.569 1.463-1.955 2.975-3.978 4.343-6.343 2.244-3.878 3.038-8.324 3.805-12.625.45-2.519 1.385-7.762 2.467-8.387 4.628-2.677 13.381-2.689 20.365-2.666h.95c5.254 0 10.775 3.256 16.115 6.405.765.45 1.52.896 2.267 1.328 5.649 3.268 11.936 7.203 15.04 12.568 1.245 2.153 2.737 4.253 4.317 6.476 2.943 4.141 6.605 9.293 6.605 12.812 0 6.625-2.644 16.583-5.894 22.199z"/><path d="m437.096 375.559c-.998-1.724-1.776-4.612-2.53-7.406-1.688-6.266-3.791-14.062-10.729-18.077-7.011-4.055-14.575-1.082-20.655 1.309-2.991 1.177-6.085 2.394-8.063 2.394-1.582 0-3.119-.053-4.605-.104-6.294-.217-12.801-.441-19.907 3.671-7.63 4.414-11.021 10.478-14.3 16.342-.506.904-1.026 1.835-1.579 2.79-.882 1.524-2.974 3.431-4.997 5.274-4.725 4.305-10.605 9.662-10.605 18.045 0 9.645 2.776 20.434 7.245 28.157 3.97 6.862 11.069 9.777 17.334 12.349 2.368.972 4.605 1.891 6.351 2.9 1.385.801 2.821 1.744 4.344 2.744 5.442 3.574 12.216 8.023 20.721 8.023 10.065 0 20.059-2.441 27.419-6.699 7.366-4.262 14.474-11.688 19.501-20.377 3.871-6.692 2.373-13.876 1.17-19.647-.562-2.692-1.092-5.235-1.092-7.45-.003-8.003-.003-15.561-5.023-24.238zm-8.041 43.823c-3.698 6.39-8.942 11.962-14.028 14.905-5.069 2.932-12.512 4.683-19.908 4.683-4.02 0-8.132-2.701-12.486-5.561-1.629-1.07-3.314-2.178-5.066-3.19-2.622-1.518-5.44-2.675-8.166-3.794-4.246-1.742-8.637-3.545-10.047-5.983-3.128-5.405-5.229-13.702-5.229-20.646 0-1.757 3.165-4.641 5.708-6.957 2.867-2.613 5.833-5.315 7.879-8.851.59-1.021 1.146-2.015 1.687-2.981 2.805-5.016 4.658-8.329 8.72-10.679 2.432-1.407 4.675-1.75 8.075-1.75 2.359 0 5.795.199 8.926.199 4.822 0 9.461-1.824 13.554-3.434 2.411-.947 6.438-2.52 7.705-2.253 1.555.985 2.797 5.592 3.706 8.966 1.006 3.729 2.045 7.585 4.029 11.015 2.732 4.722 3.004 8.529 3.004 16.725 0 3.762.748 7.348 1.407 10.512.787 3.776 1.53 7.344.53 9.074z"/><path d="m420.725 36.252h-163.16c-5.685 0-10.87 3.119-13.534 8.141-2.663 5.021-2.339 11.064.849 15.77l13.374 19.75c.047.069.065.153.051.235l-7.271 41.393c-1.125 6.398 1.926 12.834 7.591 16.012l26.638 14.949c.125.069.188.216.154.355l-4.505 18.303c-1.326 5.387.37 11.084 4.429 14.869 2.652 2.472 6.004 3.701 9.351 3.701 3.508 0 7.009-1.35 9.695-4.035l126.034-126.035c3.935-3.936 5.102-9.801 2.972-14.942-2.13-5.143-7.103-8.466-12.668-8.466zm-124.807 136.697 4.062-16.505c1.642-6.665-1.393-13.665-7.378-17.023l-26.638-14.949c-.118-.066-.182-.2-.158-.334l7.271-41.393c.692-3.938-.161-7.93-2.404-11.242l-13.373-19.752c-.062-.092-.107-.158-.018-.328.091-.171.171-.171.283-.171h160.049z"/><path d="m36 225.162v195.815c0 5.565 3.322 10.538 8.465 12.668 1.706.707 3.491 1.051 5.261 1.051 3.561 0 7.052-1.394 9.682-4.022l105.078-105.078c4.16-4.16 5.009-10.396 2.112-15.518-2.896-5.119-8.677-7.602-14.387-6.186-.193.055-.399-.091-.399-.311v-22.684c0-4.236-1.777-8.323-4.879-11.213l-26.181-24.377c-3.062-2.851-7.227-4.339-11.385-4.078l-10.658.658c-.11.005-.209-.04-.274-.126l-19.891-25.928c-2.88-3.753-7.424-5.993-12.154-5.993h-15.07c-8.447.001-15.32 6.874-15.32 15.322zm30.644-.196 19.889 25.925c3.106 4.052 8.012 6.287 13.101 5.968l10.66-.658c.08-.002.173.025.237.086l26.179 24.375c.065.061.103.147.103.236v22.684c0 4.748 2.146 9.147 5.886 12.071 2.188 1.71 4.734 2.769 7.394 3.123l-99.093 99.091v-192.705c0-.177.144-.32.32-.32h15.07c.1-.001.194.045.254.124z"/><path d="m224.358 241.49c-1.157-3.978-5.317-6.262-9.296-5.108-3.978 1.157-6.265 5.318-5.108 9.296l7.662 26.351c.748 2.572 2.811 4.55 5.411 5.189 2.569.637 5.344-.149 7.2-2.088l45.155-47.011c2.869-2.987 2.773-7.735-.214-10.604-2.986-2.868-7.734-2.774-10.604.214l-36.167 37.653z"/><path d="m288.974 234.784c-2.6-.638-5.345.155-7.2 2.088l-45.156 47.011c-2.869 2.987-2.773 7.734.214 10.604 2.984 2.866 7.732 2.776 10.604-.214l36.168-37.653 4.039 13.892c1.158 3.979 5.32 6.264 9.296 5.108 3.978-1.157 6.265-5.318 5.108-9.296l-7.662-26.351c-.748-2.572-2.811-4.55-5.411-5.189z"/><path d="m301.661 85.997c1.374 0 2.766-.378 4.012-1.168l7.926-5.029c3.497-2.22 4.533-6.854 2.314-10.352-2.219-3.496-6.854-4.531-10.352-2.314l-7.926 5.029c-3.497 2.22-4.533 6.854-2.314 10.352 1.429 2.25 3.858 3.482 6.34 3.482z"/><path d="m436.982 155.647-7.927 5.03c-3.497 2.22-4.533 6.854-2.314 10.352 1.429 2.251 3.857 3.482 6.34 3.482 1.374 0 2.766-.378 4.012-1.168l7.927-5.03c3.497-2.22 4.533-6.854 2.314-10.352s-6.855-4.532-10.352-2.314z"/><path d="m71.077 332.287c1.374 0 2.766-.378 4.011-1.168l7.927-5.029c3.498-2.219 4.534-6.854 2.315-10.351-2.22-3.498-6.856-4.532-10.351-2.315l-7.927 5.029c-3.498 2.219-4.534 6.854-2.315 10.351 1.429 2.251 3.858 3.483 6.34 3.483z"/><path d="m199.215 399.428c1.374 0 2.766-.378 4.012-1.168l7.926-5.029c3.497-2.22 4.533-6.854 2.314-10.352-2.219-3.497-6.854-4.531-10.352-2.314l-7.926 5.029c-3.497 2.22-4.533 6.854-2.314 10.352 1.429 2.251 3.857 3.482 6.34 3.482z"/><path d="m128.594 405.327c-2.929 2.93-2.929 7.678 0 10.607 2.93 2.928 7.678 2.928 10.607 0l76.882-76.884-4.064 16.508c-1.639 6.664 1.396 13.663 7.38 17.021l26.636 14.947c.119.067.184.203.16.337l-7.271 41.392c-.692 3.938.161 7.931 2.403 11.242l13.374 19.751c.062.092.107.159.018.329s-.171.17-.283.17h-160.049l24.305-24.304c2.929-2.93 2.929-7.678 0-10.607-2.93-2.928-7.678-2.928-10.607 0l-26.505 26.504c-3.935 3.936-5.102 9.801-2.972 14.942 2.13 5.143 7.103 8.465 12.668 8.465h163.158c5.685 0 10.87-3.119 13.534-8.141s2.339-11.064-.849-15.77l-13.373-19.749c-.047-.069-.065-.153-.051-.236l7.271-41.394c1.123-6.396-1.927-12.83-7.592-16.011l-26.635-14.946c-.125-.07-.189-.218-.155-.356l4.506-18.303c1.327-5.388-.371-11.086-4.429-14.867-5.431-5.063-13.796-4.915-19.047.332z"/><path d="m468.5 224.212c4.143 0 7.5-3.357 7.5-7.5v-125.688c0-5.565-3.322-10.538-8.465-12.668-5.139-2.129-11.006-.963-14.942 2.972l-105.077 105.077c-4.16 4.161-5.01 10.397-2.112 15.519 2.896 5.122 8.677 7.608 14.388 6.184.061-.014.151-.036.274.059.123.097.123.19.123.253v22.685c0 4.239 1.779 8.326 4.88 11.212l26.181 24.378c3.061 2.85 7.209 4.339 11.385 4.078l10.657-.659c.112.004.209.04.274.126l19.889 25.925c2.879 3.755 7.424 5.997 12.157 5.997h15.068c8.447 0 15.32-6.873 15.32-15.32v-41.127c0-4.143-3.357-7.5-7.5-7.5s-7.5 3.357-7.5 7.5v41.127c0 .177-.144.32-.32.32h-15.068c-.099 0-.193-.046-.255-.126l-19.89-25.927c-3.107-4.05-8.011-6.276-13.101-5.966l-10.656.657c-.11.002-.177-.026-.239-.086l-26.182-24.379c-.064-.06-.101-.145-.101-.232v-22.685c0-4.748-2.146-9.147-5.887-12.071-2.188-1.71-4.733-2.769-7.392-3.123l99.091-99.09v122.578c0 4.143 3.357 7.5 7.5 7.5z"/><path d="m493.87.252h-426.491c-4.143 0-7.5 3.357-7.5 7.5s3.357 7.5 7.5 7.5h426.491c1.726 0 3.13 1.404 3.13 3.13v475.235c0 1.726-1.404 3.13-3.13 3.13h-475.74c-1.726 0-3.13-1.404-3.13-3.13v-475.235c0-1.726 1.404-3.13 3.13-3.13h20.249c4.143 0 7.5-3.357 7.5-7.5s-3.357-7.5-7.5-7.5h-20.249c-9.997 0-18.13 8.133-18.13 18.13v475.235c0 9.997 8.133 18.13 18.13 18.13h475.74c9.997 0 18.13-8.133 18.13-18.13v-475.235c0-9.997-8.133-18.13-18.13-18.13z"/></g></svg>