<svg id="Capa_1" enable-background="new 0 0 512.025 512.025" height="512" viewBox="0 0 512.025 512.025" width="512" xmlns="http://www.w3.org/2000/svg"><g><path d="m491.002 348.618 19.185-33.31c2.456-4.267 2.452-9.359-.013-13.622-2.464-4.263-6.875-6.808-11.799-6.808h-46.249v-40.547c0-9.41-7.32-17.143-16.564-17.804l29.241-33.75c2.197-2.536 2.443-6.223.602-9.027l-77.587-118.155c-1.387-2.112-3.743-3.384-6.27-3.384h-178.193c-4.143 0-7.5 3.357-7.5 7.5s3.357 7.5 7.5 7.5h38.589l-63.507 94.573-36.975-94.573h32.893c4.143 0 7.5-3.357 7.5-7.5s-3.357-7.5-7.5-7.5h-43.879c-2.526 0-4.883 1.271-6.27 3.384l-77.584 118.155c-1.842 2.805-1.596 6.491.601 9.027l29.24 33.75c-9.244.662-16.563 8.394-16.563 17.804v40.547h-46.249c-4.925 0-9.336 2.545-11.8 6.809-2.465 4.263-2.469 9.355-.011 13.622l19.184 33.308-19.183 33.308c-2.458 4.267-2.454 9.359.011 13.622 2.464 4.264 6.875 6.809 11.8 6.809h44.227c4.143 0 7.5-3.357 7.5-7.5s-3.357-7.5-7.5-7.5h-41.856l18.395-31.938c2.414-4.194 2.414-9.406-.001-13.603l-18.394-31.937h43.876v38.21c0 9.843 8.008 17.851 17.851 17.851h38.068v12.403c0 4.97-4.044 9.014-9.014 9.014h-19.926c-4.143 0-7.5 3.357-7.5 7.5s3.357 7.5 7.5 7.5h19.927c13.241 0 24.014-10.772 24.014-24.014v-12.403h57.766l61.76 71.286c1.425 1.645 3.493 2.589 5.669 2.589s4.244-.944 5.669-2.589l61.761-71.286h57.765v12.403c0 13.241 10.772 24.014 24.014 24.014h93.153c4.924 0 9.335-2.545 11.799-6.809 2.465-4.263 2.469-9.355.012-13.622zm-293.285-112.137-10.576-31.115h137.743l-10.574 31.115zm-101.447 0-26.957-31.115h101.986l10.576 31.115zm32.508-140.518 36.908 94.403h-98.897zm61.965 94.403 65.271-97.2 65.27 97.2zm192.505-94.402 61.989 94.402h-98.897zm-12.684-8.753-36.975 94.573-63.506-94.573zm-295.665 260.877v-93.757c0-1.572 1.278-2.851 2.851-2.851h284.063c4.143 0 7.5-3.357 7.5-7.5s-3.357-7.5-7.5-7.5h-31.661l10.574-31.115h101.987l-26.957 31.115h-24.943c-4.143 0-7.5 3.357-7.5 7.5s3.357 7.5 7.5 7.5h43.462c1.572 0 2.851 1.278 2.851 2.851v93.757c0 1.572-1.278 2.851-2.851 2.851h-356.525c-1.572 0-2.851-1.278-2.851-2.851zm166.817 17.851h28.595l-14.297 42.068zm-15.844 0 11.259 33.127-28.7-33.127zm49.024 33.125 11.258-33.125h17.441zm130.326-11.708c-4.97 0-9.014-4.044-9.014-9.014v-12.403h38.067c9.843 0 17.851-8.008 17.851-17.851v-38.21h43.877l-18.395 31.938c-2.414 4.194-2.414 9.406.001 13.603l18.394 31.937z"/><path d="m369.354 277.87h-226.683c-4.143 0-7.5 3.357-7.5 7.5s3.357 7.5 7.5 7.5h226.684c4.143 0 7.5-3.357 7.5-7.5s-3.358-7.5-7.501-7.5z"/><path d="m369.354 309.55h-92.369c-4.143 0-7.5 3.357-7.5 7.5s3.357 7.5 7.5 7.5h92.369c4.143 0 7.5-3.357 7.5-7.5s-3.357-7.5-7.5-7.5z"/><path d="m235.041 309.55h-92.37c-4.143 0-7.5 3.357-7.5 7.5s3.357 7.5 7.5 7.5h92.37c4.143 0 7.5-3.357 7.5-7.5s-3.358-7.5-7.5-7.5z"/></g></svg>