<?xml version="1.0" encoding="UTF-8"?>
<svg id="Layer_2" data-name="Layer 2" xmlns="http://www.w3.org/2000/svg" viewBox="0 0 496.06 197.01">
  <defs>
    <style>
      .cls-1 {
        fill: #97be45;
      }

      .cls-2 {
        fill: #0596f1;
      }

      .cls-3 {
        fill: #e9f105;
      }
    </style>
  </defs>
  <g>
    <polygon points="53.15 49.61 9.92 49.61 9.92 7.09 29.76 7.09 53.15 49.61"/>
    <rect x="92.13" y="7.09" width="19.84" height="42.52"/>
    <polygon points="111.97 77.95 111.97 120.47 92.12 120.47 68.74 77.95 111.97 77.95"/>
    <rect x="9.92" y="77.95" width="19.84" height="42.52"/>
    <rect x="9.92" y="55.28" width="189.92" height="17.01"/>
    <rect class="cls-1" x="202.68" y="55.28" width="17.01" height="17.01"/>
    <rect class="cls-3" x="182.83" y="35.43" width="17.01" height="17.01"/>
    <rect class="cls-2" x="182.83" y="75.12" width="17.01" height="17.01"/>
    <path d="M379.47,49.61h-20.88c-5.54-13.32-18.69-22.68-34.02-22.68h-36.85v22.68h-19.85V7.09h56.7c26.42,0,48.61,18.07,54.9,42.52Z"/>
    <path d="M379.47,77.95c-6.29,24.45-28.48,42.52-54.9,42.52h-56.7v-42.52h19.85v22.68h36.85c15.33,0,28.48-9.36,34.02-22.68h20.88Z"/>
    <polygon points="423.78 77.95 403.94 77.95 403.94 120.47 486.14 120.47 486.14 100.63 423.78 100.63 423.78 77.95"/>
    <polygon points="486.14 26.93 486.14 7.09 403.94 7.09 403.94 49.61 423.78 49.61 423.78 26.93 486.14 26.93"/>
    <path d="M486.14,55.28v17h-238.75c-4.09,27.27-27.63,48.19-56.05,48.19-26.42,0-48.62-18.07-54.91-42.52h20.88c5.55,13.32,18.7,22.68,34.03,22.68,20.35,0,36.85-16.5,36.85-36.85s-16.5-36.85-36.85-36.85c-15.33,0-28.48,9.36-34.03,22.68h-20.88c6.29-24.45,28.49-42.52,54.91-42.52,28.42,0,51.96,20.92,56.05,48.19h238.75Z"/>
  </g>
  <g>
    <path d="M59.69,153.8h-9.19v-3.87c0-.28-.21-.48-.48-.48h-30.48c-.28,0-.48.2-.48.48v30.55c0,.28.21.48.48.48h30.48c.28,0,.48-.21.48-.48v-9.4h-11.27v-9.12h20.46v18.52c0,5.32-4.35,9.61-9.68,9.61h-30.48c-5.32,0-9.61-4.28-9.61-9.61v-30.55c0-5.32,4.28-9.61,9.61-9.61h30.48c5.32,0,9.68,4.29,9.68,9.61v3.87Z"/>
    <path d="M107.35,140.31c5.25,0,9.61,4.29,9.61,9.61v30.55c0,5.32-4.35,9.61-9.61,9.61h-30.55c-5.32,0-9.61-4.28-9.61-9.61v-30.55c0-5.32,4.29-9.61,9.61-9.61h30.55ZM107.35,180.96c.21,0,.42-.21.42-.48v-30.55c0-.28-.21-.48-.42-.48h-30.55c-.28,0-.48.2-.48.48v30.55c0,.28.21.48.48.48h30.55Z"/>
    <path d="M164.61,140.31c5.25,0,9.61,4.29,9.61,9.61v30.55c0,5.32-4.35,9.61-9.61,9.61h-30.55c-5.32,0-9.61-4.28-9.61-9.61v-30.55c0-5.32,4.29-9.61,9.61-9.61h30.55ZM164.61,180.96c.21,0,.42-.21.42-.48v-30.55c0-.28-.21-.48-.42-.48h-30.55c-.28,0-.48.2-.48.48v30.55c0,.28.21.48.48.48h30.55Z"/>
    <path d="M222.09,140.31c5.32,0,9.68,4.29,9.68,9.61v30.55c0,5.32-4.36,9.61-9.68,9.61h-40.09v-49.77h40.09ZM222.57,149.93c0-.28-.21-.48-.48-.48h-30.48c-.28,0-.48.2-.48.48v30.55c0,.28.21.48.48.48h30.48c.28,0,.48-.21.48-.48v-30.55Z"/>
    <path d="M310.61,153.8h-9.19v-3.87c0-.28-.21-.48-.48-.48h-30.48c-.28,0-.48.2-.48.48v30.55c0,.28.21.48.48.48h30.48c.28,0,.48-.21.48-.48v-9.4h-11.27v-9.12h20.46v18.52c0,5.32-4.36,9.61-9.68,9.61h-30.48c-5.32,0-9.61-4.28-9.61-9.61v-30.55c0-5.32,4.29-9.61,9.61-9.61h30.48c5.32,0,9.68,4.29,9.68,9.61v3.87Z"/>
    <path d="M358.47,140.31c5.32,0,9.68,4.29,9.68,9.61v40.16h-9.19v-16.73h-31.45v16.73h-9.12v-40.16c0-5.32,4.29-9.61,9.61-9.61h30.48ZM358.96,164.24v-14.31c0-.28-.21-.48-.48-.48h-30.48c-.28,0-.48.2-.48.48v14.31h31.45Z"/>
    <path d="M422.17,140.31h10.02v49.77h-9.19v-36.5l-18.87,22.47-18.94-22.47v36.5h-9.12v-49.77h9.95l18.11,21.57,18.04-21.57Z"/>
    <path d="M486.14,149.44h-36.57v11.19h29.45v9.12h-29.45v11.2h36.57v9.12h-45.76v-49.77h45.76v9.13Z"/>
  </g>
</svg>