<?xml version="1.0" encoding="UTF-8"?>
<svg id="Layer_1" data-name="Layer 1" xmlns="http://www.w3.org/2000/svg" viewBox="0 0 496.06 127.56">
  <defs>
    <style>
      .cls-1 {
        fill: #97be45;
      }

      .cls-2 {
        fill: #0596f1;
      }

      .cls-3 {
        fill: #e9f105;
      }
    </style>
  </defs>
  <polygon points="53.15 49.61 9.92 49.61 9.92 7.09 29.76 7.09 53.15 49.61"/>
  <rect x="92.13" y="7.09" width="19.84" height="42.52"/>
  <polygon points="111.97 77.95 111.97 120.47 92.12 120.47 68.74 77.95 111.97 77.95"/>
  <rect x="9.92" y="77.95" width="19.84" height="42.52"/>
  <rect x="9.92" y="55.28" width="189.92" height="17.01"/>
  <rect class="cls-1" x="202.68" y="55.28" width="17.01" height="17.01"/>
  <rect class="cls-3" x="182.83" y="35.43" width="17.01" height="17.01"/>
  <rect class="cls-2" x="182.83" y="75.12" width="17.01" height="17.01"/>
  <path d="M379.47,49.61h-20.88c-5.54-13.32-18.69-22.68-34.02-22.68h-36.85v22.68h-19.85V7.09h56.7c26.42,0,48.61,18.07,54.9,42.52Z"/>
  <path d="M379.47,77.95c-6.29,24.45-28.48,42.52-54.9,42.52h-56.7v-42.52h19.85v22.68h36.85c15.33,0,28.48-9.36,34.02-22.68h20.88Z"/>
  <polygon points="423.78 77.95 403.94 77.95 403.94 120.47 486.14 120.47 486.14 100.63 423.78 100.63 423.78 77.95"/>
  <polygon points="486.14 26.93 486.14 7.09 403.94 7.09 403.94 49.61 423.78 49.61 423.78 26.93 486.14 26.93"/>
  <path d="M486.14,55.28v17h-238.75c-4.09,27.27-27.63,48.19-56.05,48.19-26.42,0-48.62-18.07-54.91-42.52h20.88c5.55,13.32,18.7,22.68,34.03,22.68,20.35,0,36.85-16.5,36.85-36.85s-16.5-36.85-36.85-36.85c-15.33,0-28.48,9.36-34.03,22.68h-20.88c6.29-24.45,28.49-42.52,54.91-42.52,28.42,0,51.96,20.92,56.05,48.19h238.75Z"/>
</svg>